<svg width="116" height="62" viewBox="0 0 116 62" xmlns="http://www.w3.org/2000/svg" xmlns:sketch="http://www.bohemiancoding.com/sketch/ns"><title>propublica-logo</title><desc>Created with Sketch.</desc><g sketch:type="MSArtboardGroup" fill="none" fill-rule="evenodd"><g sketch:type="MSLayerGroup" fill="#fff"><path d="M10.63 42.669c0 1.278.468 1.386 1.188 1.386h.9v.666c-1.008-.054-2.016-.108-3.025-.108-.9 0-1.8.054-2.7.108v-.666h.432c.702 0 1.206-.09 1.206-1.35v-8.913c0-1.242-.522-1.351-1.224-1.351l-.306.019v-.666c.72.054 1.224.107 1.963.107h1.169c.685 0 1.315-.053 2.179-.053 2.071 0 3.295.305 4.159 1.44.343.45.685 1.134.685 2.179 0 1.746-.901 4.033-4.502 4.033-.54 0-1.062-.036-2.124-.126v3.295zm0-4.051c.54.108.99.161 1.53.161 3.115 0 3.169-2.502 3.169-3.169 0-2.88-2.52-2.988-3.295-2.988-1.062 0-1.404.144-1.404.612v5.384z" sketch:type="MSShapeGroup"/><path d="M18.101 44.024c.722 0 1.349-.076 1.349-.912v-7.18c0-.589-.437-.665-1.349-.665v-.722c.665.057 1.33.095 1.995.095.836 0 1.482-.057 2.793-.057 2.431 0 3.324 1.349 3.324 2.603 0 1.538-1.102 2.241-2.242 2.602.627.152 1.159.627 1.444 1.216l.893 1.805c.532 1.064 1.007 1.215 1.558 1.215v.666h-1.026c-1.159 0-1.653-.153-2.109-1.197l-1.045-2.375c-.36-.817-.797-.969-1.747-.969h-.779v3.02c0 .76.285.855 1.349.855v.666c-.722-.039-1.463-.077-2.204-.077-.722 0-1.463.038-2.204.077v-.666zm3.477-4.597c1.614 0 2.964-.114 2.964-2.128 0-.627-.209-.988-.343-1.177-.38-.551-.892-.723-2.089-.723-.608 0-.95.02-.95.4v3.628h.418z" sketch:type="MSShapeGroup"/><path d="M32.978 44.822c-2.489 0-5.092-1.367-5.092-5.281 0-2.622 1.406-5.148 5.054-5.148 3.989 0 5.224 2.868 5.224 5.186 0 2.545-1.254 5.243-5.186 5.243zm.132-9.707c-2.488 0-3.324 2.28-3.324 4.54 0 2.185.912 4.369 3.211 4.369 2.109 0 3.305-1.633 3.305-4.236 0-3.496-1.539-4.673-3.192-4.673z" sketch:type="MSShapeGroup"/><path d="M49.692 42.669c0 1.278.468 1.386 1.188 1.386h.9v.666c-1.008-.054-2.016-.108-3.025-.108-.9 0-1.8.054-2.7.108v-.666h.432c.702 0 1.206-.09 1.206-1.35v-8.913c0-1.242-.522-1.351-1.224-1.351l-.306.019v-.666c.72.054 1.224.107 1.962.107h1.17c.685 0 1.315-.053 2.179-.053 2.071 0 3.295.305 4.159 1.44.343.45.685 1.134.685 2.179 0 1.746-.9 4.033-4.502 4.033-.54 0-1.062-.036-2.124-.126v3.295zm0-4.051c.54.108.99.161 1.53.161 3.115 0 3.169-2.502 3.169-3.169 0-2.88-2.521-2.988-3.295-2.988-1.062 0-1.404.144-1.404.612v5.384z" sketch:type="MSShapeGroup"/><path d="M67.648 35.267c-.949 0-1.272.285-1.272 1.273v4.692c0 2.317-1.273 3.59-3.933 3.59-2.944 0-3.78-1.501-3.78-3.058v-5.642c0-.817-.513-.855-1.311-.855v-.722c.703.057 1.444.095 2.166.095.741 0 1.501-.038 2.26-.095v.722c-1.082 0-1.424.076-1.424.665v5.661c0 1.254.797 2.146 2.564 2.146 1.52 0 2.489-.702 2.489-2.735v-4.673c0-.817-.266-1.064-1.425-1.064v-.722c.608.057 1.216.114 1.824.114.627 0 1.235-.057 1.842-.114v.722" sketch:type="MSShapeGroup"/><path d="M68.904 44.005c1.291 0 1.329-.399 1.329-1.177v-6.726c0-.74-.646-.835-1.139-.835h-.19v-.703c.665.038 1.329.095 1.994.095.931 0 2.223-.076 2.964-.076 2.412 0 3.058 1.292 3.058 2.298 0 .988-.702 1.957-1.747 2.337.969.304 1.728.551 2.223 1.501.266.513.303.95.303 1.197 0 .835-.493 1.671-1.159 2.165-.721.532-1.652.57-2.108.57-1.235 0-2.147-.095-3.23-.095-.76 0-1.519.076-2.298.134v-.685zm3.058-5.053h1.501c.589 0 1.121-.076 1.501-.608.304-.437.304-.968.304-1.139 0-1.749-1.425-1.843-1.843-1.843h-.722c-.646 0-.741.19-.741.551v3.039zm0 4.217c0 .457 0 .666 1.463.666h.475c1.102 0 2.071-.551 2.071-1.919 0-1.368-1.007-2.204-2.831-2.204h-1.178v3.457z" sketch:type="MSShapeGroup"/><path d="M80.665 36.16c0-.855-.324-.95-1.35-.95v-.665c.779.076 1.425.114 2.147.114.741 0 1.501-.057 2.261-.114v.722c-.988 0-1.349.132-1.349.931v7.123c0 .228.095.437.437.437h1.216c1.975 0 2.545-.437 2.869-2.26h.874c-.286 1.253-.362 1.633-.571 3.192-1.386-.039-2.773-.077-4.16-.077-1.292 0-2.374.038-3.724.077v-.685c.932 0 1.35-.132 1.35-.797v-7.048" sketch:type="MSShapeGroup"/><path d="M93.204 35.305c-1.14 0-1.349.303-1.349.987v6.916c0 .607.475.759 1.349.759v.723c-.76-.039-1.52-.077-2.28-.077-.703 0-1.405.038-2.109.077v-.723h.133c.722 0 1.198-.152 1.198-.759v-7.125c0-.684-.495-.778-1.331-.778v-.76c.76.076 1.52.152 2.28.152.703 0 1.406-.076 2.109-.152v.76" sketch:type="MSShapeGroup"/><path d="M102.399 37.869c-.228-1.767-.589-2.583-2.565-2.583-2.868 0-3.4 2.545-3.4 3.97 0 3.248 1.786 4.521 3.477 4.521.627 0 1.994-.132 2.925-1.785l.76.303c-1.311 2.395-3.438 2.546-4.293 2.546-3.021 0-4.712-2.393-4.712-5.11 0-1.729.627-5.3 5.149-5.3 1.615 0 3.039.513 3.514.684.038 1.538.057 2.849.057 2.849l-.912-.095" sketch:type="MSShapeGroup"/><path d="M112.963 43.208c.285.721.741.816 1.235.816v.666c-.703-.058-1.406-.096-2.109-.096-.684 0-1.368.038-2.051.096v-.666h.512c.247 0 .57-.114.57-.341 0-.115-.056-.228-.095-.324l-.893-2.431h-3.343l-.969 2.374c-.038.115-.076.209-.076.324 0 .284.19.341 1.254.341v.723c-.551-.039-1.121-.096-1.691-.096-.589 0-1.197.057-1.785.096v-.666c.912-.076 1.082-.189 1.424-1.006l3.724-8.739h.645l3.648 8.929zm-5.851-3.078h2.698c-.475-1.159-.913-2.336-1.33-3.515l-1.368 3.515z" sketch:type="MSShapeGroup"/></g><circle stroke="#fff" stroke-width="2" sketch:type="MSShapeGroup" cx="22.5" cy="38.5" r="21.5"/><path d="M85.041 3.021l2.213 4.162c.255.48.073 1.09-.415 1.35l-36.202 19.249c-.482.256-1.092.075-1.351-.411l-2.82-5.303c-.255-.48-.073-1.09.415-1.35l36.202-19.249c.482-.256 1.092-.075 1.351.411l.185.348-36.477 19.395.422.793 36.477-19.395z" fill="#fff" sketch:type="MSShapeGroup"/><path d="M43.424 25.539c-1.059.562-3.655.937-3.655.937l2.257 4.249s1.746-1.849 2.857-2.439c1.048-.557 3.621-1.002 3.621-1.002l-2.257-4.249s-1.723 1.919-2.823 2.503z" fill="#fff" sketch:type="MSShapeGroup"/></g></svg>