<?xml version="1.0" standalone="no"?> <!DOCTYPE svg PUBLIC "-//W3C//DTD SVG 1.0//EN" "http://www.w3.org/TR/2001/REC-SVG-20010904/DTD/svg10.dtd" > <svg xmlns="http://www.w3.org/2000/svg" width="100%" height="100%">
<defs >
<font id="AtlasGrotesk-Bold" horiz-adv-x="575" ><font-face
    font-family=""
    units-per-em="1000"
    panose-1="0 0 0 0 0 0 0 0 0 0"
    ascent="812"
    descent="-188"
    alphabetic="0" />
<missing-glyph horiz-adv-x="500" />
<glyph unicode=" " glyph-name="space" horiz-adv-x="228" />
<glyph unicode="!" glyph-name="exclam" horiz-adv-x="330" d="M73 788H257L224 243H105L73 788ZM77 0V152H252V0H77Z" />
<glyph unicode="&quot;" glyph-name="quotedbl" horiz-adv-x="481" d="M273 765H415L390 504H293L273 765ZM66 765H208L184 504H86L66 765Z" />
<glyph unicode="#" glyph-name="numbersign" horiz-adv-x="667" d="M377 373L398 515H287L266 373H377ZM161 278H54V373H176L196 515H84V610H209L233 765H323L301 610H410L434 765H526L502 610H614V515H489L469 373H584V278H454L429 99H337L362 278H252L226 99H136L161
278Z" />
<glyph unicode="$" glyph-name="dollar" horiz-adv-x="663" d="M294 635Q245 628 224 604T203 548Q203 473 294 455V635ZM366 108Q419 115 442 141T465 204Q465 245 440 265T364 296V108H366ZM294 -116V-11Q175 -3 108 54T34 215H190Q195 174 219 146T294 109V309L260
315Q212 323 173 339T105 380T62 443T46 532Q46 575 63 612T111 677T189 724T294 747V828H364V747Q424 742 468 724T543 678T589 613T609 535H453Q451 567 430 595T364 634V443L401 437Q624 400 624 229Q624 122 558 60T364 -11V-116H294Z" />
<glyph unicode="%" glyph-name="percent" horiz-adv-x="918" d="M672 781H786L252 -40H138L672 781ZM230 381Q194 381 162 392T106 426T69 483T55 562Q55 607 69 641T108 697T163 731T230 742Q266 742 298 731T354 698T392 641T407 562Q407 517 393 483T354 427T298
393T230 381ZM229 466Q261 466 279 490T298 562Q298 610 280 634T229 659Q197 659 180 636T162 562Q162 514 179 490T229 466ZM686 -7Q650 -7 618 4T562 38T525 95T511 174Q511 219 525 253T563 309T619 343T686 354Q722 354 754 343T810 310T848 253T862 174Q862
129 848 95T810 39T754 5T686 -7ZM685 78Q716 78 735 102T754 174Q754 222 735 246T685 271Q653 271 635 248T617 174Q617 126 635 102T685 78Z" />
<glyph unicode="&amp;" glyph-name="ampersand" horiz-adv-x="769" d="M266 600Q266 568 280 542T328 481Q371 511 397 541T423 610Q423 644 402 665T346 687Q308 687 287 663T266 600ZM268 343Q237 320 218 292T198 222Q198 165 229 133T321 101Q359 101 389
115T444 156L272 346L268 343ZM692 -1Q663 -1 641 2T599 14T562 36T524 70Q482 30 429 7T307 -16Q171 -16 108 44T44 206Q44 275 82 326T203 428Q183 449 168 469T144 509T130 551T125 601Q125 640 140 674T183 733T253 772T347 787Q396 787 435 775T501 740T542
688T557 621Q557 587 546 558T514 502T465 452T403 403L520 275Q534 307 547 342T572 412H708Q687 354 663 294T607 178Q625 158 637 147T662 131T690 124T728 122V-1H692Z" />
<glyph unicode="&apos;" glyph-name="quotesingle" horiz-adv-x="275" d="M66 765H208L184 504H86L66 765Z" />
<glyph unicode="(" glyph-name="parenleft" horiz-adv-x="358" d="M229 -130Q202 -93 174 -46T122 59T83 183T68 329Q68 408 83 475T121 600T173 703T229 788H343Q317 742 293 692T251 585T222 465T211 329Q211 258 222 195T251 75T293 -33T343 -130H229Z" />
<glyph unicode=")" glyph-name="parenright" horiz-adv-x="349" d="M15 -130Q41 -84 65 -33T107 74T136 194T147 329Q147 401 136 464T107 584T65 691T15 788H128Q155 750 184 704T236 600T274 476T289 329Q289 251 274 184T236 59T184 -45T128 -130H15Z" />
<glyph unicode="*" glyph-name="asterisk" horiz-adv-x="455" d="M226 542L164 417L69 483L172 580V584L35 604L72 716L194 647L196 649L169 788H286L260 648L262 646L384 714L421 603L284 582V579L387 481L292 415L230 542H226Z" />
<glyph unicode="+" glyph-name="plus" horiz-adv-x="633" d="M378 104H253V300H63V416H253V610H378V416H569V300H378V104Z" />
<glyph unicode="," glyph-name="comma" horiz-adv-x="288" d="M92 159H256L146 -117H40L92 159Z" />
<glyph unicode="-" glyph-name="hyphen" horiz-adv-x="425" d="M57 376H369V255H57V376Z" />
<glyph unicode="." glyph-name="period" horiz-adv-x="291" d="M61 159H230V0H61V159Z" />
<glyph unicode="/" glyph-name="slash" horiz-adv-x="572" d="M441 788H561L107 -130H-14L441 788Z" />
<glyph unicode="0" glyph-name="zero" horiz-adv-x="702" d="M50 367Q50 464 71 536T132 656T227 727T350 751Q421 751 477 728T572 658T631 538T652 367Q652 271 631 199T571 80T476 9T350 -15Q205 -15 128 78T50 367ZM350 105Q378 105 401 119T442 165T468 247T477
368Q477 440 468 490T441 572T401 618T350 633Q321 633 298 619T259 573T233 491T224 368Q224 294 232 244T257 163T297 119T350 105Z" />
<glyph unicode="1" glyph-name="one" horiz-adv-x="429" d="M171 508H26V610H45Q78 610 105 617T152 641Q189 673 189 742H330V0H171V508Z" />
<glyph unicode="2" glyph-name="two" horiz-adv-x="639" d="M56 495Q58 615 128 683T330 752Q399 752 447 735T527 690T572 623T587 542Q587 501 577 468T547 404T495 340T421 268L270 128V127H589V0H41V92L302 342Q334 372 356 397T393 444T415 488T422 532Q422
580 396 607T325 634Q305 634 285 628T250 605T225 562T215 495H56Z" />
<glyph unicode="3" glyph-name="three" horiz-adv-x="650" d="M260 320V432H313Q361 432 391 459T421 534Q421 557 413 575T390 606T358 625T319 632Q265 632 239 603T210 524H55Q56 566 71 607T118 680T200 732T324 752Q387 752 435 737T516 694T565 631T582
554Q582 494 550 450T457 386V384Q523 368 562 324T601 204Q601 160 583 121T530 51T443 3T323 -15Q248 -15 196 4T112 56T64 129T45 215H209Q215 160 248 134T326 107Q377 107 409 136T441 214Q441 264 411 292T326 320H260Z" />
<glyph unicode="4" glyph-name="four" horiz-adv-x="666" d="M388 284V604H386Q382 592 376 580Q366 559 344 524L185 284H388ZM541 164V0H385V164H35V275L353 741H541V286H631V164H541Z" />
<glyph unicode="5" glyph-name="five" horiz-adv-x="644" d="M435 240Q435 303 403 338T318 373Q240 373 202 319H69L106 741H549V615H228L212 426H214Q234 452 273 471T366 491Q416 491 458 475T531 428T579 350T596 244Q596 191 578 144T525 62T437 6T315 -15Q238
-15 187 4T106 55T62 127T45 209H200Q205 155 235 131T314 107Q339 107 361 115T399 141T425 183T435 240Z" />
<glyph unicode="6" glyph-name="six" horiz-adv-x="662" d="M450 565Q442 600 419 619T356 638Q292 638 255 578T214 391H218Q241 436 287 461T392 486Q437 486 478 471T550 426T599 352T618 248Q618 194 601 147T548 63T460 6T339 -15Q277 -15 224 4T133 65T72
173T50 335Q50 541 131 646T358 752Q418 752 461 738T534 698T578 639T598 565H450ZM343 105Q364 105 384 112T421 136T447 178T457 238Q457 301 425 335T343 369Q292 369 261 337T229 238Q229 203 238 178T264 137T300 113T343 105Z" />
<glyph unicode="7" glyph-name="seven" horiz-adv-x="566" d="M359 614H23V741H541V651L243 0H80L359 614Z" />
<glyph unicode="8" glyph-name="eight" horiz-adv-x="658" d="M69 549Q69 593 86 630T136 694T217 736T329 752Q392 752 440 737T522 694T572 630T589 548Q589 514 580 488T554 441T516 408T470 385V382Q500 374 526 361T572 325T603 273T614 203Q614 157 594
117T536 48T446 1T329 -16Q262 -16 209 0T120 45T64 115T44 203Q44 242 55 272T85 324T131 360T187 382V385Q163 393 142 407T104 441T79 488T69 549ZM329 641Q284 641 253 615T222 535Q222 482 253 456T329 430Q373 430 404 456T435 535Q435 589 404 615T329 641ZM329
92Q354 92 377 99T417 120T444 156T454 207Q454 236 444 257T417 293T378 314T329 321Q303 321 281 314T241 293T214 258T204 207Q204 178 214 157T241 121T281 99T329 92Z" />
<glyph unicode="9" glyph-name="nine" horiz-adv-x="661" d="M321 628Q300 628 280 621T243 599T216 559T205 502Q205 471 214 448T240 408T277 384T321 376Q370 376 404 407T438 502Q438 534 428 557T401 597T363 620T321 628ZM206 179Q214 141 242 122T308 102Q377
102 411 164T447 347H444Q422 307 379 284T279 261Q234 261 192 276T116 320T63 394T43 497Q43 549 61 595T116 676T204 731T324 752Q458 752 534 663T611 393Q611 288 589 211T527 84T430 10T304 -15Q195 -15 133 37T59 179H206Z" />
<glyph unicode=":" glyph-name="colon" horiz-adv-x="298" d="M69 527H236V368H69V527ZM69 0V159H236V0H69Z" />
<glyph unicode=";" glyph-name="semicolon" horiz-adv-x="319" d="M93 527H261V368H93V527ZM42 -117L94 159H258L148 -117H42Z" />
<glyph unicode="&lt;" glyph-name="less" horiz-adv-x="633" d="M64 297V369L560 622V492L244 336L560 179V45L64 297Z" />
<glyph unicode="=" glyph-name="equal" horiz-adv-x="633" d="M76 515H556V400H76V515ZM76 195V310H556V195H76Z" />
<glyph unicode="&gt;" glyph-name="greater" horiz-adv-x="633" d="M569 366V295L73 42V172L389 328L73 485V618L569 366Z" />
<glyph unicode="?" glyph-name="question" horiz-adv-x="591" d="M404 580Q404 622 378 647T302 672Q278 672 257 665T219 641T194 597T184 529H32Q31 588 48 637T100 721T186 776T305 796Q372 796 420 780T500 735T545 669T560 588Q560 553 553 526T533 476T500
433T456 392L389 336Q373 323 367 313T361 282V239H224V303Q224 327 226 343T234 371T253 396T285 425L342 472Q371 496 387 519T404 580ZM205 0V152H380V0H205Z" />
<glyph unicode="@" glyph-name="at" horiz-adv-x="1009" d="M717 54Q660 54 622 78T578 151H575Q552 109 515 83T420 56Q346 56 305 102T264 234Q264 285 279 335T324 424T394 487T489 511Q538 511 567 489T608 437H610L621 495H749L690 218Q681 174 695 151T745
128Q769 128 792 140T834 178T864 244T876 342Q876 413 850 474T776 579T664 649T521 675Q439 675 368 644T243 557T160 427T129 264Q129 176 156 105T233 -16T349 -93T495 -120Q576 -120 642 -96T752 -36L796 -81Q746 -123 670 -154T488 -185Q393 -185 313 -153T175
-61T84 80T51 264Q51 367 87 454T187 604T337 704T523 740Q616 740 695 712T832 632T923 508T956 348Q956 270 936 215T883 123T806 71T717 54ZM465 146Q501 146 531 177T572 262L581 306Q585 329 584 350T574 387T551 412T516 422Q486 422 464 404T427 359T405
298T398 234Q398 193 414 170T465 146Z" />
<glyph unicode="A" glyph-name="A" horiz-adv-x="761" d="M373 624Q372 621 365 591T343 513L272 290H474L404 512Q396 537 391 557T382 593Q378 611 375 624H373ZM514 170H233L177 0H20L287 765H471L742 0H570L514 170Z" />
<glyph unicode="B" glyph-name="B" horiz-adv-x="728" d="M77 0V765H395Q526 765 592 717T659 570Q659 536 648 510T618 463T575 430T526 411V407Q562 401 592 386T645 347T679 292T692 223Q692 167 671 126T612 56T521 14T402 0H77ZM375 449Q429 449 462 472T496
551Q496 601 465 626T379 651H241V449H375ZM390 117Q452 117 488 143T524 234Q524 289 488 315T387 341H241V117H390Z" />
<glyph unicode="C" glyph-name="C" horiz-adv-x="766" d="M404 654Q365 654 333 637T277 585T240 498T227 378Q227 246 274 177T403 107Q471 107 508 147T553 260H720Q717 198 694 147T631 60T534 4T407 -16Q318 -16 251 10T140 87T73 209T50 372Q50 466 74 541T143
668T255 748T404 776Q474 776 531 758T628 706T693 621T721 506H552Q546 574 507 614T404 654Z" />
<glyph unicode="D" glyph-name="D" horiz-adv-x="770" d="M77 765H338Q423 765 493 744T614 677T693 561T721 392Q721 294 694 221T616 98T496 25T342 0H77V765ZM330 124Q379 124 419 137T488 182T531 263T547 388Q547 459 532 507T488 586T421 629T335 643H241V124H330Z" />
<glyph unicode="E" glyph-name="E" horiz-adv-x="648" d="M77 765H581V640H241V443H563V321H241V124H590V0H77V765Z" />
<glyph unicode="F" glyph-name="F" horiz-adv-x="603" d="M241 0H77V765H558V640H241V418H540V295H241V0Z" />
<glyph unicode="G" glyph-name="G" horiz-adv-x="810" d="M412 658Q322 658 274 587T225 379Q225 305 238 253T275 167T333 119T412 103Q491 103 535 148T586 276L587 290H406V408H740V0H610V104H606Q579 52 524 18T384 -16Q302 -16 240 11T135 89T72 210T50 371Q50
464 76 539T149 666T264 747T412 776Q551 776 631 714T725 533H558Q550 589 512 623T412 658Z" />
<glyph unicode="H" glyph-name="H" horiz-adv-x="792" d="M241 0H77V765H241V446H549V765H715V0H549V318H241V0Z" />
<glyph unicode="I" glyph-name="I" horiz-adv-x="318" d="M77 765H241V0H77V765Z" />
<glyph unicode="J" glyph-name="J" horiz-adv-x="448" d="M33 -3V127H70Q118 127 146 135T190 161T211 204T216 265V765H378V245Q378 174 359 126T304 50T215 9T96 -3H33Z" />
<glyph unicode="K" glyph-name="K" horiz-adv-x="735" d="M241 0H77V765H241V424L520 765H703L428 445L715 0H527L317 321L241 232V0Z" />
<glyph unicode="L" glyph-name="L" horiz-adv-x="610" d="M77 765H241V128H571V0H77V765Z" />
<glyph unicode="M" glyph-name="M" horiz-adv-x="971" d="M77 765H315L453 354Q461 330 467 309T477 273L485 241H487L495 273Q499 288 505 309T519 354L656 765H894V0H732V599H729Q724 578 717 552Q711 530 702 501T682 437L539 0H417L273 437Q262 472 253 501T239
552Q232 578 228 598H225V0H77V765Z" />
<glyph unicode="N" glyph-name="N" horiz-adv-x="789" d="M77 765H258L505 351Q519 326 529 305T547 269Q555 251 560 237H563V765H713V0H540L286 422Q270 447 260 468T242 505Q234 523 228 538H225V0H77V765Z" />
<glyph unicode="O" glyph-name="O" horiz-adv-x="822" d="M50 380Q50 474 76 548T150 672T264 749T411 776Q495 776 562 750T675 674T747 550T772 380Q772 285 747 212T674 88T560 11T411 -16Q239 -16 145 86T50 380ZM411 104Q499 104 547 173T595 380Q595 449
582 501T544 588T485 640T411 658Q323 658 276 589T228 380Q228 241 274 173T411 104Z" />
<glyph unicode="P" glyph-name="P" horiz-adv-x="668" d="M241 262V0H77V765H343Q405 765 458 752T551 708T612 631T635 518Q635 448 611 400T546 321T449 276T329 262H241ZM340 383Q404 383 439 416T474 516Q474 587 440 617T342 647H241V383H340Z" />
<glyph unicode="Q" glyph-name="Q" horiz-adv-x="822" d="M50 380Q50 476 76 549T149 673T263 750T411 776Q494 776 560 750T674 673T746 549T772 380Q772 324 763 275T736 186T693 114T634 64V59Q662 54 684 46T724 25T756 -8T785 -52L641 -134Q622 -100 604
-76T566 -37T522 -16T468 -9Q454 -9 441 -10T409 -12Q236 -12 143 88T50 380ZM411 102Q500 102 547 168T595 378Q595 518 545 588T411 658Q326 658 277 588T228 378Q228 239 274 171T411 102Z" />
<glyph unicode="R" glyph-name="R" horiz-adv-x="714" d="M355 408Q382 408 406 414T449 435T478 473T489 531Q489 566 477 589T446 626T404 645T358 651H241V408H355ZM359 291H241V0H77V765H376Q413 765 453 759T530 737Q584 713 620 666T657 540Q657 495 644
461T610 401T563 358T509 330V328L680 0H503L359 291Z" />
<glyph unicode="S" glyph-name="S" horiz-adv-x="699" d="M467 557Q465 576 458 594T437 626T402 648T353 657Q299 657 269 632T238 565Q238 527 261 504T339 470L455 449Q558 430 607 377T657 238Q657 114 577 49T350 -16Q278 -16 223 0T129 48T69 122T44 219H215Q221
169 255 137T354 104Q422 104 454 134T487 208Q487 248 463 270T378 304L264 326Q220 335 184 352T121 397T81 460T67 542Q67 593 86 635T142 709T232 758T354 776Q427 776 479 759T565 711T616 642T635 557H467Z" />
<glyph unicode="T" glyph-name="T" horiz-adv-x="662" d="M639 636H413V0H249V636H23V765H639V636Z" />
<glyph unicode="U" glyph-name="U" horiz-adv-x="761" d="M69 765H233L232 319Q232 298 232 277T236 235T245 196T262 164Q283 138 313 126T381 114Q423 114 453 126T504 164Q514 178 519 196T527 234T530 276T530 319V765H692V267Q692 195 670 142T606 53T507
1T379 -16Q308 -16 251 1T154 53T91 141T69 267V765Z" />
<glyph unicode="V" glyph-name="V" horiz-adv-x="742" d="M20 765H192L349 269Q357 241 362 220T371 184Q375 167 376 155H378Q379 167 383 184Q386 198 391 219T405 268L564 765H722L466 0H278L20 765Z" />
<glyph unicode="W" glyph-name="W" horiz-adv-x="1067" d="M224 0L21 765H191L297 330Q304 301 309 278T316 237Q319 217 320 201H322Q323 216 327 236Q330 253 335 276T348 329L467 765H617L737 330Q745 301 750 278T760 237Q764 217 767 201H768Q769 216 773
236Q775 253 779 276T791 329L896 765H1046L844 0H683L560 452Q552 481 547 503T540 541Q537 559 536 573H534Q532 559 529 541Q526 525 522 504T510 453L388 0H224Z" />
<glyph unicode="X" glyph-name="X" horiz-adv-x="751" d="M279 395L43 765H232L379 521H380L531 765H703L466 401L726 0H532L365 274H363L196 0H25L279 395Z" />
<glyph unicode="Y" glyph-name="Y" horiz-adv-x="697" d="M267 320L11 765H192L353 464H355L518 765H686L431 323V0H267V320Z" />
<glyph unicode="Z" glyph-name="Z" horiz-adv-x="658" d="M53 765H613V652L230 128H619V0H36V113L420 638H53V765Z" />
<glyph unicode="[" glyph-name="bracketleft" horiz-adv-x="386" d="M97 788H361V692H228V-34H361V-130H97V788Z" />
<glyph unicode="\" glyph-name="backslash" horiz-adv-x="572" d="M12 788H132L586 -130H466L12 788Z" />
<glyph unicode="]" glyph-name="bracketright" horiz-adv-x="386" d="M289 -130H25V-34H158V692H25V788H289V-130Z" />
<glyph unicode="^" glyph-name="asciicircum" horiz-adv-x="450" d="M433 495H323L222 668H221L120 495H17L173 788H278L433 495Z" />
<glyph unicode="_" glyph-name="underscore" horiz-adv-x="390" d="M-2 -91H392V-190H-2V-91Z" />
<glyph unicode="`" glyph-name="grave" horiz-adv-x="369" d="M277 614H156L68 788H226L277 614Z" />
<glyph unicode="a" glyph-name="a" horiz-adv-x="584" d="M256 94Q277 94 296 102T329 126T353 168T362 226V243Q299 239 265 233T211 214Q197 205 191 191T185 160Q185 131 204 113T256 94ZM51 377Q56 458 116 503T282 548Q347 548 391 535T463 495T503 428T515
334V149Q515 127 523 118T558 109V-1H505Q447 -1 417 14T374 73H372Q346 35 307 15T210 -6Q125 -6 77 36T28 153Q28 244 109 287Q152 310 213 316T361 327V356Q361 446 282 446Q243 446 224 427T203 377H51Z" />
<glyph unicode="b" glyph-name="b" horiz-adv-x="646" d="M68 788H227V456H229Q249 493 290 520T392 548Q438 548 477 533T546 484T591 397T607 270Q607 132 546 60T380 -13Q320 -13 282 11T222 74H220V0H68V788ZM335 93Q388 93 416 137T445 268Q445 353 418 396T334
439Q286 439 256 402T225 297V239Q225 176 252 135T335 93Z" />
<glyph unicode="c" glyph-name="c" horiz-adv-x="595" d="M401 344Q397 387 376 415T309 443Q278 443 257 429T224 390T206 335T201 270Q201 239 205 208T220 152T253 112T308 96Q334 96 352 105T382 128T398 160T405 199H559Q557 146 538 107T485 41T406 1T308
-13Q177 -13 108 61T38 268Q38 333 57 385T111 473T196 529T309 549Q363 549 407 536T485 497T536 433T557 344H401Z" />
<glyph unicode="d" glyph-name="d" horiz-adv-x="649" d="M424 292Q424 363 395 401T316 439Q262 439 232 397T201 266Q201 184 227 139T312 93Q367 93 395 131T424 228V292ZM581 0H429V79H427Q416 61 402 45T368 15T323 -6T267 -14Q160 -14 100 53T39 261Q39
332 57 385T106 475T180 529T273 547Q325 547 363 525T420 465H422V788H581V0Z" />
<glyph unicode="e" glyph-name="e" horiz-adv-x="601" d="M400 329Q396 386 373 418T305 450Q256 450 230 417T198 322H400V329ZM557 156Q545 78 479 32T303 -14Q238 -14 189 6T106 63T55 152T38 269Q38 330 56 381T108 470T192 528T305 549Q373 549 421 528T501
470T547 383T562 273V231H198Q203 159 230 126T308 93Q332 93 348 98T374 112T391 132T401 156H557Z" />
<glyph unicode="f" glyph-name="f" horiz-adv-x="371" d="M251 0H96V426H19V536H96V606Q96 659 110 695T149 753T209 784T289 794Q320 794 341 792T367 788V677Q365 678 353 679T323 680Q288 680 270 663T251 600V536H356V426H251V0Z" />
<glyph unicode="g" glyph-name="g" horiz-adv-x="646" d="M426 302Q426 368 396 403T314 439Q264 439 233 399T201 278Q201 201 228 160T314 118Q339 118 359 127T395 154T418 194T426 244V302ZM309 -199Q184 -199 123 -154T56 -32H209Q217 -62 238 -78T311 -95Q370
-95 398 -66T426 35V111H423Q416 95 404 78T372 48T327 26T267 17Q162 17 101 80T39 278Q39 344 57 394T106 478T180 529T271 547Q302 547 326 540T370 521T402 494T424 463H426V536H578V43Q578 -79 512 -139T309 -199Z" />
<glyph unicode="h" glyph-name="h" horiz-adv-x="641" d="M420 314Q420 343 418 365T404 402Q382 433 335 433Q281 433 254 401T227 310V0H68V788H227V450H229Q238 468 253 485T289 516T337 538T397 547Q494 547 536 498T579 348V0H420V314Z" />
<glyph unicode="i" glyph-name="i" horiz-adv-x="295" d="M67 773H228V629H67V773ZM68 536H227V0H68V536Z" />
<glyph unicode="j" glyph-name="j" horiz-adv-x="299" d="M71 773H232V629H71V773ZM40 -206Q7 -206 -12 -202T-35 -197V-86Q-32 -88 -22 -89T4 -91Q39 -91 55 -74T72 -15V536H231V-16Q231 -71 217 -107T177 -166T116 -197T40 -206Z" />
<glyph unicode="k" glyph-name="k" horiz-adv-x="598" d="M224 0H68V788H224V314L407 536H575L396 326L584 0H412L290 219L224 139V0Z" />
<glyph unicode="l" glyph-name="l" horiz-adv-x="295" d="M68 788H227V0H68V788Z" />
<glyph unicode="m" glyph-name="m" horiz-adv-x="981" d="M68 536H221V448H223Q244 487 285 517T393 547Q467 547 506 517T560 436H562Q570 455 585 474T622 510T673 536T739 547Q834 547 876 498T919 348V0H760V314Q760 343 758 365T744 402Q733 419 716 426T677
433Q626 433 600 401T573 310V0H414V314Q414 343 412 365T398 402Q377 433 331 433Q280 433 254 401T227 311V0H68V536Z" />
<glyph unicode="n" glyph-name="n" horiz-adv-x="641" d="M420 313Q420 342 418 364T404 402Q382 433 335 433Q281 433 254 401T227 310V0H68V536H221V448H223Q245 489 286 518T397 547Q494 547 536 498T579 348V0H420V313Z" />
<glyph unicode="o" glyph-name="o" horiz-adv-x="619" d="M309 -14Q246 -14 196 5T110 61T57 150T38 268Q38 334 57 386T111 474T196 530T310 549Q371 549 421 530T507 475T561 387T581 268Q581 202 561 150T505 62T419 6T309 -14ZM310 442Q280 442 260 429T227
392T208 337T202 268Q202 229 208 197T227 142T260 106T310 93Q340 93 360 106T393 143T410 199T416 268Q416 307 411 339T393 394T360 429T310 442Z" />
<glyph unicode="p" glyph-name="p" horiz-adv-x="646" d="M225 239Q225 176 252 135T335 93Q388 93 416 137T445 268Q445 353 418 396T334 439Q286 439 256 402T225 297V239ZM68 536H221V449H223Q232 467 247 484T284 516T332 539T392 548Q438 548 477 533T546
484T591 397T607 270Q607 203 591 151T544 62T472 6T377 -13Q319 -13 283 11T230 67H227V-188H68V536Z" />
<glyph unicode="q" glyph-name="q" horiz-adv-x="649" d="M581 -188H422V67H420Q412 53 399 39T366 13T323 -6T267 -14Q160 -14 100 53T39 261Q39 332 57 385T106 475T180 529T273 547Q325 547 365 524T426 463H428V536H581V-188ZM312 93Q367 93 395 131T424 228V292Q424
363 395 401T316 439Q263 439 232 397T201 266Q201 184 227 139T312 93Z" />
<glyph unicode="r" glyph-name="r" horiz-adv-x="427" d="M68 536H218V423H220Q231 453 250 476T292 514T343 537T397 545H406V401H378Q305 401 266 372T226 265V0H68V536Z" />
<glyph unicode="s" glyph-name="s" horiz-adv-x="536" d="M344 387Q342 413 323 430T267 448Q230 448 211 432T192 392Q192 369 205 356T254 338L345 326Q419 316 459 279T500 168Q500 123 483 89T435 32T361 -3T267 -15Q207 -15 164 -2T93 34T50 89T32 156H178Q180
127 200 107T268 87Q306 87 329 102T353 146Q353 170 340 183T289 201L203 213Q128 224 87 262T46 373Q46 408 59 440T100 496T169 534T268 549Q320 549 359 537T426 504T467 452T484 387H344Z" />
<glyph unicode="t" glyph-name="t" horiz-adv-x="401" d="M255 687V536H375V426H257V189Q257 148 273 130T331 111Q338 111 346 111T361 113Q369 114 376 115V-1Q360 -3 332 -5T270 -7Q231 -7 200 2T146 30T112 82T100 159V426H21V535H39Q64 535 80 538T104 554T116
588T119 646V687H255Z" />
<glyph unicode="u" glyph-name="u" horiz-adv-x="637" d="M222 223Q222 194 225 172T238 135Q259 104 306 104Q411 104 411 243V536H570V0H417V87H415Q394 46 354 18T247 -10Q150 -10 107 37T63 179V536H222V223Z" />
<glyph unicode="v" glyph-name="v" horiz-adv-x="571" d="M12 536H172L258 265Q265 242 270 221T280 183Q284 164 288 146H290Q294 164 298 183Q302 200 307 221T320 265L406 536H559L367 0H203L12 536Z" />
<glyph unicode="w" glyph-name="w" horiz-adv-x="860" d="M17 536H170L241 266Q246 245 250 225T256 189Q259 171 261 153H264Q267 171 271 189Q275 205 280 225T291 265L371 536H500L580 265Q586 245 590 225T599 189Q603 171 606 153H610Q612 171 616 189Q619
205 623 225T633 265L703 536H842L687 0H534L469 213Q461 237 455 265T443 318Q437 346 432 375H430Q423 346 417 318Q411 293 405 265T390 213L324 0H173L17 536Z" />
<glyph unicode="x" glyph-name="x" horiz-adv-x="570" d="M192 279L24 536H195L287 381H289L375 536H543L375 281L560 0H386L280 176H278L178 0H10L192 279Z" />
<glyph unicode="y" glyph-name="y" horiz-adv-x="571" d="M17 536H181L269 254Q276 232 280 213T288 180Q292 163 293 149H296Q297 163 301 180Q304 194 308 213T319 254L402 536H557L369 -17Q353 -64 334 -98T288 -154T224 -188T135 -199Q96 -199 77 -196T56
-192V-76Q63 -78 78 -79T110 -81Q155 -81 178 -67T213 -16L217 -3L17 536Z" />
<glyph unicode="z" glyph-name="z" horiz-adv-x="544" d="M54 536H502V433L234 117H507V0H44V104L312 421H54V536Z" />
<glyph unicode="{" glyph-name="braceleft" horiz-adv-x="413" d="M42 273V382H72Q106 382 119 397T132 450V603Q132 658 147 694T193 752T273 783T388 792V700Q348 700 323 694T283 675T264 641T258 588V460Q258 437 255 416T242 378T218 349T178 331V327Q202
322 217 310T242 280T254 241T258 195V70Q258 39 263 18T283 -17T322 -36T388 -42V-134Q322 -134 274 -126T194 -96T147 -40T132 47V205Q132 242 119 257T72 273H42Z" />
<glyph unicode="|" glyph-name="bar" horiz-adv-x="289" d="M89 788H197V-130H89V788Z" />
<glyph unicode="}" glyph-name="braceright" horiz-adv-x="413" d="M372 276H342Q307 276 295 261T282 208V55Q282 0 267 -36T220 -94T140 -125T25 -134V-42Q65 -42 90 -36T130 -17T150 17T156 70V199Q156 221 159 242T172 280T196 309T236 327V331Q212 336 197
348T172 378T160 417T156 463V588Q156 619 151 640T131 675T91 694T25 700V792Q91 792 139 784T219 754T266 698T282 611V453Q282 416 294 401T342 385H372V276Z" />
<glyph unicode="~" glyph-name="asciitilde" horiz-adv-x="449" d="M17 254Q17 288 24 318T47 372T85 410T139 424Q163 424 185 416T228 399T267 381T299 373Q315 373 326 384T339 425H432Q432 391 426 361T405 307T369 269T316 255Q293 255 271 263T228 280T189
298T156 306Q120 306 117 254H17Z" />
<glyph unicode="&#xa0;" glyph-name="uni00A0" horiz-adv-x="228" />
<glyph unicode="&#xa1;" glyph-name="exclamdown" horiz-adv-x="330" d="M257 -114H73L106 431H225L257 -114ZM253 674V522H78V674H253Z" />
<glyph unicode="&#xa2;" glyph-name="cent" horiz-adv-x="603" d="M567 199Q565 151 549 114T504 50T436 8T350 -11V-116H282V-12Q168 -2 107 71T46 268Q46 390 108 463T282 547V635H350V548Q444 540 502 489T565 344H417Q414 379 398 406T350 443V95Q388 106
403 135T421 199H567ZM282 443Q259 435 243 419T217 379T203 328T199 270Q199 243 202 215T215 163T240 121T282 96V443Z" />
<glyph unicode="&#xa3;" glyph-name="sterling" horiz-adv-x="649" d="M588 0H57V92L85 113Q110 132 128 150T156 190T167 239T158 302H35V399H127L114 438Q90 510 98 568T139 667T226 730T348 752Q476 752 537 694T597 529H437Q437 552 433 573T418 609T391 634T348
644Q323 644 302 635T267 603T253 544T268 454L284 399H467V302H309Q317 251 303 212T244 135L236 128V126H588V0Z" />
<glyph unicode="&#xa4;" glyph-name="currency" horiz-adv-x="631" d="M226 348Q226 306 250 280T314 253Q355 253 379 279T403 348Q403 390 379 416T314 443Q274 443 250 417T226 348ZM129 348Q129 371 134 391T147 431L50 527L136 613L232 515Q270 534 314 534Q337
534 358 529T398 514L496 614L582 528L481 430Q500 392 500 348Q500 302 481 266L581 168L495 82L397 181Q361 163 314 163Q269 163 232 180L135 81L50 167L148 263Q129 303 129 348Z" />
<glyph unicode="&#xa5;" glyph-name="yen" horiz-adv-x="654" d="M250 148H52V224H250V305H50V381H238L21 741H198L333 499H335L470 741H634L416 381H604V305H406V224H606V148H406V0H250V148Z" />
<glyph unicode="&#xa6;" glyph-name="brokenbar" horiz-adv-x="289" d="M197 384H89V788H197V384ZM89 -130V287H197V-130H89Z" />
<glyph unicode="&#xa7;" glyph-name="section" horiz-adv-x="625" d="M183 365Q183 336 204 320T257 289L352 245Q367 238 377 234T391 227Q416 232 429 249T442 289Q442 312 426 329T368 365L271 408Q259 413 250 418T237 425Q209 419 196 402T183 365ZM44 340Q44
389 70 424T145 478V479Q121 499 109 527T96 596Q96 635 112 667T157 721T226 756T315 768Q372 768 412 755T479 720T519 666T534 597H391Q389 628 372 647T316 666Q278 666 260 650T241 610Q241 580 258 566T313 536L444 479Q483 462 509 445T551 407T575 363T582
309Q582 260 557 227T484 175V173Q506 155 519 130T532 67Q532 22 516 -12T469 -68T398 -102T305 -114Q191 -114 137 -67T77 62H218Q221 27 242 8T306 -12Q346 -12 366 3T387 46Q387 70 373 84T326 112L183 174Q151 188 126 202T82 235T54 279T44 340Z" />
<glyph unicode="&#xa8;" glyph-name="dieresis" horiz-adv-x="369" d="M220 773H357V636H220V773ZM12 773H148V636H12V773Z" />
<glyph unicode="&#xa9;" glyph-name="copyright" horiz-adv-x="899" d="M55 380Q55 464 85 536T167 662T292 746T449 777Q534 777 606 747T731 663T814 537T844 380Q844 296 814 224T731 98T606 15T449 -16Q364 -16 292 14T168 98T85 223T55 380ZM449 41Q520 41
580 67T685 138T754 246T779 380Q779 452 754 514T685 622T581 694T449 720Q378 720 318 694T214 622T145 514T120 380Q120 308 145 246T214 139T318 67T449 41ZM643 332Q642 291 627 261T587 210T527 180T452 169Q352 169 300 225T247 384Q247 484 302 541T453
598Q534 598 586 559T642 441H522Q520 473 504 495T453 517Q429 517 414 506T388 477T374 434T370 385Q370 362 373 339T385 296T410 265T452 253Q472 253 486 259T508 277T521 302T526 332H643Z" />
<glyph unicode="&#xaa;" glyph-name="ordfeminine" horiz-adv-x="507" d="M229 405Q263 405 284 428T306 496V508Q265 506 241 504T200 490Q181 477 181 451Q181 428 194 417T229 405ZM57 614Q58 647 72 672T112 715T172 742T247 752Q302 752 338 741T397 708T429
654T439 579V446Q439 426 446 419T471 411V319H424Q379 319 352 329T312 376H310Q292 348 260 331T183 314Q119 314 80 348T41 441Q41 513 105 547Q138 565 185 571T305 579V600Q305 632 291 646T251 661Q226 661 212 648T195 614H57Z" />
<glyph unicode="&#xab;" glyph-name="guillemotleft" horiz-adv-x="531" d="M480 464L383 258L481 57H365L257 261L364 464H480ZM261 464L164 258L263 57H146L38 261L145 464H261Z" />
<glyph unicode="&#xac;" glyph-name="logicalnot" horiz-adv-x="632" d="M444 104V300H63V416H569V104H444Z" />
<glyph unicode="&#xae;" glyph-name="registered" horiz-adv-x="513" d="M40 557Q40 603 56 643T101 712T169 759T256 776Q303 776 342 759T411 713T456 643T473 557Q473 511 457 471T411 402T343 356T256 339Q209 339 170 356T102 402T57 471T40 557ZM256 377Q293
377 324 390T379 428T416 485T429 557Q429 596 416 629T380 686T325 724T256 738Q219 738 188 724T133 686T97 629T84 557Q84 518 97 485T133 428T187 391T256 377ZM254 578Q271 578 281 586T292 611Q292 625 282 632T255 640H226V578H254ZM226 452H170V677H271Q286
677 300 674T325 662T343 640T350 609Q350 582 335 567T304 547L353 452H291L250 538H226V452Z" />
<glyph unicode="&#xaf;" glyph-name="macron" horiz-adv-x="369" d="M13 740H355V636H13V740Z" />
<glyph unicode="&#xb0;" glyph-name="degree" horiz-adv-x="445" d="M54 594Q54 630 66 661T101 714T155 750T222 763Q259 763 290 750T343 715T378 661T391 594Q391 558 379 527T344 474T290 439T222 426Q186 426 155 438T102 473T67 527T54 594ZM222 503Q261
503 284 528T308 594Q308 634 285 660T222 686Q184 686 161 660T137 594Q137 554 160 529T222 503Z" />
<glyph unicode="&#xb1;" glyph-name="plusminus" horiz-adv-x="633" d="M378 199H253V369H63V485H253V653H378V485H569V369H378V199ZM63 115H569V0H63V115Z" />
<glyph unicode="&#xb2;" glyph-name="twosuperior" horiz-adv-x="430" d="M34 664Q36 736 81 778T214 821Q259 821 291 811T344 784T375 744T385 695Q385 671 379 651T359 613T326 576T280 537L201 472V470H388V384H30V445L204 596Q239 625 253 645T267 688Q267
712 253 726T213 740Q186 740 167 724T147 664H34Z" />
<glyph unicode="&#xb3;" glyph-name="threesuperior" horiz-adv-x="437" d="M168 567V638H209Q234 638 252 651T270 690Q270 715 254 728T213 741Q182 741 169 725T154 687H41Q42 711 51 735T81 778T136 810T220 823Q301 823 343 789T386 706Q386 671 365 646T301
609V607Q397 590 397 504Q397 479 386 456T352 414T296 386T217 375Q166 375 132 387T77 418T47 461T37 511H153Q155 485 173 472T216 458Q247 458 264 474T282 514Q282 539 265 553T218 567H168Z" />
<glyph unicode="&#xb4;" glyph-name="acute" horiz-adv-x="369" d="M145 788H303L215 614H94L145 788Z" />
<glyph unicode="&#xb6;" glyph-name="paragraph" horiz-adv-x="616" d="M539 765V0H440V765H539ZM261 374Q214 375 175 387T108 424T64 485T48 571Q48 622 65 658T111 719T181 754T270 765H359V0H261V374Z" />
<glyph unicode="&#xb7;" glyph-name="periodcentered" horiz-adv-x="291" d="M61 426H230V267H61V426Z" />
<glyph unicode="&#xb8;" glyph-name="cedilla" horiz-adv-x="536" d="M297 30L262 -46H264Q278 -36 304 -36Q340 -36 364 -59T388 -125Q388 -143 381 -160T360 -190T324 -211T271 -219Q219 -219 193 -196T165 -140H242Q245 -149 252 -155T273 -161Q290 -161 297
-152T305 -129Q305 -98 273 -98Q256 -98 246 -111H181L244 30H297Z" />
<glyph unicode="&#xb9;" glyph-name="onesuperior" horiz-adv-x="305" d="M118 664H24V740H38Q58 740 74 744T104 757Q128 775 128 815H233V384H118V664Z" />
<glyph unicode="&#xba;" glyph-name="ordmasculine" horiz-adv-x="528" d="M264 309Q163 309 104 366T44 530Q44 637 103 694T264 751Q312 751 352 737T421 695T467 626T484 530Q484 478 468 437T422 368T353 324T264 309ZM264 653Q241 653 226 643T203 616T191
577T187 530Q187 504 191 482T204 443T228 417T264 407Q288 407 303 417T326 444T338 483T341 530Q341 556 338 578T325 617T301 643T264 653Z" />
<glyph unicode="&#xbb;" glyph-name="guillemotright" horiz-adv-x="538" d="M51 57L149 263L50 464H167L274 261L168 57H51ZM276 57L374 263L275 464H392L499 261L393 57H276Z" />
<glyph unicode="&#xbc;" glyph-name="onequarter" horiz-adv-x="873" d="M118 614H24V690H38Q58 690 74 694T104 707Q128 725 128 765H233V334H118V614ZM682 171V355H679Q675 346 670 335Q665 326 659 315T644 292L556 171H682ZM785 91V1H678V91H452V167L648 432H785V176H841V91H785ZM621
781H732L185 -40H74L621 781Z" />
<glyph unicode="&#xbd;" glyph-name="onehalf" horiz-adv-x="918" d="M118 614H24V690H38Q58 690 74 694T104 707Q128 725 128 765H233V334H118V614ZM522 281Q524 353 569 395T702 438Q747 438 779 428T832 401T863 361T873 312Q873 288 867 268T847 230T814 193T768
154L689 89V87H876V1H518V62L692 213Q727 242 741 262T755 305Q755 329 741 343T701 357Q674 357 655 341T635 281H522ZM620 781H731L184 -40H73L620 781Z" />
<glyph unicode="&#xbe;" glyph-name="threequarters" horiz-adv-x="952" d="M168 517V588H209Q234 588 252 601T270 640Q270 665 254 678T213 691Q182 691 169 675T154 637H41Q42 661 51 685T81 728T136 760T220 773Q301 773 343 739T386 656Q386 621 365 596T301
559V557Q397 540 397 454Q397 429 386 406T352 364T296 336T217 325Q166 325 132 337T77 368T47 411T37 461H153Q155 435 173 422T216 408Q247 408 264 424T282 464Q282 489 265 503T218 517H168ZM761 171V355H758Q754 346 749 335Q744 326 738 315T723 292L635
171H761ZM864 91V1H757V91H531V167L727 432H864V176H920V91H864ZM718 781H829L282 -40H171L718 781Z" />
<glyph unicode="&#xbf;" glyph-name="questiondown" horiz-adv-x="591" d="M188 94Q188 52 214 27T290 2Q314 2 335 9T373 33T398 77T408 145H560Q561 86 544 37T492 -47T406 -102T287 -122Q220 -122 172 -106T92 -61T47 5T32 86Q32 121 39 148T59 198T92 241T136
282L203 338Q219 351 225 361T231 392V435H368V371Q368 347 366 331T358 303T339 278T307 249L250 202Q221 178 205 155T188 94ZM387 674V522H212V674H387Z" />
<glyph unicode="&#xc0;" glyph-name="Agrave" horiz-adv-x="761" d="M373 624Q372 621 365 591T343 513L272 290H474L404 512Q396 537 391 557T382 593Q378 611 375 624H373ZM514 170H233L177 0H20L287 765H471L742 0H570L514 170ZM438 827H318L215 960H374L438 827Z" />
<glyph unicode="&#xc1;" glyph-name="Aacute" horiz-adv-x="761" d="M373 624Q372 621 365 591T343 513L272 290H474L404 512Q396 537 391 557T382 593Q378 611 375 624H373ZM514 170H233L177 0H20L287 765H471L742 0H570L514 170ZM380 960H538L435 827H316L380 960Z" />
<glyph unicode="&#xc2;" glyph-name="Acircumflex" horiz-adv-x="761" d="M373 624Q372 621 365 591T343 513L272 290H474L404 512Q396 537 391 557T382 593Q378 611 375 624H373ZM514 170H233L177 0H20L287 765H471L742 0H570L514 170ZM559 827H444L378 883H377L313
827H207L315 960H451L559 827Z" />
<glyph unicode="&#xc3;" glyph-name="Atilde" horiz-adv-x="761" d="M373 624Q372 621 365 591T343 513L272 290H474L404 512Q396 537 391 557T382 593Q378 611 375 624H373ZM514 170H233L177 0H20L287 765H471L742 0H570L514 170ZM190 819Q191 851 197 879T216
928T252 961T306 974Q330 974 349 966T386 948T419 930T449 922Q464 922 477 934T498 975H569Q568 943 562 915T543 866T507 833T453 820Q429 820 410 828T373 846T340 864T309 872Q296 872 283 861T262 819H190Z" />
<glyph unicode="&#xc4;" glyph-name="Adieresis" horiz-adv-x="761" d="M373 624Q372 621 365 591T343 513L272 290H474L404 512Q396 537 391 557T382 593Q378 611 375 624H373ZM514 170H233L177 0H20L287 765H471L742 0H570L514 170ZM420 965H556V828H420V965ZM205
965H341V828H205V965Z" />
<glyph unicode="&#xc5;" glyph-name="Aring" horiz-adv-x="761" d="M373 624Q372 621 365 591T343 513L272 290H474L404 512Q396 537 391 557T382 593Q378 611 375 624H373ZM514 170H233L177 0H20L287 765H471L742 0H570L514 170ZM379 797Q317 797 283 830T248
919Q248 974 284 1008T380 1043Q443 1043 477 1009T511 919Q511 864 475 831T379 797ZM379 980Q355 980 341 963T326 919Q326 892 340 875T380 858Q404 858 418 875T432 919Q432 946 419 963T379 980Z" />
<glyph unicode="&#xc6;" glyph-name="AE" horiz-adv-x="1093" d="M525 640H478L322 303H525V640ZM182 0H12L384 765H1026V640H690V443H1008V321H690V124H1035V0H525V183H267L182 0Z" />
<glyph unicode="&#xc7;" glyph-name="Ccedilla" horiz-adv-x="766" d="M390 -232Q338 -232 312 -209T284 -153H361Q364 -162 371 -168T392 -174Q409 -174 416 -165T424 -142Q424 -111 392 -111Q375 -111 365 -124H300L350 -13Q199 4 125 104T50 372Q50 466 74
541T143 668T255 748T404 776Q474 776 531 758T628 706T693 621T721 506H552Q546 574 507 614T404 654Q365 654 333 637T277 585T240 498T227 378Q227 246 274 177T403 107Q471 107 508 147T553 260H720Q717 198 694 147T631 60T534 4T407 -16H401L381 -59H383Q397
-49 423 -49Q459 -49 483 -72T507 -138Q507 -156 500 -173T479 -203T443 -224T390 -232Z" />
<glyph unicode="&#xc8;" glyph-name="Egrave" horiz-adv-x="648" d="M392 827H272L169 960H328L392 827ZM77 765H581V640H241V443H563V321H241V124H590V0H77V765Z" />
<glyph unicode="&#xc9;" glyph-name="Eacute" horiz-adv-x="648" d="M335 960H493L390 827H271L335 960ZM77 765H581V640H241V443H563V321H241V124H590V0H77V765Z" />
<glyph unicode="&#xca;" glyph-name="Ecircumflex" horiz-adv-x="648" d="M513 827H398L332 883H331L267 827H161L269 960H405L513 827ZM77 765H581V640H241V443H563V321H241V124H590V0H77V765Z" />
<glyph unicode="&#xcb;" glyph-name="Edieresis" horiz-adv-x="648" d="M77 765H581V640H241V443H563V321H241V124H590V0H77V765ZM373 965H509V828H373V965ZM158 965H294V828H158V965Z" />
<glyph unicode="&#xcc;" glyph-name="Igrave" horiz-adv-x="318" d="M77 765H241V0H77V765ZM474 827H354L251 960H410L474 827Z" />
<glyph unicode="&#xcd;" glyph-name="Iacute" horiz-adv-x="318" d="M77 765H241V0H77V765ZM160 960H318L215 827H96L160 960Z" />
<glyph unicode="&#xce;" glyph-name="Icircumflex" horiz-adv-x="318" d="M77 765H241V0H77V765ZM595 827H480L414 883H413L349 827H243L351 960H487L595 827Z" />
<glyph unicode="&#xcf;" glyph-name="Idieresis" horiz-adv-x="318" d="M77 765H241V0H77V765ZM455 965H591V828H455V965ZM240 965H376V828H240V965Z" />
<glyph unicode="&#xd0;" glyph-name="Eth" horiz-adv-x="792" d="M99 0V329H24V440H99V765H361Q445 765 515 744T636 677T715 561T743 392Q743 294 716 221T638 98T518 25T364 0H99ZM352 124Q401 124 441 137T510 182T553 263T569 388Q569 459 554 507T510 586T443
629T357 643H263V440H429V329H263V124H352Z" />
<glyph unicode="&#xd1;" glyph-name="Ntilde" horiz-adv-x="789" d="M205 819Q206 851 212 879T231 928T267 961T321 974Q345 974 364 966T401 948T434 930T464 922Q479 922 492 934T513 975H584Q583 943 577 915T558 866T522 833T468 820Q444 820 425 828T388
846T355 864T324 872Q311 872 298 861T277 819H205ZM77 765H258L505 351Q519 326 529 305T547 269Q555 251 560 237H563V765H713V0H540L286 422Q270 447 260 468T242 505Q234 523 228 538H225V0H77V765Z" />
<glyph unicode="&#xd2;" glyph-name="Ograve" horiz-adv-x="822" d="M469 827H349L246 960H405L469 827ZM50 380Q50 474 76 548T150 672T264 749T411 776Q495 776 562 750T675 674T747 550T772 380Q772 285 747 212T674 88T560 11T411 -16Q239 -16 145 86T50 380ZM411
104Q499 104 547 173T595 380Q595 449 582 501T544 588T485 640T411 658Q323 658 276 589T228 380Q228 241 274 173T411 104Z" />
<glyph unicode="&#xd3;" glyph-name="Oacute" horiz-adv-x="822" d="M410 960H568L465 827H346L410 960ZM50 380Q50 474 76 548T150 672T264 749T411 776Q495 776 562 750T675 674T747 550T772 380Q772 285 747 212T674 88T560 11T411 -16Q239 -16 145 86T50 380ZM411
104Q499 104 547 173T595 380Q595 449 582 501T544 588T485 640T411 658Q323 658 276 589T228 380Q228 241 274 173T411 104Z" />
<glyph unicode="&#xd4;" glyph-name="Ocircumflex" horiz-adv-x="822" d="M589 827H474L408 883H407L343 827H237L345 960H481L589 827ZM50 380Q50 474 76 548T150 672T264 749T411 776Q495 776 562 750T675 674T747 550T772 380Q772 285 747 212T674 88T560 11T411
-16Q239 -16 145 86T50 380ZM411 104Q499 104 547 173T595 380Q595 449 582 501T544 588T485 640T411 658Q323 658 276 589T228 380Q228 241 274 173T411 104Z" />
<glyph unicode="&#xd5;" glyph-name="Otilde" horiz-adv-x="822" d="M221 819Q222 851 228 879T247 928T283 961T337 974Q361 974 380 966T417 948T450 930T480 922Q495 922 508 934T529 975H600Q599 943 593 915T574 866T538 833T484 820Q460 820 441 828T404
846T371 864T340 872Q327 872 314 861T293 819H221ZM50 380Q50 474 76 548T150 672T264 749T411 776Q495 776 562 750T675 674T747 550T772 380Q772 285 747 212T674 88T560 11T411 -16Q239 -16 145 86T50 380ZM411 104Q499 104 547 173T595 380Q595 449 582 501T544
588T485 640T411 658Q323 658 276 589T228 380Q228 241 274 173T411 104Z" />
<glyph unicode="&#xd6;" glyph-name="Odieresis" horiz-adv-x="822" d="M450 965H586V828H450V965ZM235 965H371V828H235V965ZM50 380Q50 474 76 548T150 672T264 749T411 776Q495 776 562 750T675 674T747 550T772 380Q772 285 747 212T674 88T560 11T411 -16Q239
-16 145 86T50 380ZM411 104Q499 104 547 173T595 380Q595 449 582 501T544 588T485 640T411 658Q323 658 276 589T228 380Q228 241 274 173T411 104Z" />
<glyph unicode="&#xd7;" glyph-name="multiply" horiz-adv-x="632" d="M63 181L232 347L64 513L150 600L316 432L482 600L568 515L400 348L568 182L482 95L315 264L149 95L63 181Z" />
<glyph unicode="&#xd8;" glyph-name="Oslash" horiz-adv-x="822" d="M411 660Q321 660 273 591T224 380Q224 342 227 307T238 243L533 611Q508 637 477 648T411 660ZM411 101Q500 101 549 171T599 380Q599 428 594 465T578 532L278 158Q300 131 332 116T411 101ZM772
380Q772 285 747 212T674 88T560 11T411 -16Q344 -16 289 0T190 47L132 -25H24L129 106Q50 206 50 380Q50 474 76 548T150 672T264 749T411 776Q535 776 621 720L679 793H787L684 664Q727 613 749 543T772 380Z" />
<glyph unicode="&#xd9;" glyph-name="Ugrave" horiz-adv-x="761" d="M439 827H319L216 960H375L439 827ZM69 765H233L232 319Q232 298 232 277T236 235T245 196T262 164Q283 138 313 126T381 114Q423 114 453 126T504 164Q514 178 519 196T527 234T530 276T530
319V765H692V267Q692 195 670 142T606 53T507 1T379 -16Q308 -16 251 1T154 53T91 141T69 267V765Z" />
<glyph unicode="&#xda;" glyph-name="Uacute" horiz-adv-x="761" d="M381 960H539L436 827H317L381 960ZM69 765H233L232 319Q232 298 232 277T236 235T245 196T262 164Q283 138 313 126T381 114Q423 114 453 126T504 164Q514 178 519 196T527 234T530 276T530
319V765H692V267Q692 195 670 142T606 53T507 1T379 -16Q308 -16 251 1T154 53T91 141T69 267V765Z" />
<glyph unicode="&#xdb;" glyph-name="Ucircumflex" horiz-adv-x="761" d="M560 827H445L379 883H378L314 827H208L316 960H452L560 827ZM69 765H233L232 319Q232 298 232 277T236 235T245 196T262 164Q283 138 313 126T381 114Q423 114 453 126T504 164Q514 178
519 196T527 234T530 276T530 319V765H692V267Q692 195 670 142T606 53T507 1T379 -16Q308 -16 251 1T154 53T91 141T69 267V765Z" />
<glyph unicode="&#xdc;" glyph-name="Udieresis" horiz-adv-x="761" d="M69 765H233L232 319Q232 298 232 277T236 235T245 196T262 164Q283 138 313 126T381 114Q423 114 453 126T504 164Q514 178 519 196T527 234T530 276T530 319V765H692V267Q692 195 670 142T606
53T507 1T379 -16Q308 -16 251 1T154 53T91 141T69 267V765ZM419 965H555V828H419V965ZM204 965H340V828H204V965Z" />
<glyph unicode="&#xdd;" glyph-name="Yacute" horiz-adv-x="697" d="M267 320L11 765H192L353 464H355L518 765H686L431 323V0H267V320ZM356 960H514L411 827H292L356 960Z" />
<glyph unicode="&#xde;" glyph-name="Thorn" horiz-adv-x="668" d="M241 161V0H77V765H241V617H369Q426 617 474 605T559 565T615 496T635 393Q635 330 614 286T557 214T469 174T358 161H241ZM350 276Q410 278 443 306T476 392Q476 454 442 479T346 505H241V276H350Z" />
<glyph unicode="&#xdf;" glyph-name="germandbls" horiz-adv-x="649" d="M68 555Q68 666 132 729T330 792Q387 792 431 777T505 736T551 672T567 591Q567 554 557 526T531 477T494 443T451 422V419Q485 412 514 397T565 358T599 300T612 224Q612 116 539 58T335
0H295V115H327Q380 115 413 143T447 233Q447 292 413 325T325 359H309V474H324Q366 474 392 500T419 584Q419 640 391 663T323 686Q304 686 287 680T256 660T235 624T227 570V0H68V555Z" />
<glyph unicode="&#xe0;" glyph-name="agrave" horiz-adv-x="584" d="M256 94Q277 94 296 102T329 126T353 168T362 226V243Q299 239 265 233T211 214Q197 205 191 191T185 160Q185 131 204 113T256 94ZM51 377Q56 458 116 503T282 548Q347 548 391 535T463 495T503
428T515 334V149Q515 127 523 118T558 109V-1H505Q447 -1 417 14T374 73H372Q346 35 307 15T210 -6Q125 -6 77 36T28 153Q28 244 109 287Q152 310 213 316T361 327V356Q361 446 282 446Q243 446 224 427T203 377H51ZM354 614H233L145 788H303L354 614Z" />
<glyph unicode="&#xe1;" glyph-name="aacute" horiz-adv-x="584" d="M256 94Q277 94 296 102T329 126T353 168T362 226V243Q299 239 265 233T211 214Q197 205 191 191T185 160Q185 131 204 113T256 94ZM51 377Q56 458 116 503T282 548Q347 548 391 535T463 495T503
428T515 334V149Q515 127 523 118T558 109V-1H505Q447 -1 417 14T374 73H372Q346 35 307 15T210 -6Q125 -6 77 36T28 153Q28 244 109 287Q152 310 213 316T361 327V356Q361 446 282 446Q243 446 224 427T203 377H51ZM272 788H430L342 614H221L272 788Z" />
<glyph unicode="&#xe2;" glyph-name="acircumflex" horiz-adv-x="584" d="M256 94Q277 94 296 102T329 126T353 168T362 226V243Q299 239 265 233T211 214Q197 205 191 191T185 160Q185 131 204 113T256 94ZM51 377Q56 458 116 503T282 548Q347 548 391 535T463
495T503 428T515 334V149Q515 127 523 118T558 109V-1H505Q447 -1 417 14T374 73H372Q346 35 307 15T210 -6Q125 -6 77 36T28 153Q28 244 109 287Q152 310 213 316T361 327V356Q361 446 282 446Q243 446 224 427T203 377H51ZM467 614H358L289 691H288L222 614H121L231
788H357L467 614Z" />
<glyph unicode="&#xe3;" glyph-name="atilde" horiz-adv-x="584" d="M256 94Q277 94 296 102T329 126T353 168T362 226V243Q299 239 265 233T211 214Q197 205 191 191T185 160Q185 131 204 113T256 94ZM51 377Q56 458 116 503T282 548Q347 548 391 535T463 495T503
428T515 334V149Q515 127 523 118T558 109V-1H505Q447 -1 417 14T374 73H372Q346 35 307 15T210 -6Q125 -6 77 36T28 153Q28 244 109 287Q152 310 213 316T361 327V356Q361 446 282 446Q243 446 224 427T203 377H51ZM101 614Q101 647 107 677T127 729T163 765T219
778Q242 778 261 770T297 753T329 735T359 727Q373 727 387 737T409 779H480Q480 745 474 715T454 663T418 627T362 614Q339 614 320 622T284 639T252 657T222 665Q208 665 194 655T173 614H101Z" />
<glyph unicode="&#xe4;" glyph-name="adieresis" horiz-adv-x="584" d="M256 94Q277 94 296 102T329 126T353 168T362 226V243Q299 239 265 233T211 214Q197 205 191 191T185 160Q185 131 204 113T256 94ZM51 377Q56 458 116 503T282 548Q347 548 391 535T463
495T503 428T515 334V149Q515 127 523 118T558 109V-1H505Q447 -1 417 14T374 73H372Q346 35 307 15T210 -6Q125 -6 77 36T28 153Q28 244 109 287Q152 310 213 316T361 327V356Q361 446 282 446Q243 446 224 427T203 377H51ZM326 773H463V636H326V773ZM118 773H254V636H118V773Z"
/>
<glyph unicode="&#xe5;" glyph-name="aring" horiz-adv-x="584" d="M256 94Q277 94 296 102T329 126T353 168T362 226V243Q299 239 265 233T211 214Q197 205 191 191T185 160Q185 131 204 113T256 94ZM51 377Q56 458 116 503T282 548Q347 548 391 535T463 495T503
428T515 334V149Q515 127 523 118T558 109V-1H505Q447 -1 417 14T374 73H372Q346 35 307 15T210 -6Q125 -6 77 36T28 153Q28 244 109 287Q152 310 213 316T361 327V356Q361 446 282 446Q243 446 224 427T203 377H51ZM292 602Q230 602 196 635T161 725Q161 752 170
774T197 813T239 839T293 848Q356 848 390 814T424 725Q424 669 388 636T292 602ZM292 785Q268 785 254 769T239 724Q239 697 253 681T293 664Q317 664 331 680T345 724Q345 752 332 768T292 785Z" />
<glyph unicode="&#xe6;" glyph-name="ae" horiz-adv-x="915" d="M714 328Q709 386 686 418T614 450Q566 450 541 416T511 322H714V328ZM256 94Q277 94 296 102T330 127T354 168T363 226V239Q300 239 265 233T211 214Q197 205 191 191T185 160Q185 130 204 112T256
94ZM871 156Q858 75 794 31T620 -14Q576 -14 542 -6T483 15T440 47T410 87H408Q379 45 331 20T210 -6Q125 -6 77 36T28 153Q28 244 109 287Q152 310 214 316T361 324V356Q361 399 342 422T282 446Q242 446 224 426T203 377H51Q56 458 116 503T284 548Q350 548 388
530T447 480H449Q475 512 517 530T616 549Q685 549 734 528T815 470T860 382T875 273V231H511Q516 157 543 125T621 93Q645 93 661 98T687 112T704 132T714 156H871Z" />
<glyph unicode="&#xe7;" glyph-name="ccedilla" horiz-adv-x="595" d="M307 -232Q255 -232 229 -209T201 -153H278Q281 -162 288 -168T309 -174Q326 -174 333 -165T341 -142Q341 -111 309 -111Q292 -111 282 -124H217L268 -11Q156 1 97 74T38 268Q38 333 57 385T111
473T196 529T309 549Q363 549 407 536T485 497T536 433T557 344H401Q397 387 376 415T309 443Q278 443 257 429T224 390T206 335T201 270Q201 239 205 208T220 152T253 112T308 96Q334 96 352 105T382 128T398 160T405 199H559Q557 148 539 109T489 44T414 3T319
-13L298 -59H300Q314 -49 340 -49Q376 -49 400 -72T424 -138Q424 -156 417 -173T396 -203T360 -224T307 -232Z" />
<glyph unicode="&#xe8;" glyph-name="egrave" horiz-adv-x="601" d="M400 329Q396 386 373 418T305 450Q256 450 230 417T198 322H400V329ZM557 156Q545 78 479 32T303 -14Q238 -14 189 6T106 63T55 152T38 269Q38 330 56 381T108 470T192 528T305 549Q373 549
421 528T501 470T547 383T562 273V231H198Q203 159 230 126T308 93Q332 93 348 98T374 112T391 132T401 156H557ZM369 614H248L160 788H318L369 614Z" />
<glyph unicode="&#xe9;" glyph-name="eacute" horiz-adv-x="601" d="M285 788H443L355 614H234L285 788ZM400 329Q396 386 373 418T305 450Q256 450 230 417T198 322H400V329ZM557 156Q545 78 479 32T303 -14Q238 -14 189 6T106 63T55 152T38 269Q38 330 56 381T108
470T192 528T305 549Q373 549 421 528T501 470T547 383T562 273V231H198Q203 159 230 126T308 93Q332 93 348 98T374 112T391 132T401 156H557Z" />
<glyph unicode="&#xea;" glyph-name="ecircumflex" horiz-adv-x="601" d="M481 614H372L303 691H302L236 614H135L245 788H371L481 614ZM400 329Q396 386 373 418T305 450Q256 450 230 417T198 322H400V329ZM557 156Q545 78 479 32T303 -14Q238 -14 189 6T106
63T55 152T38 269Q38 330 56 381T108 470T192 528T305 549Q373 549 421 528T501 470T547 383T562 273V231H198Q203 159 230 126T308 93Q332 93 348 98T374 112T391 132T401 156H557Z" />
<glyph unicode="&#xeb;" glyph-name="edieresis" horiz-adv-x="601" d="M339 773H476V636H339V773ZM131 773H267V636H131V773ZM400 329Q396 386 373 418T305 450Q256 450 230 417T198 322H400V329ZM557 156Q545 78 479 32T303 -14Q238 -14 189 6T106 63T55 152T38
269Q38 330 56 381T108 470T192 528T305 549Q373 549 421 528T501 470T547 383T562 273V231H198Q203 159 230 126T308 93Q332 93 348 98T374 112T391 132T401 156H557Z" />
<glyph unicode="&#xec;" glyph-name="igrave" horiz-adv-x="295" d="M68 536H227V0H68V536ZM471 614H350L262 788H420L471 614Z" />
<glyph unicode="&#xed;" glyph-name="iacute" horiz-adv-x="295" d="M386 788H544L456 614H335L386 788ZM68 536H227V0H68V536Z" />
<glyph unicode="&#xee;" glyph-name="icircumflex" horiz-adv-x="295" d="M561 614H463L401 691H400L341 614H250L349 788H462L561 614ZM68 536H227V0H68V536Z" />
<glyph unicode="&#xef;" glyph-name="idieresis" horiz-adv-x="295" d="M437 773H560V636H437V773ZM250 773H372V636H250V773ZM68 536H227V0H68V536Z" />
<glyph unicode="&#xf0;" glyph-name="eth" horiz-adv-x="622" d="M308 -14Q180 -14 109 58T38 265Q38 329 55 380T102 468T175 525T269 545Q310 545 334 533T378 500H380Q363 535 335 565T273 624L140 572L116 635L210 672Q184 691 157 707T104 740L221 795Q256
781 288 764T350 727L458 769L481 706L411 679Q489 608 534 512T579 291Q579 212 560 155T505 60T419 4T308 -14ZM310 444Q250 444 226 397T202 265Q202 227 207 196T226 141T259 106T309 93Q339 93 359 105T392 141T409 195T415 265Q415 347 392 395T310 444Z"
/>
<glyph unicode="&#xf1;" glyph-name="ntilde" horiz-adv-x="641" d="M420 313Q420 342 418 364T404 402Q382 433 335 433Q281 433 254 401T227 310V0H68V536H221V448H223Q245 489 286 518T397 547Q494 547 536 498T579 348V0H420V313ZM137 614Q137 647 143 677T163
729T199 765T255 778Q278 778 297 770T333 753T365 735T395 727Q409 727 423 737T445 779H516Q516 745 510 715T490 663T454 627T398 614Q375 614 356 622T320 639T288 657T258 665Q244 665 230 655T209 614H137Z" />
<glyph unicode="&#xf2;" glyph-name="ograve" horiz-adv-x="619" d="M309 -14Q246 -14 196 5T110 61T57 150T38 268Q38 334 57 386T111 474T196 530T310 549Q371 549 421 530T507 475T561 387T581 268Q581 202 561 150T505 62T419 6T309 -14ZM310 442Q280 442
260 429T227 392T208 337T202 268Q202 229 208 197T227 142T260 106T310 93Q340 93 360 106T393 143T410 199T416 268Q416 307 411 339T393 394T360 429T310 442ZM376 614H255L167 788H325L376 614Z" />
<glyph unicode="&#xf3;" glyph-name="oacute" horiz-adv-x="619" d="M291 788H449L361 614H240L291 788ZM309 -14Q246 -14 196 5T110 61T57 150T38 268Q38 334 57 386T111 474T196 530T310 549Q371 549 421 530T507 475T561 387T581 268Q581 202 561 150T505 62T419
6T309 -14ZM310 442Q280 442 260 429T227 392T208 337T202 268Q202 229 208 197T227 142T260 106T310 93Q340 93 360 106T393 143T410 199T416 268Q416 307 411 339T393 394T360 429T310 442Z" />
<glyph unicode="&#xf4;" glyph-name="ocircumflex" horiz-adv-x="619" d="M487 614H378L309 691H308L242 614H141L251 788H377L487 614ZM309 -14Q246 -14 196 5T110 61T57 150T38 268Q38 334 57 386T111 474T196 530T310 549Q371 549 421 530T507 475T561 387T581
268Q581 202 561 150T505 62T419 6T309 -14ZM310 442Q280 442 260 429T227 392T208 337T202 268Q202 229 208 197T227 142T260 106T310 93Q340 93 360 106T393 143T410 199T416 268Q416 307 411 339T393 394T360 429T310 442Z" />
<glyph unicode="&#xf5;" glyph-name="otilde" horiz-adv-x="619" d="M309 -14Q246 -14 196 5T110 61T57 150T38 268Q38 334 57 386T111 474T196 530T310 549Q371 549 421 530T507 475T561 387T581 268Q581 202 561 150T505 62T419 6T309 -14ZM310 442Q280 442
260 429T227 392T208 337T202 268Q202 229 208 197T227 142T260 106T310 93Q340 93 360 106T393 143T410 199T416 268Q416 307 411 339T393 394T360 429T310 442ZM120 614Q120 647 126 677T146 729T182 765T238 778Q261 778 280 770T316 753T348 735T378 727Q392
727 406 737T428 779H499Q499 745 493 715T473 663T437 627T381 614Q358 614 339 622T303 639T271 657T241 665Q227 665 213 655T192 614H120Z" />
<glyph unicode="&#xf6;" glyph-name="odieresis" horiz-adv-x="619" d="M345 773H482V636H345V773ZM137 773H273V636H137V773ZM309 -14Q246 -14 196 5T110 61T57 150T38 268Q38 334 57 386T111 474T196 530T310 549Q371 549 421 530T507 475T561 387T581 268Q581
202 561 150T505 62T419 6T309 -14ZM310 442Q280 442 260 429T227 392T208 337T202 268Q202 229 208 197T227 142T260 106T310 93Q340 93 360 106T393 143T410 199T416 268Q416 307 411 339T393 394T360 429T310 442Z" />
<glyph unicode="&#xf7;" glyph-name="divide" horiz-adv-x="633" d="M239 635H392V492H239V635ZM76 416H556V300H76V416ZM239 78V222H392V78H239Z" />
<glyph unicode="&#xf8;" glyph-name="oslash" horiz-adv-x="619" d="M310 445Q278 445 257 432T222 394T203 338T197 268Q197 227 203 194L383 417Q357 445 310 445ZM310 91Q342 91 363 104T398 142T416 198T422 268Q422 288 421 306T417 341L236 119Q262 91 310
91ZM581 268Q581 202 561 150T505 62T419 6T309 -14Q222 -14 159 23L109 -38H15L102 70Q71 106 55 155T38 268Q38 334 57 386T111 474T196 530T310 549Q397 549 460 512L509 572H604L517 464Q548 429 564 380T581 268Z" />
<glyph unicode="&#xf9;" glyph-name="ugrave" horiz-adv-x="637" d="M222 223Q222 194 225 172T238 135Q259 104 306 104Q411 104 411 243V536H570V0H417V87H415Q394 46 354 18T247 -10Q150 -10 107 37T63 179V536H222V223ZM383 614H262L174 788H332L383 614Z" />
<glyph unicode="&#xfa;" glyph-name="uacute" horiz-adv-x="637" d="M298 788H456L368 614H247L298 788ZM222 223Q222 194 225 172T238 135Q259 104 306 104Q411 104 411 243V536H570V0H417V87H415Q394 46 354 18T247 -10Q150 -10 107 37T63 179V536H222V223Z" />
<glyph unicode="&#xfb;" glyph-name="ucircumflex" horiz-adv-x="637" d="M494 614H385L316 691H315L249 614H148L258 788H384L494 614ZM222 223Q222 194 225 172T238 135Q259 104 306 104Q411 104 411 243V536H570V0H417V87H415Q394 46 354 18T247 -10Q150 -10
107 37T63 179V536H222V223Z" />
<glyph unicode="&#xfc;" glyph-name="udieresis" horiz-adv-x="637" d="M354 773H491V636H354V773ZM146 773H282V636H146V773ZM222 223Q222 194 225 172T238 135Q259 104 306 104Q411 104 411 243V536H570V0H417V87H415Q394 46 354 18T247 -10Q150 -10 107 37T63
179V536H222V223Z" />
<glyph unicode="&#xfd;" glyph-name="yacute" horiz-adv-x="571" d="M17 536H181L269 254Q276 232 280 213T288 180Q292 163 293 149H296Q297 163 301 180Q304 194 308 213T319 254L402 536H557L369 -17Q353 -64 334 -98T288 -154T224 -188T135 -199Q96 -199 77
-196T56 -192V-76Q63 -78 78 -79T110 -81Q155 -81 178 -67T213 -16L217 -3L17 536ZM277 788H435L347 614H226L277 788Z" />
<glyph unicode="&#xfe;" glyph-name="thorn" horiz-adv-x="646" d="M225 239Q225 176 252 135T335 93Q388 93 416 137T445 268Q445 353 418 396T334 439Q286 439 256 402T225 297V239ZM68 788H227V456H229Q249 493 290 520T392 548Q438 548 477 533T546 484T591
397T607 270Q607 203 591 151T544 62T472 6T377 -13Q319 -13 283 11T230 67H227V-188H68V788Z" />
<glyph unicode="&#xff;" glyph-name="ydieresis" horiz-adv-x="571" d="M17 536H181L269 254Q276 232 280 213T288 180Q292 163 293 149H296Q297 163 301 180Q304 194 308 213T319 254L402 536H557L369 -17Q353 -64 334 -98T288 -154T224 -188T135 -199Q96 -199
77 -196T56 -192V-76Q63 -78 78 -79T110 -81Q155 -81 178 -67T213 -16L217 -3L17 536ZM331 773H468V636H331V773ZM123 773H259V636H123V773Z" />
<glyph unicode="&#x100;" glyph-name="Amacron" horiz-adv-x="761" d="M373 624Q372 621 365 591T343 513L272 290H474L404 512Q396 537 391 557T382 593Q378 611 375 624H373ZM514 170H233L177 0H20L287 765H471L742 0H570L514 170ZM208 942H550V838H208V942Z" />
<glyph unicode="&#x101;" glyph-name="amacron" horiz-adv-x="584" d="M256 94Q277 94 296 102T329 126T353 168T362 226V243Q299 239 265 233T211 214Q197 205 191 191T185 160Q185 131 204 113T256 94ZM51 377Q56 458 116 503T282 548Q347 548 391 535T463 495T503
428T515 334V149Q515 127 523 118T558 109V-1H505Q447 -1 417 14T374 73H372Q346 35 307 15T210 -6Q125 -6 77 36T28 153Q28 244 109 287Q152 310 213 316T361 327V356Q361 446 282 446Q243 446 224 427T203 377H51ZM119 740H461V636H119V740Z" />
<glyph unicode="&#x102;" glyph-name="Abreve" horiz-adv-x="761" d="M373 624Q372 621 365 591T343 513L272 290H474L404 512Q396 537 391 557T382 593Q378 611 375 624H373ZM514 170H233L177 0H20L287 765H471L742 0H570L514 170ZM379 815Q345 815 316 824T264
851T228 900T213 972H316Q318 942 336 926T382 909Q409 909 427 925T449 972H546Q545 930 532 900T496 852T443 824T379 815Z" />
<glyph unicode="&#x103;" glyph-name="abreve" horiz-adv-x="584" d="M256 94Q277 94 296 102T329 126T353 168T362 226V243Q299 239 265 233T211 214Q197 205 191 191T185 160Q185 131 204 113T256 94ZM51 377Q56 458 116 503T282 548Q347 548 391 535T463 495T503
428T515 334V149Q515 127 523 118T558 109V-1H505Q447 -1 417 14T374 73H372Q346 35 307 15T210 -6Q125 -6 77 36T28 153Q28 244 109 287Q152 310 213 316T361 327V356Q361 446 282 446Q243 446 224 427T203 377H51ZM290 612Q255 612 225 622T173 653T137 708T124
788H229Q229 751 246 733T293 714Q322 714 340 732T358 788H457Q457 741 444 708T409 654T356 622T290 612Z" />
<glyph unicode="&#x104;" glyph-name="Aogonek" horiz-adv-x="761" d="M287 765H471L739 7Q704 -12 690 -29T675 -64Q675 -81 687 -89T726 -99V-188H697Q657 -188 630 -182T586 -163T562 -135T555 -98Q555 -70 574 -44T632 0H569L513 170H233L177 0H20L287 765ZM474
290L404 512Q396 537 391 557T382 593Q378 611 375 624H373Q370 611 366 593Q358 561 343 513L272 290H474Z" />
<glyph unicode="&#x105;" glyph-name="aogonek" horiz-adv-x="584" d="M51 377Q56 458 116 503T282 548Q347 548 391 535T463 495T503 428T515 334V149Q515 127 523 118T558 109V0Q529 -18 517 -33T504 -65Q504 -82 516 -90T555 -99V-188H526Q446 -188 415 -163T383
-98Q383 -69 403 -43T468 -1V1Q431 6 408 20T374 73H372Q346 35 307 15T210 -6Q125 -6 77 36T28 153Q28 244 109 287Q152 310 213 316T361 327V356Q361 446 282 446Q243 446 224 427T203 377H51ZM256 94Q277 94 296 102T329 126T353 168T362 226V243Q299 239 265
233T211 214Q197 205 191 191T185 160Q185 131 204 113T256 94Z" />
<glyph unicode="&#x106;" glyph-name="Cacute" horiz-adv-x="766" d="M404 654Q365 654 333 637T277 585T240 498T227 378Q227 246 274 177T403 107Q471 107 508 147T553 260H720Q717 198 694 147T631 60T534 4T407 -16Q318 -16 251 10T140 87T73 209T50 372Q50
466 74 541T143 668T255 748T404 776Q474 776 531 758T628 706T693 621T721 506H552Q546 574 507 614T404 654ZM409 960H567L464 827H345L409 960Z" />
<glyph unicode="&#x107;" glyph-name="cacute" horiz-adv-x="595" d="M295 788H453L365 614H244L295 788ZM401 344Q397 387 376 415T309 443Q278 443 257 429T224 390T206 335T201 270Q201 239 205 208T220 152T253 112T308 96Q334 96 352 105T382 128T398 160T405
199H559Q557 146 538 107T485 41T406 1T308 -13Q177 -13 108 61T38 268Q38 333 57 385T111 473T196 529T309 549Q363 549 407 536T485 497T536 433T557 344H401Z" />
<glyph unicode="&#x108;" glyph-name="Ccircumflex" horiz-adv-x="766" d="M587 827H472L406 883H405L341 827H235L343 960H479L587 827ZM404 654Q365 654 333 637T277 585T240 498T227 378Q227 246 274 177T403 107Q471 107 508 147T553 260H720Q717 198 694
147T631 60T534 4T407 -16Q318 -16 251 10T140 87T73 209T50 372Q50 466 74 541T143 668T255 748T404 776Q474 776 531 758T628 706T693 621T721 506H552Q546 574 507 614T404 654Z" />
<glyph unicode="&#x109;" glyph-name="ccircumflex" horiz-adv-x="595" d="M491 614H382L313 691H312L246 614H145L255 788H381L491 614ZM401 344Q397 387 376 415T309 443Q278 443 257 429T224 390T206 335T201 270Q201 239 205 208T220 152T253 112T308 96Q334
96 352 105T382 128T398 160T405 199H559Q557 146 538 107T485 41T406 1T308 -13Q177 -13 108 61T38 268Q38 333 57 385T111 473T196 529T309 549Q363 549 407 536T485 497T536 433T557 344H401Z" />
<glyph unicode="&#x10a;" glyph-name="Cdotaccent" horiz-adv-x="766" d="M404 654Q365 654 333 637T277 585T240 498T227 378Q227 246 274 177T403 107Q471 107 508 147T553 260H720Q717 198 694 147T631 60T534 4T407 -16Q318 -16 251 10T140 87T73 209T50 372Q50
466 74 541T143 668T255 748T404 776Q474 776 531 758T628 706T693 621T721 506H552Q546 574 507 614T404 654ZM339 970H476V833H339V970Z" />
<glyph unicode="&#x10b;" glyph-name="cdotaccent" horiz-adv-x="595" d="M401 344Q397 387 376 415T309 443Q278 443 257 429T224 390T206 335T201 270Q201 239 205 208T220 152T253 112T308 96Q334 96 352 105T382 128T398 160T405 199H559Q557 146 538 107T485
41T406 1T308 -13Q177 -13 108 61T38 268Q38 333 57 385T111 473T196 529T309 549Q363 549 407 536T485 497T536 433T557 344H401ZM244 773H381V636H244V773Z" />
<glyph unicode="&#x10c;" glyph-name="Ccaron" horiz-adv-x="766" d="M225 960H340L406 904H407L471 960H577L469 827H333L225 960ZM404 654Q365 654 333 637T277 585T240 498T227 378Q227 246 274 177T403 107Q471 107 508 147T553 260H720Q717 198 694 147T631
60T534 4T407 -16Q318 -16 251 10T140 87T73 209T50 372Q50 466 74 541T143 668T255 748T404 776Q474 776 531 758T628 706T693 621T721 506H552Q546 574 507 614T404 654Z" />
<glyph unicode="&#x10d;" glyph-name="ccaron" horiz-adv-x="595" d="M134 788H243L312 711H313L379 788H480L370 614H244L134 788ZM401 344Q397 387 376 415T309 443Q278 443 257 429T224 390T206 335T201 270Q201 239 205 208T220 152T253 112T308 96Q334 96
352 105T382 128T398 160T405 199H559Q557 146 538 107T485 41T406 1T308 -13Q177 -13 108 61T38 268Q38 333 57 385T111 473T196 529T309 549Q363 549 407 536T485 497T536 433T557 344H401Z" />
<glyph unicode="&#x10e;" glyph-name="Dcaron" horiz-adv-x="770" d="M172 960H287L353 904H354L418 960H524L416 827H280L172 960ZM77 765H338Q423 765 493 744T614 677T693 561T721 392Q721 294 694 221T616 98T496 25T342 0H77V765ZM330 124Q379 124 419 137T488
182T531 263T547 388Q547 459 532 507T488 586T421 629T335 643H241V124H330Z" />
<glyph unicode="&#x10f;" glyph-name="dcaron" horiz-adv-x="649" d="M651 788H776L720 601H645L651 788ZM424 292Q424 363 395 401T316 439Q262 439 232 397T201 266Q201 184 227 139T312 93Q367 93 395 131T424 228V292ZM581 0H429V79H427Q416 61 402 45T368
15T323 -6T267 -14Q160 -14 100 53T39 261Q39 332 57 385T106 475T180 529T273 547Q325 547 363 525T420 465H422V788H581V0Z" />
<glyph unicode="&#x110;" glyph-name="Dcroat" horiz-adv-x="792" d="M99 0V329H24V440H99V765H361Q445 765 515 744T636 677T715 561T743 392Q743 294 716 221T638 98T518 25T364 0H99ZM352 124Q401 124 441 137T510 182T553 263T569 388Q569 459 554 507T510
586T443 629T357 643H263V440H429V329H263V124H352Z" />
<glyph unicode="&#x111;" glyph-name="dcroat" horiz-adv-x="649" d="M424 292Q424 363 395 401T316 439Q262 439 232 397T201 266Q201 184 227 139T312 93Q367 93 395 131T424 228V292ZM427 79Q416 61 402 45T368 15T323 -6T267 -14Q160 -14 100 53T39 261Q39
332 57 385T106 475T180 529T273 547Q325 547 363 525T420 465H422V607H273V700H422V788H581V700H660V607H581V0H429V79H427Z" />
<glyph unicode="&#x112;" glyph-name="Emacron" horiz-adv-x="648" d="M77 765H581V640H241V443H563V321H241V124H590V0H77V765ZM162 942H504V838H162V942Z" />
<glyph unicode="&#x113;" glyph-name="emacron" horiz-adv-x="601" d="M400 329Q396 386 373 418T305 450Q256 450 230 417T198 322H400V329ZM557 156Q545 78 479 32T303 -14Q238 -14 189 6T106 63T55 152T38 269Q38 330 56 381T108 470T192 528T305 549Q373 549
421 528T501 470T547 383T562 273V231H198Q203 159 230 126T308 93Q332 93 348 98T374 112T391 132T401 156H557ZM132 740H474V636H132V740Z" />
<glyph unicode="&#x114;" glyph-name="Ebreve" horiz-adv-x="648" d="M77 765H581V640H241V443H563V321H241V124H590V0H77V765ZM333 815Q299 815 270 824T218 851T182 900T167 972H270Q272 942 290 926T336 909Q363 909 381 925T403 972H500Q499 930 486 900T450
852T397 824T333 815Z" />
<glyph unicode="&#x115;" glyph-name="ebreve" horiz-adv-x="601" d="M400 329Q396 386 373 418T305 450Q256 450 230 417T198 322H400V329ZM557 156Q545 78 479 32T303 -14Q238 -14 189 6T106 63T55 152T38 269Q38 330 56 381T108 470T192 528T305 549Q373 549
421 528T501 470T547 383T562 273V231H198Q203 159 230 126T308 93Q332 93 348 98T374 112T391 132T401 156H557ZM303 612Q268 612 238 622T186 653T150 708T137 788H242Q242 751 259 733T306 714Q335 714 353 732T371 788H470Q470 741 457 708T422 654T369 622T303
612Z" />
<glyph unicode="&#x116;" glyph-name="Edotaccent" horiz-adv-x="648" d="M264 970H401V833H264V970ZM77 765H581V640H241V443H563V321H241V124H590V0H77V765Z" />
<glyph unicode="&#x117;" glyph-name="edotaccent" horiz-adv-x="601" d="M400 329Q396 386 373 418T305 450Q256 450 230 417T198 322H400V329ZM557 156Q545 78 479 32T303 -14Q238 -14 189 6T106 63T55 152T38 269Q38 330 56 381T108 470T192 528T305 549Q373
549 421 528T501 470T547 383T562 273V231H198Q203 159 230 126T308 93Q332 93 348 98T374 112T391 132T401 156H557ZM234 773H371V636H234V773Z" />
<glyph unicode="&#x118;" glyph-name="Eogonek" horiz-adv-x="648" d="M590 -188H561Q481 -188 450 -163T418 -98Q418 -69 437 -43T498 0H77V765H581V640H241V443H563V321H241V124H590V0Q563 -18 551 -33T539 -64Q539 -81 551 -89T590 -99V-188Z" />
<glyph unicode="&#x119;" glyph-name="eogonek" horiz-adv-x="601" d="M557 156Q552 124 537 96T490 41Q455 12 432 -14T408 -64Q408 -81 420 -89T459 -99V-188H430Q350 -188 319 -163T287 -100Q287 -42 374 -8V-6Q358 -8 339 -11T303 -14Q238 -14 189 6T106 63T55
152T38 269Q38 330 56 381T108 470T192 528T304 549Q373 549 422 528T502 470T547 383T562 273V231H198Q203 160 229 127T308 93Q332 93 348 98T374 112T391 132T401 156H557ZM400 322Q398 382 375 416T304 450Q256 450 230 417T198 322H400Z" />
<glyph unicode="&#x11a;" glyph-name="Ecaron" horiz-adv-x="648" d="M151 960H266L332 904H333L397 960H503L395 827H259L151 960ZM77 765H581V640H241V443H563V321H241V124H590V0H77V765Z" />
<glyph unicode="&#x11b;" glyph-name="ecaron" horiz-adv-x="601" d="M124 788H233L302 711H303L369 788H470L360 614H234L124 788ZM400 329Q396 386 373 418T305 450Q256 450 230 417T198 322H400V329ZM557 156Q545 78 479 32T303 -14Q238 -14 189 6T106 63T55
152T38 269Q38 330 56 381T108 470T192 528T305 549Q373 549 421 528T501 470T547 383T562 273V231H198Q203 159 230 126T308 93Q332 93 348 98T374 112T391 132T401 156H557Z" />
<glyph unicode="&#x11c;" glyph-name="Gcircumflex" horiz-adv-x="810" d="M581 827H466L400 883H399L335 827H229L337 960H473L581 827ZM412 658Q322 658 274 587T225 379Q225 305 238 253T275 167T333 119T412 103Q491 103 535 148T586 276L587 290H406V408H740V0H610V104H606Q579
52 524 18T384 -16Q302 -16 240 11T135 89T72 210T50 371Q50 464 76 539T149 666T264 747T412 776Q551 776 631 714T725 533H558Q550 589 512 623T412 658Z" />
<glyph unicode="&#x11d;" glyph-name="gcircumflex" horiz-adv-x="646" d="M469 614H360L291 691H290L224 614H123L233 788H359L469 614ZM426 302Q426 368 396 403T314 439Q264 439 233 399T201 278Q201 201 228 160T314 118Q339 118 359 127T395 154T418 194T426
244V302ZM309 -199Q184 -199 123 -154T56 -32H209Q217 -62 238 -78T311 -95Q370 -95 398 -66T426 35V111H423Q416 95 404 78T372 48T327 26T267 17Q162 17 101 80T39 278Q39 344 57 394T106 478T180 529T271 547Q302 547 326 540T370 521T402 494T424 463H426V536H578V43Q578
-79 512 -139T309 -199Z" />
<glyph unicode="&#x11e;" glyph-name="Gbreve" horiz-adv-x="810" d="M405 815Q371 815 342 824T290 851T254 900T239 972H342Q344 942 362 926T408 909Q435 909 453 925T475 972H572Q571 930 558 900T522 852T469 824T405 815ZM412 658Q322 658 274 587T225 379Q225
305 238 253T275 167T333 119T412 103Q491 103 535 148T586 276L587 290H406V408H740V0H610V104H606Q579 52 524 18T384 -16Q302 -16 240 11T135 89T72 210T50 371Q50 464 76 539T149 666T264 747T412 776Q551 776 631 714T725 533H558Q550 589 512 623T412 658Z"
/>
<glyph unicode="&#x11f;" glyph-name="gbreve" horiz-adv-x="646" d="M426 302Q426 368 396 403T314 439Q264 439 233 399T201 278Q201 201 228 160T314 118Q339 118 359 127T395 154T418 194T426 244V302ZM309 -199Q184 -199 123 -154T56 -32H209Q217 -62 238
-78T311 -95Q370 -95 398 -66T426 35V111H423Q416 95 404 78T372 48T327 26T267 17Q162 17 101 80T39 278Q39 344 57 394T106 478T180 529T271 547Q302 547 326 540T370 521T402 494T424 463H426V536H578V43Q578 -79 512 -139T309 -199ZM292 612Q257 612 227 622T175
653T139 708T126 788H231Q231 751 248 733T295 714Q324 714 342 732T360 788H459Q459 741 446 708T411 654T358 622T292 612Z" />
<glyph unicode="&#x120;" glyph-name="Gdotaccent" horiz-adv-x="810" d="M336 970H473V833H336V970ZM412 658Q322 658 274 587T225 379Q225 305 238 253T275 167T333 119T412 103Q491 103 535 148T586 276L587 290H406V408H740V0H610V104H606Q579 52 524 18T384
-16Q302 -16 240 11T135 89T72 210T50 371Q50 464 76 539T149 666T264 747T412 776Q551 776 631 714T725 533H558Q550 589 512 623T412 658Z" />
<glyph unicode="&#x121;" glyph-name="gdotaccent" horiz-adv-x="646" d="M426 302Q426 368 396 403T314 439Q264 439 233 399T201 278Q201 201 228 160T314 118Q339 118 359 127T395 154T418 194T426 244V302ZM309 -199Q184 -199 123 -154T56 -32H209Q217 -62
238 -78T311 -95Q370 -95 398 -66T426 35V111H423Q416 95 404 78T372 48T327 26T267 17Q162 17 101 80T39 278Q39 344 57 394T106 478T180 529T271 547Q302 547 326 540T370 521T402 494T424 463H426V536H578V43Q578 -79 512 -139T309 -199ZM223 773H360V636H223V773Z"
/>
<glyph unicode="&#x122;" glyph-name="Gcommaaccent" horiz-adv-x="810" d="M327 -63H481L408 -219H303L327 -63ZM412 658Q322 658 274 587T225 379Q225 305 238 253T275 167T333 119T412 103Q491 103 535 148T586 276L587 290H406V408H740V0H610V104H606Q579
52 524 18T384 -16Q302 -16 240 11T135 89T72 210T50 371Q50 464 76 539T149 666T264 747T412 776Q551 776 631 714T725 533H558Q550 589 512 623T412 658Z" />
<glyph unicode="&#x123;" glyph-name="gcommaaccent" horiz-adv-x="646" d="M360 617H203L282 782H387L360 617ZM426 302Q426 368 396 403T314 439Q264 439 233 399T201 278Q201 201 228 160T314 118Q339 118 359 127T395 154T418 194T426 244V302ZM309 -199Q184
-199 123 -154T56 -32H209Q217 -62 238 -78T311 -95Q370 -95 398 -66T426 35V111H423Q416 95 404 78T372 48T327 26T267 17Q162 17 101 80T39 278Q39 344 57 394T106 478T180 529T271 547Q302 547 326 540T370 521T402 494T424 463H426V536H578V43Q578 -79 512
-139T309 -199Z" />
<glyph unicode="&#x124;" glyph-name="Hcircumflex" horiz-adv-x="792" d="M241 0H77V765H241V446H549V765H715V0H549V318H241V0ZM576 827H461L395 883H394L330 827H224L332 960H468L576 827Z" />
<glyph unicode="&#x125;" glyph-name="hcircumflex" horiz-adv-x="641" d="M420 314Q420 343 418 365T404 402Q382 433 335 433Q281 433 254 401T227 310V0H68V788H227V450H229Q238 468 253 485T289 516T337 538T397 547Q494 547 536 498T579 348V0H420V314ZM503
827H388L322 883H321L257 827H151L259 960H395L503 827Z" />
<glyph unicode="&#x126;" glyph-name="Hbar" horiz-adv-x="792" d="M549 564H241V446H549V564ZM241 0H77V564H0V658H77V765H241V658H549V765H715V658H792V564H715V0H549V318H241V0Z" />
<glyph unicode="&#x127;" glyph-name="hbar" horiz-adv-x="641" d="M227 0H68V607H-11V700H68V788H226V700H377V607H226V450H228Q237 468 252 485T288 516T337 538T397 547Q494 547 536 498T579 348V0H420V314Q420 343 418 365T404 402Q382 433 335 433Q281 433
254 401T227 310V0Z" />
<glyph unicode="&#x128;" glyph-name="Itilde" horiz-adv-x="318" d="M77 765H241V0H77V765ZM226 819Q227 851 233 879T252 928T288 961T342 974Q366 974 385 966T422 948T455 930T485 922Q500 922 513 934T534 975H605Q604 943 598 915T579 866T543 833T489 820Q465
820 446 828T409 846T376 864T345 872Q332 872 319 861T298 819H226Z" />
<glyph unicode="&#x129;" glyph-name="itilde" horiz-adv-x="295" d="M68 536H227V0H68V536ZM243 614Q243 647 248 677T265 729T296 765T343 778Q363 778 379 770T410 753T436 735T462 727Q474 727 486 737T505 779H565Q565 745 560 715T543 663T512 627T465 614Q445
614 429 622T398 639T371 657T346 665Q334 665 322 655T304 614H243Z" />
<glyph unicode="&#x12a;" glyph-name="Imacron" horiz-adv-x="318" d="M77 765H241V0H77V765ZM244 942H586V838H244V942Z" />
<glyph unicode="&#x12b;" glyph-name="imacron" horiz-adv-x="295" d="M68 536H227V0H68V536ZM11 740H285V636H11V740Z" />
<glyph unicode="&#x12c;" glyph-name="Ibreve" horiz-adv-x="318" d="M77 765H241V0H77V765ZM415 815Q381 815 352 824T300 851T264 900T249 972H352Q354 942 372 926T418 909Q445 909 463 925T485 972H582Q581 930 568 900T532 852T479 824T415 815Z" />
<glyph unicode="&#x12d;" glyph-name="ibreve" horiz-adv-x="295" d="M68 536H227V0H68V536ZM405 612Q373 612 346 622T299 653T267 708T255 788H350Q350 751 365 733T407 714Q433 714 449 732T466 788H555Q555 741 544 708T512 654T464 622T405 612Z" />
<glyph unicode="&#x12e;" glyph-name="Iogonek" horiz-adv-x="318" d="M77 765H241V12Q202 -13 188 -30T174 -64Q174 -81 186 -89T225 -99V-188H196Q156 -188 129 -182T85 -163T61 -135T54 -98Q54 -69 73 -43T132 0H77V765Z" />
<glyph unicode="&#x12f;" glyph-name="iogonek" horiz-adv-x="295" d="M67 773H228V629H67V773ZM68 536H227V9Q189 -14 175 -30T161 -64Q161 -81 173 -89T212 -99V-188H183Q143 -188 116 -182T73 -163T49 -135T41 -98Q41 -68 61 -42T120 0H68V536Z" />
<glyph unicode="&#x130;" glyph-name="Idotaccent" horiz-adv-x="318" d="M77 765H241V0H77V765ZM347 970H484V833H347V970Z" />
<glyph unicode="&#x131;" glyph-name="dotlessi" horiz-adv-x="295" d="M68 536H227V0H68V536Z" />
<glyph unicode="&#x132;" glyph-name="IJ" horiz-adv-x="749" d="M351 -3V127H378Q423 127 450 135T493 161T512 204T517 265V765H679V245Q679 174 661 126T607 50T520 9T404 -3H351ZM77 765H241V0H77V765Z" />
<glyph unicode="&#x133;" glyph-name="ij" horiz-adv-x="594" d="M67 773H228V629H67V773ZM68 536H227V0H68V536ZM366 773H527V629H366V773ZM335 -206Q302 -206 283 -202T260 -197V-86Q263 -88 273 -89T299 -91Q334 -91 350 -74T367 -15V536H526V-16Q526 -71 512
-107T472 -166T411 -197T335 -206Z" />
<glyph unicode="&#x134;" glyph-name="Jcircumflex" horiz-adv-x="448" d="M478 827H363L297 883H296L232 827H126L234 960H370L478 827ZM33 -3V127H70Q118 127 146 135T190 161T211 204T216 265V765H378V245Q378 174 359 126T304 50T215 9T96 -3H33Z" />
<glyph unicode="&#x135;" glyph-name="jcircumflex" horiz-adv-x="299" d="M-35 -86Q-32 -88 -22 -89T4 -91Q39 -91 55 -74T72 -15V536H231V-16Q231 -71 217 -107T177 -166T116 -197T40 -206Q7 -206 -12 -202T-35 -197V-86ZM562 614H464L402 691H401L342 614H251L350
788H463L562 614Z" />
<glyph unicode="&#x136;" glyph-name="Kcommaaccent" horiz-adv-x="735" d="M306 -63H460L387 -219H282L306 -63ZM241 0H77V765H241V424L520 765H703L428 445L715 0H527L317 321L241 232V0Z" />
<glyph unicode="&#x137;" glyph-name="kcommaaccent" horiz-adv-x="598" d="M244 193H398L325 37H220L244 193ZM224 0H68V788H224V314L407 536H575L396 326L584 0H412L290 219L224 139V0Z" />
<glyph unicode="&#x138;" glyph-name="kgreenlandic" horiz-adv-x="598" d="M224 0H68V536H224V314L407 536H575L396 326L584 0H412L290 219L224 139V0Z" />
<glyph unicode="&#x139;" glyph-name="Lacute" horiz-adv-x="610" d="M164 960H322L219 827H100L164 960ZM77 765H241V128H571V0H77V765Z" />
<glyph unicode="&#x13a;" glyph-name="lacute" horiz-adv-x="295" d="M401 962H559L456 829H337L401 962ZM68 788H227V0H68V788Z" />
<glyph unicode="&#x13b;" glyph-name="Lcommaaccent" horiz-adv-x="610" d="M248 193H402L329 37H224L248 193ZM77 765H241V128H571V0H77V765Z" />
<glyph unicode="&#x13c;" glyph-name="lcommaaccent" horiz-adv-x="295" d="M327 193H481L408 37H303L327 193ZM68 788H227V0H68V788Z" />
<glyph unicode="&#x13d;" glyph-name="Lcaron" horiz-adv-x="610" d="M355 788H483L418 577H339L355 788ZM77 765H241V128H571V0H77V765Z" />
<glyph unicode="&#x13e;" glyph-name="lcaron" horiz-adv-x="295" d="M296 788H421L365 601H290L296 788ZM68 788H227V0H68V788Z" />
<glyph unicode="&#x13f;" glyph-name="Ldot" horiz-adv-x="610" d="M77 765H241V128H571V0H77V765ZM379 497H545V340H379V497Z" />
<glyph unicode="&#x140;" glyph-name="ldot" horiz-adv-x="522" d="M68 788H227V0H68V788ZM327 474H486V325H327V474Z" />
<glyph unicode="&#x141;" glyph-name="Lslash" horiz-adv-x="610" d="M77 263L-2 234V353L77 382V765H241V442L463 523V404L241 323V128H571V0H77V263Z" />
<glyph unicode="&#x142;" glyph-name="lslash" horiz-adv-x="297" d="M69 0V292L-5 248V367L69 411V788H228V506L304 551V431L228 386V0H69Z" />
<glyph unicode="&#x143;" glyph-name="Nacute" horiz-adv-x="789" d="M395 960H553L450 827H331L395 960ZM77 765H258L505 351Q519 326 529 305T547 269Q555 251 560 237H563V765H713V0H540L286 422Q270 447 260 468T242 505Q234 523 228 538H225V0H77V765Z" />
<glyph unicode="&#x144;" glyph-name="nacute" horiz-adv-x="641" d="M333 788H491L403 614H282L333 788ZM420 313Q420 342 418 364T404 402Q382 433 335 433Q281 433 254 401T227 310V0H68V536H221V448H223Q245 489 286 518T397 547Q494 547 536 498T579 348V0H420V313Z" />
<glyph unicode="&#x145;" glyph-name="Ncommaaccent" horiz-adv-x="789" d="M318 -63H472L399 -219H294L318 -63ZM77 765H258L505 351Q519 326 529 305T547 269Q555 251 560 237H563V765H713V0H540L286 422Q270 447 260 468T242 505Q234 523 228 538H225V0H77V765Z" />
<glyph unicode="&#x146;" glyph-name="ncommaaccent" horiz-adv-x="641" d="M247 193H401L328 37H223L247 193ZM420 313Q420 342 418 364T404 402Q382 433 335 433Q281 433 254 401T227 310V0H68V536H221V448H223Q245 489 286 518T397 547Q494 547 536 498T579
348V0H420V313Z" />
<glyph unicode="&#x147;" glyph-name="Ncaron" horiz-adv-x="789" d="M212 960H327L393 904H394L458 960H564L456 827H320L212 960ZM77 765H258L505 351Q519 326 529 305T547 269Q555 251 560 237H563V765H713V0H540L286 422Q270 447 260 468T242 505Q234 523
228 538H225V0H77V765Z" />
<glyph unicode="&#x148;" glyph-name="ncaron" horiz-adv-x="641" d="M163 788H272L341 711H342L408 788H509L399 614H273L163 788ZM420 313Q420 342 418 364T404 402Q382 433 335 433Q281 433 254 401T227 310V0H68V536H221V448H223Q245 489 286 518T397 547Q494
547 536 498T579 348V0H420V313Z" />
<glyph unicode="&#x149;" glyph-name="napostrophe" horiz-adv-x="641" d="M38 788H192L119 632H14L38 788ZM420 313Q420 342 418 364T404 402Q382 433 335 433Q281 433 254 401T227 310V0H68V536H221V448H223Q245 489 286 518T397 547Q494 547 536 498T579 348V0H420V313Z"
/>
<glyph unicode="&#x14a;" glyph-name="Eng" horiz-adv-x="789" d="M377 -188V-64H410Q473 -64 505 -48T550 -1L287 422Q271 447 260 468T242 505Q233 523 228 538H225V0H77V765H257L504 365Q519 340 529 320T547 283Q555 265 560 250H563V765H713V52Q713 -16 694
-62T639 -136T552 -176T436 -188H377Z" />
<glyph unicode="&#x14b;" glyph-name="eng" horiz-adv-x="641" d="M388 -206Q355 -206 337 -202T315 -197V-86Q318 -88 327 -89T352 -91Q387 -91 403 -74T420 -15V313Q420 342 418 364T404 402Q382 433 335 433Q281 433 254 401T227 310V0H68V536H221V448H223Q245
489 286 518T397 547Q494 547 536 498T579 348V-16Q579 -71 565 -107T525 -166T464 -197T388 -206Z" />
<glyph unicode="&#x14c;" glyph-name="Omacron" horiz-adv-x="822" d="M239 942H581V838H239V942ZM50 380Q50 474 76 548T150 672T264 749T411 776Q495 776 562 750T675 674T747 550T772 380Q772 285 747 212T674 88T560 11T411 -16Q239 -16 145 86T50 380ZM411
104Q499 104 547 173T595 380Q595 449 582 501T544 588T485 640T411 658Q323 658 276 589T228 380Q228 241 274 173T411 104Z" />
<glyph unicode="&#x14d;" glyph-name="omacron" horiz-adv-x="619" d="M138 740H480V636H138V740ZM309 -14Q246 -14 196 5T110 61T57 150T38 268Q38 334 57 386T111 474T196 530T310 549Q371 549 421 530T507 475T561 387T581 268Q581 202 561 150T505 62T419
6T309 -14ZM310 442Q280 442 260 429T227 392T208 337T202 268Q202 229 208 197T227 142T260 106T310 93Q340 93 360 106T393 143T410 199T416 268Q416 307 411 339T393 394T360 429T310 442Z" />
<glyph unicode="&#x14e;" glyph-name="Obreve" horiz-adv-x="822" d="M410 815Q376 815 347 824T295 851T259 900T244 972H347Q349 942 367 926T413 909Q440 909 458 925T480 972H577Q576 930 563 900T527 852T474 824T410 815ZM50 380Q50 474 76 548T150 672T264
749T411 776Q495 776 562 750T675 674T747 550T772 380Q772 285 747 212T674 88T560 11T411 -16Q239 -16 145 86T50 380ZM411 104Q499 104 547 173T595 380Q595 449 582 501T544 588T485 640T411 658Q323 658 276 589T228 380Q228 241 274 173T411 104Z" />
<glyph unicode="&#x14f;" glyph-name="obreve" horiz-adv-x="619" d="M309 -14Q246 -14 196 5T110 61T57 150T38 268Q38 334 57 386T111 474T196 530T310 549Q371 549 421 530T507 475T561 387T581 268Q581 202 561 150T505 62T419 6T309 -14ZM310 442Q280 442
260 429T227 392T208 337T202 268Q202 229 208 197T227 142T260 106T310 93Q340 93 360 106T393 143T410 199T416 268Q416 307 411 339T393 394T360 429T310 442ZM309 612Q274 612 244 622T192 653T156 708T143 788H248Q248 751 265 733T312 714Q341 714 359 732T377
788H476Q476 741 463 708T428 654T375 622T309 612Z" />
<glyph unicode="&#x150;" glyph-name="Ohungarumlaut" horiz-adv-x="822" d="M475 964H601L532 831H440L475 964ZM297 964H422L366 831H275L297 964ZM50 380Q50 474 76 548T150 672T264 749T411 776Q495 776 562 750T675 674T747 550T772 380Q772 285 747 212T674
88T560 11T411 -16Q239 -16 145 86T50 380ZM411 104Q499 104 547 173T595 380Q595 449 582 501T544 588T485 640T411 658Q323 658 276 589T228 380Q228 241 274 173T411 104Z" />
<glyph unicode="&#x151;" glyph-name="ohungarumlaut" horiz-adv-x="619" d="M391 788H518L432 614H339L391 788ZM214 788H342L269 614H175L214 788ZM309 -14Q246 -14 196 5T110 61T57 150T38 268Q38 334 57 386T111 474T196 530T310 549Q371 549 421 530T507
475T561 387T581 268Q581 202 561 150T505 62T419 6T309 -14ZM310 442Q280 442 260 429T227 392T208 337T202 268Q202 229 208 197T227 142T260 106T310 93Q340 93 360 106T393 143T410 199T416 268Q416 307 411 339T393 394T360 429T310 442Z" />
<glyph unicode="&#x152;" glyph-name="OE" horiz-adv-x="1156" d="M588 428Q588 540 543 599T412 658Q373 658 339 642T281 593T242 506T228 380Q228 242 275 173T410 104Q456 104 489 120T545 165T577 234T588 324V428ZM587 77Q558 36 508 11T381 -15Q307 -15
246 10T141 84T73 208T49 380Q49 479 75 553T148 677T256 751T390 776Q451 776 503 754T587 680H588V765H1089V640H753V443H1071V321H753V124H1098V0H588V77H587Z" />
<glyph unicode="&#x153;" glyph-name="oe" horiz-adv-x="972" d="M771 328Q767 386 744 418T672 450Q625 450 600 417T569 322H771V328ZM310 442Q280 442 260 429T227 392T208 337T202 268Q202 229 208 197T227 142T260 106T310 93Q340 93 360 106T393 143T410
199T416 268Q416 307 411 339T393 394T360 429T310 442ZM928 156Q916 77 849 32T673 -14Q608 -14 564 5T491 62Q461 25 416 6T309 -14Q246 -14 196 5T110 61T57 150T38 268Q38 334 57 386T111 474T196 530T310 549Q373 549 418 530T494 473Q523 509 566 529T672
549Q741 549 790 528T871 470T918 383T933 273V231H569Q574 159 601 126T679 93Q703 93 719 98T745 112T762 132T772 156H928Z" />
<glyph unicode="&#x154;" glyph-name="Racute" horiz-adv-x="714" d="M358 960H516L413 827H294L358 960ZM355 408Q382 408 406 414T449 435T478 473T489 531Q489 566 477 589T446 626T404 645T358 651H241V408H355ZM359 291H241V0H77V765H376Q413 765 453 759T530
737Q584 713 620 666T657 540Q657 495 644 461T610 401T563 358T509 330V328L680 0H503L359 291Z" />
<glyph unicode="&#x155;" glyph-name="racute" horiz-adv-x="427" d="M219 788H377L289 614H168L219 788ZM68 536H218V423H220Q231 453 250 476T292 514T343 537T397 545H406V401H378Q305 401 266 372T226 265V0H68V536Z" />
<glyph unicode="&#x156;" glyph-name="Rcommaaccent" horiz-adv-x="714" d="M281 -63H435L362 -219H257L281 -63ZM355 408Q382 408 406 414T449 435T478 473T489 531Q489 566 477 589T446 626T404 645T358 651H241V408H355ZM359 291H241V0H77V765H376Q413 765
453 759T530 737Q584 713 620 666T657 540Q657 495 644 461T610 401T563 358T509 330V328L680 0H503L359 291Z" />
<glyph unicode="&#x157;" glyph-name="rcommaaccent" horiz-adv-x="427" d="M325 193H479L406 37H301L325 193ZM68 536H218V423H220Q231 453 250 476T292 514T343 537T397 545H406V401H378Q305 401 266 372T226 265V0H68V536Z" />
<glyph unicode="&#x158;" glyph-name="Rcaron" horiz-adv-x="714" d="M174 960H289L355 904H356L420 960H526L418 827H282L174 960ZM355 408Q382 408 406 414T449 435T478 473T489 531Q489 566 477 589T446 626T404 645T358 651H241V408H355ZM359 291H241V0H77V765H376Q413
765 453 759T530 737Q584 713 620 666T657 540Q657 495 644 461T610 401T563 358T509 330V328L680 0H503L359 291Z" />
<glyph unicode="&#x159;" glyph-name="rcaron" horiz-adv-x="427" d="M58 788H167L236 711H237L303 788H404L294 614H168L58 788ZM68 536H218V423H220Q231 453 250 476T292 514T343 537T397 545H406V401H378Q305 401 266 372T226 265V0H68V536Z" />
<glyph unicode="&#x15a;" glyph-name="Sacute" horiz-adv-x="699" d="M467 557Q465 576 458 594T437 626T402 648T353 657Q299 657 269 632T238 565Q238 527 261 504T339 470L455 449Q558 430 607 377T657 238Q657 114 577 49T350 -16Q278 -16 223 0T129 48T69
122T44 219H215Q221 169 255 137T354 104Q422 104 454 134T487 208Q487 248 463 270T378 304L264 326Q220 335 184 352T121 397T81 460T67 542Q67 593 86 635T142 709T232 758T354 776Q427 776 479 759T565 711T616 642T635 557H467ZM352 960H510L407 827H288L352
960Z" />
<glyph unicode="&#x15b;" glyph-name="sacute" horiz-adv-x="536" d="M248 788H406L318 614H197L248 788ZM344 387Q342 413 323 430T267 448Q230 448 211 432T192 392Q192 369 205 356T254 338L345 326Q419 316 459 279T500 168Q500 123 483 89T435 32T361 -3T267
-15Q207 -15 164 -2T93 34T50 89T32 156H178Q180 127 200 107T268 87Q306 87 329 102T353 146Q353 170 340 183T289 201L203 213Q128 224 87 262T46 373Q46 408 59 440T100 496T169 534T268 549Q320 549 359 537T426 504T467 452T484 387H344Z" />
<glyph unicode="&#x15c;" glyph-name="Scircumflex" horiz-adv-x="699" d="M530 827H415L349 883H348L284 827H178L286 960H422L530 827ZM467 557Q465 576 458 594T437 626T402 648T353 657Q299 657 269 632T238 565Q238 527 261 504T339 470L455 449Q558 430
607 377T657 238Q657 114 577 49T350 -16Q278 -16 223 0T129 48T69 122T44 219H215Q221 169 255 137T354 104Q422 104 454 134T487 208Q487 248 463 270T378 304L264 326Q220 335 184 352T121 397T81 460T67 542Q67 593 86 635T142 709T232 758T354 776Q427 776
479 759T565 711T616 642T635 557H467Z" />
<glyph unicode="&#x15d;" glyph-name="scircumflex" horiz-adv-x="536" d="M443 614H334L265 691H264L198 614H97L207 788H333L443 614ZM344 387Q342 413 323 430T267 448Q230 448 211 432T192 392Q192 369 205 356T254 338L345 326Q419 316 459 279T500 168Q500
123 483 89T435 32T361 -3T267 -15Q207 -15 164 -2T93 34T50 89T32 156H178Q180 127 200 107T268 87Q306 87 329 102T353 146Q353 170 340 183T289 201L203 213Q128 224 87 262T46 373Q46 408 59 440T100 496T169 534T268 549Q320 549 359 537T426 504T467 452T484
387H344Z" />
<glyph unicode="&#x15e;" glyph-name="Scedilla" horiz-adv-x="699" d="M350 -232Q298 -232 272 -209T244 -153H321Q324 -162 331 -168T352 -174Q369 -174 376 -165T384 -142Q384 -111 352 -111Q335 -111 325 -124H260L309 -15Q184 -5 117 57T44 219H215Q221 169
255 137T354 104Q422 104 454 134T487 208Q487 248 463 270T378 304L264 326Q220 335 184 352T121 397T81 460T67 542Q67 593 86 635T142 709T232 758T354 776Q427 776 479 759T565 711T616 642T635 557H467Q465 576 458 594T437 626T402 648T353 657Q299 657 269
632T238 565Q238 527 261 504T339 470L455 449Q558 430 607 377T657 238Q657 117 580 52T361 -16L341 -59H343Q357 -49 383 -49Q419 -49 443 -72T467 -138Q467 -156 460 -173T439 -203T403 -224T350 -232Z" />
<glyph unicode="&#x15f;" glyph-name="scedilla" horiz-adv-x="536" d="M261 -232Q209 -232 183 -209T155 -153H232Q235 -162 242 -168T263 -174Q280 -174 287 -165T295 -142Q295 -111 263 -111Q246 -111 236 -124H171L221 -13Q173 -8 139 7T81 44T46 95T32 156H178Q180
127 200 107T268 87Q306 87 329 102T353 146Q353 170 340 183T289 201L203 213Q128 224 87 262T46 373Q46 408 59 440T100 496T169 534T268 549Q320 549 359 537T426 504T467 452T484 387H344Q342 413 323 430T267 448Q230 448 211 432T192 392Q192 369 205 356T254
338L345 326Q419 316 459 279T500 168Q500 123 483 89T436 32T363 -3T272 -15L252 -59H254Q268 -49 294 -49Q330 -49 354 -72T378 -138Q378 -156 371 -173T350 -203T314 -224T261 -232Z" />
<glyph unicode="&#x160;" glyph-name="Scaron" horiz-adv-x="699" d="M170 960H285L351 904H352L416 960H522L414 827H278L170 960ZM467 557Q465 576 458 594T437 626T402 648T353 657Q299 657 269 632T238 565Q238 527 261 504T339 470L455 449Q558 430 607 377T657
238Q657 114 577 49T350 -16Q278 -16 223 0T129 48T69 122T44 219H215Q221 169 255 137T354 104Q422 104 454 134T487 208Q487 248 463 270T378 304L264 326Q220 335 184 352T121 397T81 460T67 542Q67 593 86 635T142 709T232 758T354 776Q427 776 479 759T565
711T616 642T635 557H467Z" />
<glyph unicode="&#x161;" glyph-name="scaron" horiz-adv-x="536" d="M87 788H196L265 711H266L332 788H433L323 614H197L87 788ZM344 387Q342 413 323 430T267 448Q230 448 211 432T192 392Q192 369 205 356T254 338L345 326Q419 316 459 279T500 168Q500 123
483 89T435 32T361 -3T267 -15Q207 -15 164 -2T93 34T50 89T32 156H178Q180 127 200 107T268 87Q306 87 329 102T353 146Q353 170 340 183T289 201L203 213Q128 224 87 262T46 373Q46 408 59 440T100 496T169 534T268 549Q320 549 359 537T426 504T467 452T484
387H344Z" />
<glyph unicode="&#x162;" glyph-name="Tcommaaccent" horiz-adv-x="662" d="M255 193H409L336 37H231L255 193ZM639 636H413V0H249V636H23V765H639V636Z" />
<glyph unicode="&#x163;" glyph-name="tcommaaccent" horiz-adv-x="401" d="M172 193H326L253 37H148L172 193ZM255 687V536H375V426H257V189Q257 148 273 130T331 111Q338 111 346 111T361 113Q369 114 376 115V-1Q360 -3 332 -5T270 -7Q231 -7 200 2T146 30T112
82T100 159V426H21V535H39Q64 535 80 538T104 554T116 588T119 646V687H255Z" />
<glyph unicode="&#x164;" glyph-name="Tcaron" horiz-adv-x="662" d="M154 960H269L335 904H336L400 960H506L398 827H262L154 960ZM639 636H413V0H249V636H23V765H639V636Z" />
<glyph unicode="&#x165;" glyph-name="tcaron" horiz-adv-x="401" d="M345 788H470L414 601H339L345 788ZM255 687V536H375V426H257V189Q257 148 273 130T331 111Q338 111 346 111T361 113Q369 114 376 115V-1Q360 -3 332 -5T270 -7Q231 -7 200 2T146 30T112 82T100
159V426H21V535H39Q64 535 80 538T104 554T116 588T119 646V687H255Z" />
<glyph unicode="&#x166;" glyph-name="Tbar" horiz-adv-x="662" d="M413 0H249V372H72V472H249V636H23V765H639V636H413V472H591V372H413V0Z" />
<glyph unicode="&#x167;" glyph-name="tbar" horiz-adv-x="401" d="M376 -1Q360 -3 332 -5T270 -7Q231 -7 200 2T146 30T112 82T100 159V230H21V328H100V431H21V535H39Q64 535 80 538T104 554T116 588T119 646V687H255V536H375V431H257V328H375V230H257V189Q257
148 273 130T331 111Q338 111 346 111T361 113Q369 114 376 115V-1Z" />
<glyph unicode="&#x168;" glyph-name="Utilde" horiz-adv-x="761" d="M69 765H233L232 319Q232 298 232 277T236 235T245 196T262 164Q283 138 313 126T381 114Q423 114 453 126T504 164Q514 178 519 196T527 234T530 276T530 319V765H692V267Q692 195 670 142T606
53T507 1T379 -16Q308 -16 251 1T154 53T91 141T69 267V765ZM191 819Q192 851 198 879T217 928T253 961T307 974Q331 974 350 966T387 948T420 930T450 922Q465 922 478 934T499 975H570Q569 943 563 915T544 866T508 833T454 820Q430 820 411 828T374 846T341
864T310 872Q297 872 284 861T263 819H191Z" />
<glyph unicode="&#x169;" glyph-name="utilde" horiz-adv-x="637" d="M222 223Q222 194 225 172T238 135Q259 104 306 104Q411 104 411 243V536H570V0H417V87H415Q394 46 354 18T247 -10Q150 -10 107 37T63 179V536H222V223ZM127 614Q127 647 133 677T153 729T189
765T245 778Q268 778 287 770T323 753T355 735T385 727Q399 727 413 737T435 779H506Q506 745 500 715T480 663T444 627T388 614Q365 614 346 622T310 639T278 657T248 665Q234 665 220 655T199 614H127Z" />
<glyph unicode="&#x16a;" glyph-name="Umacron" horiz-adv-x="761" d="M69 765H233L232 319Q232 298 232 277T236 235T245 196T262 164Q283 138 313 126T381 114Q423 114 453 126T504 164Q514 178 519 196T527 234T530 276T530 319V765H692V267Q692 195 670 142T606
53T507 1T379 -16Q308 -16 251 1T154 53T91 141T69 267V765ZM209 942H551V838H209V942Z" />
<glyph unicode="&#x16b;" glyph-name="umacron" horiz-adv-x="637" d="M222 223Q222 194 225 172T238 135Q259 104 306 104Q411 104 411 243V536H570V0H417V87H415Q394 46 354 18T247 -10Q150 -10 107 37T63 179V536H222V223ZM145 740H487V636H145V740Z" />
<glyph unicode="&#x16c;" glyph-name="Ubreve" horiz-adv-x="761" d="M69 765H233L232 319Q232 298 232 277T236 235T245 196T262 164Q283 138 313 126T381 114Q423 114 453 126T504 164Q514 178 519 196T527 234T530 276T530 319V765H692V267Q692 195 670 142T606
53T507 1T379 -16Q308 -16 251 1T154 53T91 141T69 267V765ZM380 815Q346 815 317 824T265 851T229 900T214 972H317Q319 942 337 926T383 909Q410 909 428 925T450 972H547Q546 930 533 900T497 852T444 824T380 815Z" />
<glyph unicode="&#x16d;" glyph-name="ubreve" horiz-adv-x="637" d="M222 223Q222 194 225 172T238 135Q259 104 306 104Q411 104 411 243V536H570V0H417V87H415Q394 46 354 18T247 -10Q150 -10 107 37T63 179V536H222V223ZM316 612Q281 612 251 622T199 653T163
708T150 788H255Q255 751 272 733T319 714Q348 714 366 732T384 788H483Q483 741 470 708T435 654T382 622T316 612Z" />
<glyph unicode="&#x16e;" glyph-name="Uring" horiz-adv-x="761" d="M69 765H233L232 319Q232 298 232 277T236 235T245 196T262 164Q283 138 313 126T381 114Q423 114 453 126T504 164Q514 178 519 196T527 234T530 276T530 319V765H692V267Q692 195 670 142T606
53T507 1T379 -16Q308 -16 251 1T154 53T91 141T69 267V765ZM380 797Q318 797 284 830T249 919Q249 974 285 1008T381 1043Q444 1043 478 1009T512 919Q512 864 476 831T380 797ZM380 980Q356 980 342 963T327 919Q327 892 341 875T381 858Q405 858 419 875T433
919Q433 946 420 963T380 980Z" />
<glyph unicode="&#x16f;" glyph-name="uring" horiz-adv-x="637" d="M316 602Q254 602 220 635T185 725Q185 752 194 774T221 813T263 839T317 848Q380 848 414 814T448 725Q448 669 412 636T316 602ZM316 785Q292 785 278 769T263 724Q263 697 277 681T317 664Q341
664 355 680T369 724Q369 752 356 768T316 785ZM222 223Q222 194 225 172T238 135Q259 104 306 104Q411 104 411 243V536H570V0H417V87H415Q394 46 354 18T247 -10Q150 -10 107 37T63 179V536H222V223Z" />
<glyph unicode="&#x170;" glyph-name="Uhungarumlaut" horiz-adv-x="761" d="M445 964H571L502 831H410L445 964ZM267 964H392L336 831H245L267 964ZM69 765H233L232 319Q232 298 232 277T236 235T245 196T262 164Q283 138 313 126T381 114Q423 114 453 126T504
164Q514 178 519 196T527 234T530 276T530 319V765H692V267Q692 195 670 142T606 53T507 1T379 -16Q308 -16 251 1T154 53T91 141T69 267V765Z" />
<glyph unicode="&#x171;" glyph-name="uhungarumlaut" horiz-adv-x="637" d="M222 223Q222 194 225 172T238 135Q259 104 306 104Q411 104 411 243V536H570V0H417V87H415Q394 46 354 18T247 -10Q150 -10 107 37T63 179V536H222V223ZM398 788H525L439 614H346L398
788ZM221 788H349L276 614H182L221 788Z" />
<glyph unicode="&#x172;" glyph-name="Uogonek" horiz-adv-x="761" d="M69 765H233L232 319Q232 298 232 277T236 235T245 196T262 164Q282 138 312 126T381 114Q423 114 453 126T504 164Q515 178 520 196T528 234T530 276T530 319V765H692V267Q692 203 675 156T629
76T563 24T484 -3Q458 -8 442 -15T416 -30T403 -47T399 -64Q399 -81 411 -89T450 -99V-188H421Q341 -188 310 -163T278 -98Q278 -72 293 -50T344 -13Q281 -9 230 9T143 62T88 148T69 267V765Z" />
<glyph unicode="&#x173;" glyph-name="uogonek" horiz-adv-x="637" d="M417 87H415Q394 46 354 18T247 -10Q150 -10 107 37T63 179V536H222V223Q222 194 225 172T238 135Q259 104 306 104Q411 104 411 243V536H570V8Q534 -12 520 -29T505 -64Q505 -83 519 -90T560
-99V-188H531Q451 -188 418 -164T385 -98Q385 -68 405 -42T465 0H417V87Z" />
<glyph unicode="&#x174;" glyph-name="Wcircumflex" horiz-adv-x="1067" d="M724 827H609L543 883H542L478 827H372L480 960H616L724 827ZM224 0L21 765H191L297 330Q304 301 309 278T316 237Q319 217 320 201H322Q323 216 327 236Q330 253 335 276T348 329L467
765H617L737 330Q745 301 750 278T760 237Q764 217 767 201H768Q769 216 773 236Q775 253 779 276T791 329L896 765H1046L844 0H683L560 452Q552 481 547 503T540 541Q537 559 536 573H534Q532 559 529 541Q526 525 522 504T510 453L388 0H224Z" />
<glyph unicode="&#x175;" glyph-name="wcircumflex" horiz-adv-x="860" d="M612 614H503L434 691H433L367 614H266L376 788H502L612 614ZM17 536H170L241 266Q246 245 250 225T256 189Q259 171 261 153H264Q267 171 271 189Q275 205 280 225T291 265L371 536H500L580
265Q586 245 590 225T599 189Q603 171 606 153H610Q612 171 616 189Q619 205 623 225T633 265L703 536H842L687 0H534L469 213Q461 237 455 265T443 318Q437 346 432 375H430Q423 346 417 318Q411 293 405 265T390 213L324 0H173L17 536Z" />
<glyph unicode="&#x176;" glyph-name="Ycircumflex" horiz-adv-x="697" d="M267 320L11 765H192L353 464H355L518 765H686L431 323V0H267V320ZM535 827H420L354 883H353L289 827H183L291 960H427L535 827Z" />
<glyph unicode="&#x177;" glyph-name="ycircumflex" horiz-adv-x="571" d="M17 536H181L269 254Q276 232 280 213T288 180Q292 163 293 149H296Q297 163 301 180Q304 194 308 213T319 254L402 536H557L369 -17Q353 -64 334 -98T288 -154T224 -188T135 -199Q96
-199 77 -196T56 -192V-76Q63 -78 78 -79T110 -81Q155 -81 178 -67T213 -16L217 -3L17 536ZM472 614H363L294 691H293L227 614H126L236 788H362L472 614Z" />
<glyph unicode="&#x178;" glyph-name="Ydieresis" horiz-adv-x="697" d="M267 320L11 765H192L353 464H355L518 765H686L431 323V0H267V320ZM395 965H531V828H395V965ZM180 965H316V828H180V965Z" />
<glyph unicode="&#x179;" glyph-name="Zacute" horiz-adv-x="658" d="M335 960H493L390 827H271L335 960ZM53 765H613V652L230 128H619V0H36V113L420 638H53V765Z" />
<glyph unicode="&#x17a;" glyph-name="zacute" horiz-adv-x="544" d="M260 788H418L330 614H209L260 788ZM54 536H502V433L234 117H507V0H44V104L312 421H54V536Z" />
<glyph unicode="&#x17b;" glyph-name="Zdotaccent" horiz-adv-x="658" d="M53 765H613V652L230 128H619V0H36V113L420 638H53V765ZM265 970H402V833H265V970Z" />
<glyph unicode="&#x17c;" glyph-name="zdotaccent" horiz-adv-x="544" d="M54 536H502V433L234 117H507V0H44V104L312 421H54V536ZM209 773H346V636H209V773Z" />
<glyph unicode="&#x17d;" glyph-name="Zcaron" horiz-adv-x="658" d="M152 960H267L333 904H334L398 960H504L396 827H260L152 960ZM53 765H613V652L230 128H619V0H36V113L420 638H53V765Z" />
<glyph unicode="&#x17e;" glyph-name="zcaron" horiz-adv-x="544" d="M99 788H208L277 711H278L344 788H445L335 614H209L99 788ZM54 536H502V433L234 117H507V0H44V104L312 421H54V536Z" />
<glyph unicode="&#x192;" glyph-name="florin" horiz-adv-x="477" d="M215 -189H62L131 348H30V459H145L159 569Q167 635 186 678T234 746T299 782T378 792Q406 792 426 790T451 786V670Q448 671 439 672T411 674Q393 674 378 671T350 656T328 624T315 569L300
459H419V348H286L215 -189Z" />
<glyph unicode="&#x1fa;" glyph-name="Aringacute" horiz-adv-x="761" d="M373 624Q372 621 365 591T343 513L272 290H474L404 512Q396 537 391 557T382 593Q378 611 375 624H373ZM514 170H233L177 0H20L287 765H471L742 0H570L514 170ZM380 1202H538L435 1069H316L380
1202ZM379 797Q317 797 283 830T248 919Q248 974 284 1008T380 1043Q443 1043 477 1009T511 919Q511 864 475 831T379 797ZM379 980Q355 980 341 963T326 919Q326 892 340 875T380 858Q404 858 418 875T432 919Q432 946 419 963T379 980Z" />
<glyph unicode="&#x1fb;" glyph-name="aringacute" horiz-adv-x="584" d="M256 94Q277 94 296 102T329 126T353 168T362 226V243Q299 239 265 233T211 214Q197 205 191 191T185 160Q185 131 204 113T256 94ZM51 377Q56 458 116 503T282 548Q347 548 391 535T463
495T503 428T515 334V149Q515 127 523 118T558 109V-1H505Q447 -1 417 14T374 73H372Q346 35 307 15T210 -6Q125 -6 77 36T28 153Q28 244 109 287Q152 310 213 316T361 327V356Q361 446 282 446Q243 446 224 427T203 377H51ZM297 841Q235 841 201 874T166 964Q166
991 175 1013T202 1052T244 1078T298 1087Q361 1087 395 1053T429 964Q429 908 393 875T297 841ZM297 1024Q273 1024 259 1008T244 963Q244 936 258 920T298 903Q322 903 336 919T350 963Q350 991 337 1007T297 1024ZM306 997H464L361 864H242L306 997Z" />
<glyph unicode="&#x1fc;" glyph-name="AEacute" horiz-adv-x="1093" d="M615 960H773L670 827H551L615 960ZM525 640H478L322 303H525V640ZM182 0H12L384 765H1026V640H690V443H1008V321H690V124H1035V0H525V183H267L182 0Z" />
<glyph unicode="&#x1fd;" glyph-name="aeacute" horiz-adv-x="915" d="M440 788H598L510 614H389L440 788ZM714 328Q709 386 686 418T614 450Q566 450 541 416T511 322H714V328ZM256 94Q277 94 296 102T330 127T354 168T363 226V239Q300 239 265 233T211 214Q197
205 191 191T185 160Q185 130 204 112T256 94ZM871 156Q858 75 794 31T620 -14Q576 -14 542 -6T483 15T440 47T410 87H408Q379 45 331 20T210 -6Q125 -6 77 36T28 153Q28 244 109 287Q152 310 214 316T361 324V356Q361 399 342 422T282 446Q242 446 224 426T203
377H51Q56 458 116 503T284 548Q350 548 388 530T447 480H449Q475 512 517 530T616 549Q685 549 734 528T815 470T860 382T875 273V231H511Q516 157 543 125T621 93Q645 93 661 98T687 112T704 132T714 156H871Z" />
<glyph unicode="&#x1fe;" glyph-name="Oslashacute" horiz-adv-x="822" d="M411 660Q321 660 273 591T224 380Q224 342 227 307T238 243L533 611Q508 637 477 648T411 660ZM411 101Q500 101 549 171T599 380Q599 428 594 465T578 532L278 158Q300 131 332 116T411
101ZM772 380Q772 285 747 212T674 88T560 11T411 -16Q344 -16 289 0T190 47L132 -25H24L129 106Q50 206 50 380Q50 474 76 548T150 672T264 749T411 776Q535 776 621 720L679 793H787L684 664Q727 613 749 543T772 380ZM406 960H564L461 827H342L406 960Z" />
<glyph unicode="&#x1ff;" glyph-name="oslashacute" horiz-adv-x="619" d="M310 445Q278 445 257 432T222 394T203 338T197 268Q197 227 203 194L383 417Q357 445 310 445ZM310 91Q342 91 363 104T398 142T416 198T422 268Q422 288 421 306T417 341L236 119Q262
91 310 91ZM581 268Q581 202 561 150T505 62T419 6T309 -14Q222 -14 159 23L109 -38H15L102 70Q71 106 55 155T38 268Q38 334 57 386T111 474T196 530T310 549Q397 549 460 512L509 572H604L517 464Q548 429 564 380T581 268ZM294 788H452L364 614H243L294 788Z"
/>
<glyph unicode="&#x218;" glyph-name="Scommaaccent" horiz-adv-x="699" d="M275 -63H429L356 -219H251L275 -63ZM467 557Q465 576 458 594T437 626T402 648T353 657Q299 657 269 632T238 565Q238 527 261 504T339 470L455 449Q558 430 607 377T657 238Q657 114
577 49T350 -16Q278 -16 223 0T129 48T69 122T44 219H215Q221 169 255 137T354 104Q422 104 454 134T487 208Q487 248 463 270T378 304L264 326Q220 335 184 352T121 397T81 460T67 542Q67 593 86 635T142 709T232 758T354 776Q427 776 479 759T565 711T616 642T635
557H467Z" />
<glyph unicode="&#x219;" glyph-name="scommaaccent" horiz-adv-x="536" d="M190 193H344L271 37H166L190 193ZM344 387Q342 413 323 430T267 448Q230 448 211 432T192 392Q192 369 205 356T254 338L345 326Q419 316 459 279T500 168Q500 123 483 89T435 32T361
-3T267 -15Q207 -15 164 -2T93 34T50 89T32 156H178Q180 127 200 107T268 87Q306 87 329 102T353 146Q353 170 340 183T289 201L203 213Q128 224 87 262T46 373Q46 408 59 440T100 496T169 534T268 549Q320 549 359 537T426 504T467 452T484 387H344Z" />
<glyph unicode="&#x21a;" glyph-name="uni021A" horiz-adv-x="662" d="M255 193H409L336 37H231L255 193ZM639 636H413V0H249V636H23V765H639V636Z" />
<glyph unicode="&#x21b;" glyph-name="uni021B" horiz-adv-x="401" d="M172 193H326L253 37H148L172 193ZM255 687V536H375V426H257V189Q257 148 273 130T331 111Q338 111 346 111T361 113Q369 114 376 115V-1Q360 -3 332 -5T270 -7Q231 -7 200 2T146 30T112 82T100
159V426H21V535H39Q64 535 80 538T104 554T116 588T119 646V687H255Z" />
<glyph unicode="&#x237;" glyph-name="uni0237" horiz-adv-x="299" d="M-35 -86Q-32 -88 -22 -89T4 -91Q39 -91 55 -74T72 -15V536H231V-16Q231 -71 217 -107T177 -166T116 -197T40 -206Q7 -206 -12 -202T-35 -197V-86Z" />
<glyph unicode="&#x2c6;" glyph-name="circumflex" horiz-adv-x="369" d="M358 614H249L180 691H179L113 614H12L122 788H248L358 614Z" />
<glyph unicode="&#x2c7;" glyph-name="caron" horiz-adv-x="369" d="M12 788H121L190 711H191L257 788H358L248 614H122L12 788Z" />
<glyph unicode="&#x2d8;" glyph-name="breve" horiz-adv-x="369" d="M184 612Q149 612 119 622T67 653T31 708T18 788H123Q123 751 140 733T187 714Q216 714 234 732T252 788H351Q351 741 338 708T303 654T250 622T184 612Z" />
<glyph unicode="&#x2d9;" glyph-name="dotaccent" horiz-adv-x="369" d="M116 773H253V636H116V773Z" />
<glyph unicode="&#x2da;" glyph-name="ring" horiz-adv-x="369" d="M188 602Q126 602 92 635T57 725Q57 752 66 774T93 813T135 839T189 848Q252 848 286 814T320 725Q320 669 284 636T188 602ZM188 785Q164 785 150 769T135 724Q135 697 149 681T189 664Q213
664 227 680T241 724Q241 752 228 768T188 785Z" />
<glyph unicode="&#x2db;" glyph-name="ogonek" horiz-adv-x="369" d="M198 9Q200 8 209 7T231 4Q244 2 262 0Q235 -18 224 -33T212 -64Q212 -81 224 -89T263 -99V-188H234Q154 -188 123 -163T91 -98Q91 -65 117 -36T198 9Z" />
<glyph unicode="&#x2dc;" glyph-name="tilde" horiz-adv-x="369" d="M-5 614Q-5 647 1 677T21 729T57 765T113 778Q136 778 155 770T191 753T223 735T253 727Q267 727 281 737T303 779H374Q374 745 368 715T348 663T312 627T256 614Q233 614 214 622T178 639T146
657T116 665Q102 665 88 655T67 614H-5Z" />
<glyph unicode="&#x2dd;" glyph-name="hungarumlaut" horiz-adv-x="413" d="M260 788H387L301 614H208L260 788ZM83 788H211L138 614H44L83 788Z" />
</font>
</defs>
</svg>
