<?xml version="1.0" standalone="no"?> <!DOCTYPE svg PUBLIC "-//W3C//DTD SVG 1.0//EN" "http://www.w3.org/TR/2001/REC-SVG-20010904/DTD/svg10.dtd" > <svg xmlns="http://www.w3.org/2000/svg" width="100%" height="100%">
<defs >
<font id="AtlasGrotesk-LightItalic" horiz-adv-x="538" ><font-face
    font-family=""
    units-per-em="1000"
    panose-1="0 0 0 0 0 0 0 0 0 0"
    ascent="812"
    descent="-188"
    alphabetic="0" />
<missing-glyph horiz-adv-x="500" />
<glyph unicode=" " glyph-name="space" horiz-adv-x="258" />
<glyph unicode="!" glyph-name="exclam" horiz-adv-x="262" d="M201 788H274L151 210H95L201 788ZM38 0L56 94H149L131 0H38Z" />
<glyph unicode="&quot;" glyph-name="quotedbl" horiz-adv-x="319" d="M288 765H367L311 560H263L288 765ZM141 765H220L165 560H117L141 765Z" />
<glyph unicode="#" glyph-name="numbersign" horiz-adv-x="643" d="M402 362L456 518H311L257 362H402ZM181 308H73L84 362H199L252 518H143L153 574H271L336 765H393L328 574H473L538 765H596L531 574H644L634 518H512L460 362H574L563 308H441L372 99H314L384
308H239L169 99H111L181 308Z" />
<glyph unicode="$" glyph-name="dollar" horiz-adv-x="604" d="M358 696Q324 696 294 686T240 657T203 611T189 548Q189 499 216 470T300 424L305 422L358 696ZM288 44Q324 45 358 56T420 87T463 137T479 209Q479 255 455 285T368 334L343 341L285 44H288ZM549
216Q549 162 528 120T469 48T382 4T275 -12H274L254 -116H201L222 -8Q133 4 81 59T33 213H101Q97 65 233 47L292 356L276 361Q192 386 157 430T121 538Q121 588 140 627T192 694T271 736T369 751L386 839H440L422 747Q506 733 549 678T587 540H521Q523 602 496
640T411 691L356 408L394 397Q480 372 514 328T549 216Z" />
<glyph unicode="%" glyph-name="percent" horiz-adv-x="833" d="M756 781H830L130 -40H57L756 781ZM96 513Q96 553 107 594T141 667T201 720T288 741Q357 741 392 704T427 608Q427 568 416 528T382 455T322 402T235 381Q167 381 132 417T96 513ZM240 431Q274 431
298 449T336 494T357 551T364 607Q364 624 360 639T346 666T321 684T283 691Q249 691 226 674T187 630T165 573T158 515Q158 480 176 456T240 431ZM589 -6Q522 -6 486 30T450 126Q450 166 461 207T496 280T556 332T643 353Q711 353 746 316T781 221Q781 181 770
141T736 68T676 15T589 -6ZM594 44Q629 44 653 62T691 106T712 163T719 220Q719 237 715 252T701 279T676 297T638 304Q603 304 580 287T541 243T520 186T513 128Q513 93 531 69T594 44Z" />
<glyph unicode="&amp;" glyph-name="ampersand" horiz-adv-x="671" d="M600 -3Q550 -3 517 14T455 68Q415 29 363 7T241 -16Q192 -16 154 -2T90 38T50 98T36 173Q36 220 50 255T91 318T157 370T247 421Q236 441 226 460T209 500T197 543T192 594Q192 638 206 673T246
732T306 770T382 783Q456 783 499 742T542 632Q542 587 524 553T475 492T408 444T333 401L426 236L463 171Q488 213 504 263T532 370H596Q581 302 558 238T497 119Q512 99 525 87T554 69T586 60T627 56L616 -3H600ZM268 371Q229 351 199 332T147 290T115 240T104
177Q104 114 141 77T247 39Q304 39 347 59T422 114Q411 131 400 150T376 193L274 374L268 371ZM257 598Q257 560 270 523T307 448Q338 465 368 482T423 520T461 567T476 629Q476 673 451 702T379 731Q321 731 289 693T257 598Z" />
<glyph unicode="&apos;" glyph-name="quotesingle" horiz-adv-x="172" d="M141 765H220L165 560H117L141 765Z" />
<glyph unicode="(" glyph-name="parenleft" horiz-adv-x="299" d="M136 -130Q126 -99 116 -66T99 5T86 85T81 178Q81 262 98 342T145 498T218 647T310 788H368Q317 714 277 640T209 488T165 330T148 163Q148 116 151 76T161 0T176 -67T192 -130H136Z" />
<glyph unicode=")" glyph-name="parenright" horiz-adv-x="299" d="M193 788Q203 757 213 724T231 653T244 573T249 480Q249 396 232 316T185 160T112 11T20 -130H-38Q13 -56 53 18T121 170T165 328T182 495Q182 542 179 582T169 657T155 725T138 788H193Z" />
<glyph unicode="*" glyph-name="asterisk" horiz-adv-x="434" d="M277 567L169 420L116 467L248 588V590L103 626L139 691L267 623L269 625L283 788H355L304 626L306 625L457 695L470 626L312 589L311 587L396 468L334 426L279 567H277Z" />
<glyph unicode="+" glyph-name="plus" horiz-adv-x="615" d="M313 131H251L289 328H98L109 387H301L339 583H401L363 387H555L544 328H351L313 131Z" />
<glyph unicode="," glyph-name="comma" horiz-adv-x="207" d="M48 109H137L15 -117H-37L48 109Z" />
<glyph unicode="-" glyph-name="hyphen" horiz-adv-x="391" d="M82 365H362L350 303H70L82 365Z" />
<glyph unicode="." glyph-name="period" horiz-adv-x="220" d="M41 95H134L116 0H23L41 95Z" />
<glyph unicode="/" glyph-name="slash" horiz-adv-x="551" d="M555 788H625L4 -130H-68L555 788Z" />
<glyph unicode="0" glyph-name="zero" horiz-adv-x="660" d="M83 241Q83 286 90 341T113 453T154 563T216 659T299 726T407 752Q462 752 502 733T569 678T607 595T619 490Q618 444 611 389T588 278T547 169T485 76T401 10T292 -15Q239 -15 200 4T134 57T96 138T83
241ZM298 42Q342 42 377 64T441 122T489 205T522 301T541 399T548 487Q548 524 542 561T519 628T475 676T404 695Q359 695 323 672T259 611T212 525T179 426T160 328T154 244Q154 206 160 170T183 106T227 60T298 42Z" />
<glyph unicode="1" glyph-name="one" horiz-adv-x="414" d="M265 569H115L125 622H164Q196 622 220 628T263 649Q272 657 278 665T290 684T300 709T309 745H367L223 0H154L265 569Z" />
<glyph unicode="2" glyph-name="two" horiz-adv-x="595" d="M121 522Q127 580 148 623T203 694T278 737T368 752Q413 752 450 739T513 702T554 645T569 571Q569 524 555 485T515 412T456 346T384 284L111 63V62H494L483 0H8L19 60L344 328Q378 356 406 383T455
438T487 498T499 567Q498 626 463 660T367 694Q335 694 306 685T252 656T212 602T189 522H121Z" />
<glyph unicode="3" glyph-name="three" horiz-adv-x="608" d="M285 346L297 409H331Q413 410 460 453T508 572Q508 630 469 662T372 694Q340 694 311 685T258 655T219 604T199 528H130Q133 579 152 620T204 691T280 736T374 752Q419 752 456 740T520 704T561 649T576
576Q576 531 563 497T527 439T476 400T417 376V374Q438 368 458 356T494 323T520 276T530 215Q530 164 510 122T456 49T374 1T273 -16Q217 -16 174 -1T101 44T59 114T50 205H118Q116 126 156 85T277 44Q321 44 355 57T413 94T449 148T462 213Q462 276 424 311T320
346H285Z" />
<glyph unicode="4" glyph-name="four" horiz-adv-x="596" d="M382 245L463 649H461Q454 639 445 627Q437 616 426 602T399 571L109 245H382ZM439 187L403 0H336L372 187H24L34 243L475 741H547L451 246H552L541 187H439Z" />
<glyph unicode="5" glyph-name="five" horiz-adv-x="603" d="M469 278Q469 348 433 385T330 423Q279 423 239 403T171 351H110L211 741H580L567 680H257L192 421H194Q214 444 255 463T349 482Q391 482 426 469T487 430T527 369T542 289Q542 226 524 171T470 74T384
9T265 -15Q215 -15 175 0T108 43T68 110T58 199H126Q123 122 162 83T271 43Q311 43 347 59T410 105T453 179T469 278Z" />
<glyph unicode="6" glyph-name="six" horiz-adv-x="624" d="M535 587Q533 638 503 667T419 697Q366 697 324 669T250 594T195 488T161 365H165Q199 419 248 446T358 474Q404 474 441 460T505 419T546 356T560 275Q560 212 540 159T485 67T401 8T294 -14Q237 -14
196 5T129 56T91 132T79 226Q79 277 87 335T113 452T158 565T224 660T311 727T422 752Q507 752 554 709T601 587H535ZM299 43Q344 43 379 62T438 112T475 183T488 264Q488 296 479 323T452 371T406 402T341 414Q296 414 261 396T200 348T162 280T149 203Q149 131
188 87T299 43Z" />
<glyph unicode="7" glyph-name="seven" horiz-adv-x="527" d="M478 678H106L119 741H573L564 694L124 0H48L478 678Z" />
<glyph unicode="8" glyph-name="eight" horiz-adv-x="600" d="M375 752Q416 752 453 740T518 705T563 649T580 572Q580 534 568 502T534 444T483 400T418 375V373Q440 367 460 354T497 321T523 275T533 216Q533 163 512 120T455 47T371 1T269 -16Q223 -16 182
-5T111 31T63 91T45 174Q45 215 59 250T97 312T156 358T232 386V388Q189 405 162 443T135 534Q135 583 154 623T207 692T283 736T375 752ZM372 696Q333 696 302 684T250 649T217 598T205 535Q205 503 216 479T246 439T289 415T340 407Q377 407 408 419T462 452T497
502T510 568Q510 602 498 626T466 666T421 689T372 696ZM273 39Q316 39 351 52T411 89T449 145T463 214Q463 251 449 277T413 319T364 344T309 352Q266 352 231 339T170 302T130 246T116 176Q116 138 130 112T166 70T217 47T273 39Z" />
<glyph unicode="9" glyph-name="nine" horiz-adv-x="626" d="M373 694Q329 694 294 677T235 630T199 563T186 487Q186 419 220 377T331 335Q376 335 410 352T469 397T505 461T518 536Q518 608 479 651T373 694ZM257 -15Q215 -15 180 -4T119 29T79 82T67 154H134Q134
95 170 68T262 40Q349 40 415 124T513 387H510Q477 331 427 303T319 275Q224 275 170 330T116 477Q116 536 135 586T189 673T272 730T379 751Q435 751 475 732T541 678T579 599T591 503Q591 456 584 400T561 286T520 174T457 78T370 11T257 -15Z" />
<glyph unicode=":" glyph-name="colon" horiz-adv-x="247" d="M127 502H221L202 406H109L127 502ZM30 0L48 96H142L124 0H30Z" />
<glyph unicode=";" glyph-name="semicolon" horiz-adv-x="242" d="M121 502H215L197 406H102L121 502ZM-36 -117L48 109H138L15 -117H-36Z" />
<glyph unicode="&lt;" glyph-name="less" horiz-adv-x="598" d="M66 307L76 358L569 578L556 507L150 328L486 149L473 85L66 307Z" />
<glyph unicode="=" glyph-name="equal" horiz-adv-x="632" d="M128 475H577L565 414H117L128 475ZM83 242L95 303H544L532 242H83Z" />
<glyph unicode="&gt;" glyph-name="greater" horiz-adv-x="598" d="M562 350L553 300L60 81L72 152L479 330L143 509L155 572L562 350Z" />
<glyph unicode="?" glyph-name="question" horiz-adv-x="535" d="M229 205L242 277Q247 303 253 320T268 352T294 379T336 409L392 445Q414 459 432 474T463 509T483 551T490 607Q490 668 453 703T350 739Q266 739 222 688T172 547H104Q107 599 124 645T172 724T248
777T354 797Q404 797 442 783T506 743T545 685T559 614Q559 567 547 533T515 472T471 428T423 393L374 361Q354 347 342 338T323 319T312 297T304 266L293 205H229ZM199 94H291L273 0H181L199 94Z" />
<glyph unicode="@" glyph-name="at" horiz-adv-x="1033" d="M738 60Q715 60 694 64T657 80T630 110T616 156H613Q588 107 548 81T457 55Q421 55 393 67T345 102T316 155T305 222Q304 272 318 323T360 416T430 484T528 511Q579 511 609 486T651 420H654L668 495H731L678
228Q667 173 682 142T745 111Q775 111 805 127T858 174T896 254T911 366Q911 435 887 494T817 596T706 663T558 688Q470 688 392 653T256 557T164 413T130 235Q130 151 156 83T229 -32T343 -106T493 -132Q576 -132 646 -107T764 -45L793 -85Q740 -127 664 -155T485
-184Q389 -184 311 -154T179 -69T94 63T64 235Q64 339 101 431T205 591T362 699T560 739Q653 739 729 713T859 638T942 522T972 372Q972 286 949 227T892 130T816 77T738 60ZM471 110Q498 110 522 121T565 153T599 202T620 264L628 301Q634 326 632 353T619 404T585
441T528 456Q489 456 460 435T412 381T382 306T372 226Q372 176 395 143T471 110Z" />
<glyph unicode="A" glyph-name="A" horiz-adv-x="709" d="M438 697Q436 694 423 666T387 596L229 308H502L454 597Q450 617 448 635T444 668Q442 684 440 697H438ZM511 250H198L62 0H-10L409 765H491L624 0H554L511 250Z" />
<glyph unicode="B" glyph-name="B" horiz-adv-x="699" d="M62 0L210 765H459Q556 765 610 720T665 598Q665 554 654 522T622 468T572 431T508 408V406Q569 392 603 349T637 239Q637 179 615 134T554 59T461 15T344 0H62ZM408 437Q449 437 483 444T542 470T580
519T594 594Q594 648 558 677T451 706H269L216 437H408ZM338 59Q388 59 430 69T502 101T548 158T565 245Q565 310 523 343T403 377H205L143 59H338Z" />
<glyph unicode="C" glyph-name="C" horiz-adv-x="749" d="M664 545Q658 632 607 675T473 719Q417 719 372 700T291 649T230 575T188 484T163 386T155 290Q155 236 167 191T207 112T276 61T377 42Q425 42 465 55T535 92T585 149T614 222H683Q672 170 647 127T581
52T489 3T374 -15Q234 -15 159 64T84 294Q84 382 109 468T185 623T309 734T480 777Q531 777 576 763T656 719T710 647T733 545H664Z" />
<glyph unicode="D" glyph-name="D" horiz-adv-x="767" d="M210 765H416Q486 765 544 748T644 695T709 603T733 469Q733 412 723 356T692 247T636 150T555 72T447 19T309 0H62L210 765ZM322 61Q391 61 442 81T532 134T594 210T634 298T655 389T661 472Q661 535
643 579T593 651T515 691T416 704H268L143 61H322Z" />
<glyph unicode="E" glyph-name="E" horiz-adv-x="665" d="M210 765H685L673 702H268L213 420H584L571 359H201L144 63H555L542 0H62L210 765Z" />
<glyph unicode="F" glyph-name="F" horiz-adv-x="602" d="M132 0H62L210 765H648L636 702H268L208 394H543L531 333H196L132 0Z" />
<glyph unicode="G" glyph-name="G" horiz-adv-x="790" d="M669 562Q668 638 619 678T485 719Q424 719 376 699T292 644T229 566T186 473T162 375T154 282Q154 231 166 187T204 111T272 60T371 42Q420 42 464 59T543 107T602 183T637 280L644 315H415L428 378H726L653
0H590L614 127H612Q577 63 513 24T363 -16Q293 -16 241 5T153 66T101 161T83 284Q83 339 93 396T125 509T180 612T258 697T363 755T494 777Q548 777 593 762T670 719T719 651T737 562H669Z" />
<glyph unicode="H" glyph-name="H" horiz-adv-x="777" d="M131 0H61L209 765H279L212 421H628L695 765H765L617 0H547L616 359H200L131 0Z" />
<glyph unicode="I" glyph-name="I" horiz-adv-x="292" d="M211 765H281L133 0H63L211 765Z" />
<glyph unicode="J" glyph-name="J" horiz-adv-x="415" d="M-25 -1L-14 59H29Q84 59 120 68T179 99T215 154T238 236L341 765H411L304 211Q294 161 277 122T228 55T148 14T29 -1H-25Z" />
<glyph unicode="K" glyph-name="K" horiz-adv-x="703" d="M132 0H62L210 765H280L199 348L657 765H749L390 440L630 0H551L337 395L182 257L132 0Z" />
<glyph unicode="L" glyph-name="L" horiz-adv-x="595" d="M210 765H280L144 63H530L518 0H62L210 765Z" />
<glyph unicode="M" glyph-name="M" horiz-adv-x="945" d="M210 765H302L421 176Q424 161 426 146T431 116Q433 100 435 85H437Q445 100 453 116Q460 130 468 145T486 176L833 765H933L785 0H714L844 667H841Q832 651 823 634Q815 620 806 602T785 566L451 0H390L277
564Q273 581 270 599T265 633Q262 651 260 667H258L128 0H62L210 765Z" />
<glyph unicode="N" glyph-name="N" horiz-adv-x="779" d="M210 765H290L542 167Q549 150 553 137T562 114Q566 103 569 95H571L701 765H767L619 0H541L284 610Q278 624 274 636T266 657Q262 667 260 674H258L128 0H62L210 765Z" />
<glyph unicode="O" glyph-name="O" horiz-adv-x="798" d="M83 286Q83 346 95 406T130 520T187 621T264 702T361 756T475 776Q545 776 598 755T688 694T744 598T763 473Q763 389 739 303T665 146T543 30T374 -15Q304 -15 250 6T158 67T102 162T83 286ZM691 475Q691
525 679 569T641 647T572 699T470 719Q416 719 372 699T292 646T231 569T188 476T163 378T155 283Q155 234 167 190T206 113T275 61T378 41Q431 41 475 61T554 115T614 193T657 285T682 382T691 475Z" />
<glyph unicode="P" glyph-name="P" horiz-adv-x="634" d="M190 303L131 0H62L211 765H400Q514 765 577 715T641 567Q641 508 623 459T568 376T478 322T353 303H190ZM354 361Q400 361 439 372T508 408T553 470T570 563Q570 638 524 672T391 706H269L201 361H354Z" />
<glyph unicode="Q" glyph-name="Q" horiz-adv-x="798" d="M373 -13Q302 -13 248 8T158 69T102 163T83 286Q83 346 95 406T130 520T187 621T264 702T361 756T475 776Q545 776 598 755T688 694T744 598T763 473Q763 407 749 344T708 224T645 123T562 49V44Q622 40
660 17T728 -51L671 -92Q653 -67 636 -50T600 -21T558 -6T507 -1Q491 -1 478 -3T450 -7T417 -11T373 -13ZM379 41Q433 41 477 61T556 115T616 193T658 286T683 383T691 475Q691 525 679 569T641 647T572 699T470 719Q416 719 372 699T292 646T231 569T188 476T163
378T155 283Q155 234 167 190T206 113T275 61T379 41Z" />
<glyph unicode="R" glyph-name="R" horiz-adv-x="702" d="M412 385Q497 385 545 435T594 572Q594 641 552 673T435 705H268L206 385H412ZM131 0H62L210 765H432Q484 765 527 755T601 720Q631 697 647 661T664 574Q664 484 617 421T478 336V333L602 0H527L407 326H195L131
0Z" />
<glyph unicode="S" glyph-name="S" horiz-adv-x="682" d="M135 218Q132 126 183 85T329 44Q368 44 405 53T470 83T516 135T534 210Q534 257 510 289T423 341L318 373Q239 397 199 440T158 555Q158 607 178 648T232 717T313 761T414 776Q465 776 508 762T584 719T632
650T646 557H576Q580 634 537 676T408 719Q372 719 340 709T282 678T243 629T228 564Q228 516 253 486T333 440L447 406Q533 380 569 333T606 218Q606 162 585 119T526 45T437 0T328 -16Q271 -16 222 -3T136 38T81 110T65 218H135Z" />
<glyph unicode="T" glyph-name="T" horiz-adv-x="642" d="M307 0H237L373 704H108L120 765H720L708 704H443L307 0Z" />
<glyph unicode="U" glyph-name="U" horiz-adv-x="747" d="M196 765H266L179 318Q173 289 169 261T165 207T168 156T184 113Q205 76 245 60T341 43Q397 43 440 59T518 111Q537 130 549 153T568 202T581 255T592 308L681 765H750L649 244Q623 112 546 49T339 -15Q277
-15 226 0T143 51T99 143T103 282L196 765Z" />
<glyph unicode="V" glyph-name="V" horiz-adv-x="692" d="M130 765H202L295 174Q302 125 304 97Q305 81 305 70H307Q312 82 319 97Q325 110 333 127T355 168L688 765H760L332 0H254L130 765Z" />
<glyph unicode="W" glyph-name="W" horiz-adv-x="1021" d="M194 0L130 765H198L243 187Q246 140 246 114V87H248Q252 98 257 113Q262 126 269 143T286 181L561 765H644L689 188Q692 143 692 115V86H694Q699 99 705 114Q710 127 718 144T735 181L1010 765H1080L716
0H640L595 565Q592 596 591 619T589 658Q588 676 589 688H587Q583 676 576 659Q570 645 561 624T538 573L268 0H194Z" />
<glyph unicode="X" glyph-name="X" horiz-adv-x="708" d="M341 401L175 765H251L390 454H392L651 765H729L422 397L608 0H529L374 343H372L88 0H9L341 401Z" />
<glyph unicode="Y" glyph-name="Y" horiz-adv-x="627" d="M295 340L113 765H189L339 401H341L638 765H715L362 333L298 0H229L295 340Z" />
<glyph unicode="Z" glyph-name="Z" horiz-adv-x="638" d="M166 765H685L675 712L98 61H555L544 0H-2L8 53L584 705H154L166 765Z" />
<glyph unicode="[" glyph-name="bracketleft" horiz-adv-x="335" d="M211 790H411L401 738H265L106 -80H241L231 -132H32L211 790Z" />
<glyph unicode="\" glyph-name="backslash" horiz-adv-x="522" d="M122 788H183L453 -130H390L122 788Z" />
<glyph unicode="]" glyph-name="bracketright" horiz-adv-x="346" d="M155 -132H-44L-34 -80H101L260 738H124L135 790H334L155 -132Z" />
<glyph unicode="^" glyph-name="asciicircum" horiz-adv-x="383" d="M427 506H365L285 721H284L118 506H51L267 788H325L427 506Z" />
<glyph unicode="_" glyph-name="underscore" horiz-adv-x="397" d="M-62 -136H331L321 -189H-72L-62 -136Z" />
<glyph unicode="`" glyph-name="grave" horiz-adv-x="300" d="M192 630H139L47 788H123L192 630Z" />
<glyph unicode="a" glyph-name="a" horiz-adv-x="541" d="M195 48Q222 48 250 60T304 97T348 155T376 234L381 258Q362 258 340 258T294 256T247 251T204 244Q156 233 128 206T100 136Q100 94 124 71T195 48ZM101 385Q108 451 159 494T299 537Q353 537 388 521T443
476T466 412T462 335L420 118Q413 80 422 64T458 50L448 -5H440Q394 -5 373 19T358 96H356Q325 49 284 21T178 -8Q114 -8 72 28T29 133Q29 168 41 195T75 242T127 275T195 296Q239 305 291 306T392 308L397 341Q402 370 400 395T386 440T352 471T293 482Q245 482
211 459T169 385H101Z" />
<glyph unicode="b" glyph-name="b" horiz-adv-x="592" d="M199 788H267L198 434H200Q230 481 274 509T376 537Q458 537 502 485T547 344Q547 284 532 221T486 106T405 21T288 -13Q225 -13 185 16T131 94H128L110 0H46L199 788ZM285 43Q340 43 377 75T436 154T468
251T478 339Q478 408 448 444T357 481Q321 481 290 465T234 423T193 364T170 298L156 226Q150 193 152 161T170 102T213 60T285 43Z" />
<glyph unicode="c" glyph-name="c" horiz-adv-x="519" d="M428 378Q427 431 398 456T318 482Q264 482 226 454T164 384T129 291T117 195Q117 130 148 87T250 42Q287 42 313 54T357 85T384 123T397 161H464Q456 120 436 88T387 34T322 -1T246 -13Q149 -13 98 42T47
192Q47 252 64 313T116 424T203 505T326 537Q361 537 391 528T445 499T481 449T494 378H428Z" />
<glyph unicode="d" glyph-name="d" horiz-adv-x="589" d="M316 481Q262 481 224 452T162 377T127 279T116 180Q116 122 145 83T236 44Q275 44 306 59T362 100T401 156T422 220L437 297Q444 330 442 363T425 422T385 465T316 481ZM447 0H383L400 90H397Q385 69
368 51T329 18T281 -4T224 -13Q187 -13 155 -1T98 35T61 96T47 180Q47 244 63 308T113 423T196 505T312 537Q374 537 411 510T461 437H463L531 788H600L447 0Z" />
<glyph unicode="e" glyph-name="e" horiz-adv-x="534" d="M422 306Q427 342 425 374T410 431T373 469T311 484Q273 484 243 469T191 428T153 369T129 300H421L422 306ZM450 131Q442 101 425 75T382 30T320 -1T238 -13Q145 -13 96 42T46 189Q46 251 62 313T113
425T198 506T318 537Q370 537 406 518T463 465T489 382T485 277L479 246H119Q117 231 116 217T115 189Q115 158 122 132T145 85T186 54T247 42Q308 42 339 68T384 131H450Z" />
<glyph unicode="f" glyph-name="f" horiz-adv-x="338" d="M137 0H69L160 470H60L71 524H171L197 658Q210 725 252 758T360 791Q380 791 395 788T415 783L404 727Q400 728 388 730T356 733Q318 733 295 712T261 640L239 524H368L358 470H228L137 0Z" />
<glyph unicode="g" glyph-name="g" horiz-adv-x="591" d="M437 301Q444 333 442 365T426 423T386 465T317 481Q262 481 224 452T161 379T127 283T116 186Q116 157 122 133T143 92T180 64T235 54Q275 54 307 70T363 110T402 165T423 226L437 301ZM88 -53Q88 -72
94 -89T114 -118T151 -138T207 -146Q240 -146 268 -137T318 -108T358 -54T384 29L397 95H394Q366 55 325 27T220 -1Q182 -1 150 11T95 46T59 105T46 187Q46 250 63 313T113 425T197 506T314 537Q374 537 412 510T464 433H466L484 524H547L451 31Q428 -88 367 -143T201
-199Q116 -199 69 -159T24 -53H88Z" />
<glyph unicode="h" glyph-name="h" horiz-adv-x="581" d="M436 314Q444 354 444 384Q444 425 424 451T352 478Q315 478 285 463T232 421T193 358T169 278L115 0H47L200 788H268L199 435H201Q226 479 270 508T372 537Q418 537 448 522T494 479T513 414T507 331L444
0H376L436 314Z" />
<glyph unicode="i" glyph-name="i" horiz-adv-x="257" d="M186 733H260L245 654H171L186 733ZM148 524H216L115 0H47L148 524Z" />
<glyph unicode="j" glyph-name="j" horiz-adv-x="257" d="M185 733H259L244 654H170L185 733ZM-54 -197Q-76 -197 -90 -193T-109 -187L-98 -132Q-94 -134 -82 -136T-53 -139Q-15 -139 6 -119T36 -53L148 524H216L102 -64Q88 -136 47 -166T-54 -197Z" />
<glyph unicode="k" glyph-name="k" horiz-adv-x="535" d="M115 0H47L200 788H268L165 257L449 524H534L314 321L462 0H386L262 275L148 168L115 0Z" />
<glyph unicode="l" glyph-name="l" horiz-adv-x="257" d="M199 788H267L114 0H46L199 788Z" />
<glyph unicode="m" glyph-name="m" horiz-adv-x="900" d="M756 314Q764 352 764 384Q764 404 760 421T745 451T717 471T673 478Q637 478 607 463T555 422T517 361T494 287L439 0H371L431 314Q435 332 437 349T440 384Q440 424 421 451T349 478Q313 478 283 463T231
421T193 358T169 278L115 0H47L148 524H212L193 428H195Q223 476 266 506T368 537Q431 537 463 505T503 418H505Q537 473 584 505T692 537Q737 537 767 522T813 479T833 414T827 331L763 0H695L756 314Z" />
<glyph unicode="n" glyph-name="n" horiz-adv-x="581" d="M436 314Q444 352 444 384Q444 404 440 421T425 451T397 471T352 478Q315 478 285 463T232 421T193 358T169 278L115 0H47L148 524H212L193 428H195Q223 476 267 506T372 537Q418 537 448 522T494 479T513
414T507 331L444 0H375L436 314Z" />
<glyph unicode="o" glyph-name="o" horiz-adv-x="554" d="M240 -13Q193 -13 157 1T96 42T59 106T46 187Q46 248 62 310T112 423T196 505T316 537Q363 537 399 523T460 482T497 419T510 338Q510 276 494 214T444 101T360 19T240 -13ZM441 341Q441 371 434 397T412
442T373 473T312 484Q258 484 221 454T160 379T126 282T115 183Q115 153 122 128T144 83T183 52T244 41Q299 41 337 72T398 148T431 246T441 341Z" />
<glyph unicode="p" glyph-name="p" horiz-adv-x="592" d="M289 43Q341 43 377 74T435 150T468 246T479 339Q479 405 449 443T356 481Q320 481 289 465T234 424T194 367T172 303L157 230Q151 198 153 165T171 105T214 61T289 43ZM148 524H213L195 431H197Q226 479
271 508T374 537Q457 537 502 485T548 344Q548 283 532 220T484 105T403 20T286 -13Q226 -13 186 17T134 92H133L78 -188H10L148 524Z" />
<glyph unicode="q" glyph-name="q" horiz-adv-x="592" d="M410 -188H341L394 83H392Q380 64 364 47T326 17T278 -5T220 -13Q185 -13 154 -1T99 35T61 96T47 181Q47 245 63 309T113 423T196 505T312 537Q374 537 413 510T463 437H466L483 524H548L410 -188ZM236
43Q275 43 306 58T362 99T401 156T422 220L438 299Q445 332 443 365T426 423T386 465T317 481Q262 481 224 452T162 377T127 280T116 181Q116 152 123 127T146 83T183 54T236 43Z" />
<glyph unicode="r" glyph-name="r" horiz-adv-x="375" d="M148 524H212L191 418H194Q220 469 264 501T374 534H381L368 464H358Q317 464 285 449T230 408T191 349T169 279L115 0H47L148 524Z" />
<glyph unicode="s" glyph-name="s" horiz-adv-x="496" d="M384 395Q385 433 359 458T275 484Q254 484 234 479T196 461T169 431T159 388Q159 353 177 336T235 307L292 291Q330 280 355 267T396 238T418 200T425 153Q425 113 410 82T367 30T303 -2T224 -13Q186
-13 152 -5T91 23T50 74T37 151H102Q99 101 129 71T227 41Q252 41 275 46T317 64T347 96T358 144Q358 173 341 194T272 231L215 247Q158 263 125 292T92 382Q92 419 107 448T147 497T207 527T279 537Q314 537 346 529T401 503T438 459T449 395H384Z" />
<glyph unicode="t" glyph-name="t" horiz-adv-x="355" d="M271 681L240 524H370L359 470H230L166 140Q156 89 169 69T227 49Q247 49 264 52Q274 53 283 55L272 -1Q264 -3 254 -5Q246 -7 235 -8T212 -9Q146 -9 114 25T97 135L162 470H67L77 522H97Q121 522 137
526T165 541T183 575T198 633L208 681H271Z" />
<glyph unicode="u" glyph-name="u" horiz-adv-x="575" d="M150 210Q146 192 143 172T140 132Q140 114 144 99T159 71T187 52T231 45Q268 45 297 61T350 107T389 175T414 260L465 524H534L432 0H368L388 98H385Q356 49 315 18T217 -13Q170 -13 139 2T92 45T72 110T78
193L142 524H210L150 210Z" />
<glyph unicode="v" glyph-name="v" horiz-adv-x="483" d="M74 524H141L193 161Q195 147 196 133T199 107Q201 94 202 81H204Q210 94 216 107Q221 118 228 132T243 160L434 524H503L225 0H152L74 524Z" />
<glyph unicode="w" glyph-name="w" horiz-adv-x="778" d="M77 524H143L175 141Q176 130 176 120T178 101Q179 90 179 81H181L191 101Q196 110 200 120T210 142L399 524H469L509 141Q510 133 510 122T512 102Q513 91 514 80H516Q521 91 525 102Q529 112 533 122T542
142L726 524H793L536 0H464L425 368Q423 381 422 394T420 419Q419 432 419 444H418Q413 432 407 419Q402 408 396 395T383 368L202 0H129L77 524Z" />
<glyph unicode="x" glyph-name="x" horiz-adv-x="479" d="M200 276L82 524H155L248 322H250L417 524H495L280 270L412 0H339L234 224H232L48 0H-32L200 276Z" />
<glyph unicode="y" glyph-name="y" horiz-adv-x="483" d="M75 524H142L194 173Q196 157 197 142T201 115Q203 101 204 89H207L219 113Q224 124 230 137T245 164L430 524H500L197 -47Q174 -90 154 -119T112 -166T65 -191T6 -199Q-18 -199 -35 -195T-56 -188L-44
-132Q-39 -134 -26 -138T6 -142Q28 -142 45 -136T77 -118T103 -88T129 -45L155 5L75 524Z" />
<glyph unicode="z" glyph-name="z" horiz-adv-x="499" d="M117 524H499L488 464L97 58H417L407 0H4L15 60L405 467H106L117 524Z" />
<glyph unicode="{" glyph-name="braceleft" horiz-adv-x="337" d="M43 307L55 367H77Q122 367 143 383T172 444L216 668Q223 704 237 729T276 769T335 789T417 792L407 742Q371 744 348 739T310 722T287 690T274 642L234 439Q230 420 225 403T210 373T184 351T142
337V334Q165 329 177 317T193 288T197 253T191 216L154 32Q148 -1 148 -22T159 -55T190 -74T247 -84L237 -134Q145 -130 109 -96T89 18L129 225Q138 270 123 288T64 307H43Z" />
<glyph unicode="|" glyph-name="bar" horiz-adv-x="280" d="M214 788H273L94 -130H35L214 788Z" />
<glyph unicode="}" glyph-name="braceright" horiz-adv-x="345" d="M324 355L312 295H290Q245 295 224 279T194 218L150 -10Q143 -46 129 -71T90 -111T31 -131T-51 -134L-41 -84Q-5 -86 18 -81T56 -64T79 -31T92 17L130 213Q134 232 139 250T155 284T182 311T224
325V328Q201 333 190 345T174 374T170 409T176 446L212 627Q218 660 218 680T207 714T176 733T119 743L129 792Q221 788 256 754T277 638L237 437Q228 392 243 374T302 355H324Z" />
<glyph unicode="~" glyph-name="asciitilde" horiz-adv-x="382" d="M23 303Q33 357 62 391T145 426Q169 426 187 416T221 392T251 369T283 358Q303 358 319 373T343 427H395Q385 369 354 337T275 304Q251 304 233 314T199 337T168 360T137 371Q116 371 100 356T75
303H23Z" />
<glyph unicode="&#xa0;" glyph-name="uni00A0" horiz-adv-x="258" />
<glyph unicode="&#xa1;" glyph-name="exclamdown" horiz-adv-x="264" d="M91 -126H18L141 452H197L91 -126ZM254 662L236 568H143L161 662H254Z" />
<glyph unicode="&#xa2;" glyph-name="cent" horiz-adv-x="519" d="M464 161Q456 120 436 88T388 34T324 -1T250 -13L230 -116H173L194 -8Q122 6 85 58T47 192Q47 249 62 307T109 415T188 497T300 536L319 635H376L357 535Q386 531 411 520T454 490T483 443T494
378H428Q427 423 406 448T346 480L261 42Q295 44 319 57T359 87T385 125T397 161H464ZM289 480Q243 472 211 442T157 371T127 284T117 195Q117 141 137 102T205 48L289 480Z" />
<glyph unicode="&#xa3;" glyph-name="sterling" horiz-adv-x="607" d="M503 0H32L43 60L101 101Q134 125 156 146T191 193T206 250T200 327H77L88 382H189L176 445Q162 513 173 569T214 666T294 729T408 752Q460 752 499 737T563 693T596 624T596 536H531Q535
569 532 598T513 648T471 682T402 695Q350 695 316 676T262 624T239 550T243 461L257 382H482L471 327H267Q273 281 269 246T251 183T214 132T158 86L126 64V62H514L503 0Z" />
<glyph unicode="&#xa4;" glyph-name="currency" horiz-adv-x="632" d="M139 346Q139 375 147 401T170 448L99 520L142 563L213 491Q235 506 260 514T315 523Q344 523 370 515T418 490L490 563L532 521L459 448Q492 404 492 346Q492 317 484 292T460 244L532 172L490
129L417 202Q374 170 315 170Q257 170 213 202L142 130L99 173L171 244Q156 266 148 291T139 346ZM315 217Q342 217 364 227T403 254T429 295T439 346Q439 374 430 397T404 438T365 466T315 476Q289 476 266 466T227 439T201 398T191 346Q191 319 200 295T226 254T266
227T315 217Z" />
<glyph unicode="&#xa5;" glyph-name="yen" horiz-adv-x="602" d="M243 183H37L49 237H254L273 334H65L76 389H265L114 741H188L319 421H321L579 741H658L370 389H555L544 334H340L321 237H528L517 183H310L275 0H208L243 183Z" />
<glyph unicode="&#xa6;" glyph-name="brokenbar" horiz-adv-x="280" d="M195 388H136L214 788H273L195 388ZM35 -130L122 316H180L94 -130H35Z" />
<glyph unicode="&#xa7;" glyph-name="section" horiz-adv-x="534" d="M232 453Q212 450 193 442T160 422T137 392T128 353Q128 322 141 303T187 263L293 198Q298 195 310 187T325 176Q368 181 398 207T428 277Q428 303 417 324T370 367L265 431Q255 437 248 442T232
453ZM65 344Q65 401 99 439T193 492V494Q181 511 174 531T166 581Q166 618 180 648T219 700T279 734T354 746Q392 746 423 734T475 701T507 650T515 586H451Q453 631 429 661T346 692Q297 692 264 664T230 586Q230 553 244 533T290 492L396 427Q450 394 471 362T493
286Q493 230 461 192T365 137V135Q392 100 392 53Q392 18 379 -12T340 -65T278 -101T195 -115Q155 -115 122 -104T66 -71T31 -17T21 56H85Q84 30 90 9T110 -28T147 -52T204 -61Q258 -61 292 -31T327 45Q327 78 313 98T268 137L166 199Q115 230 90 262T65 344Z"
/>
<glyph unicode="&#xa8;" glyph-name="dieresis" horiz-adv-x="362" d="M329 734H407L390 650H313L329 734ZM141 734H218L202 650H124L141 734Z" />
<glyph unicode="&#xa9;" glyph-name="copyright" horiz-adv-x="906" d="M74 380Q75 464 106 536T192 662T318 746T476 777Q561 777 632 747T755 663T835 537T863 380Q861 296 830 224T745 98T619 15T461 -16Q376 -16 305 14T181 98T101 223T74 380ZM461 28Q534
28 597 55T707 129T781 241T810 380Q812 455 788 519T718 631T611 706T475 733Q401 733 338 706T229 632T155 520T127 380Q125 305 149 241T218 130T325 55T461 28ZM583 474Q583 513 560 531T498 550Q456 550 426 529T378 476T351 406T342 332Q342 283 365 251T444
218Q472 218 492 227T527 249T548 278T559 307H615Q602 244 556 208T441 171Q365 171 324 214T282 331Q282 379 296 426T338 512T407 573T504 597Q564 597 601 567T636 474H583Z" />
<glyph unicode="&#xaa;" glyph-name="ordfeminine" horiz-adv-x="449" d="M211 361Q232 361 254 370T296 397T331 442T354 506L357 523Q309 523 268 519T199 503Q140 480 140 426Q140 361 211 361ZM133 626Q141 682 184 717T297 752Q340 752 369 740T414 707T435
655T433 590L399 415Q394 387 400 375T429 364L419 313H410Q367 312 349 331T336 393H335Q310 355 274 333T192 310Q135 310 104 340T73 418Q73 512 180 547Q215 559 262 563T367 568L371 593Q380 643 363 673T291 703Q252 703 226 683T195 626H133Z" />
<glyph unicode="&#xab;" glyph-name="guillemotleft" horiz-adv-x="507" d="M479 464L324 257L395 57H330L256 264L407 464H479ZM286 464L133 257L203 57H138L64 264L215 464H286Z" />
<glyph unicode="&#xac;" glyph-name="logicalnot" horiz-adv-x="615" d="M97 388H545L495 131H433L471 327H86L97 388Z" />
<glyph unicode="&#xae;" glyph-name="registered" horiz-adv-x="500" d="M88 557Q89 603 107 643T155 712T226 759T313 776Q361 776 400 759T466 713T508 643T521 557Q519 511 501 471T453 402T382 356T294 339Q246 339 208 356T142 402T100 471T88 557ZM296 374Q334
374 367 388T424 426T463 484T480 557Q481 596 469 630T435 688T381 727T311 741Q273 741 241 727T184 689T145 630T129 557Q127 518 138 485T172 427T226 388T296 374ZM317 577Q334 577 346 586T359 616Q359 631 350 638T323 645H286L273 577H317ZM248 452H208L252
677H328Q358 677 379 662T399 617Q399 587 383 572T344 550L377 452H333L304 544H266L248 452Z" />
<glyph unicode="&#xaf;" glyph-name="macron" horiz-adv-x="330" d="M113 711H384L373 654H102L113 711Z" />
<glyph unicode="&#xb0;" glyph-name="degree" horiz-adv-x="452" d="M129 594Q129 628 141 658T174 709T225 743T290 756Q325 756 355 744T406 710T440 658T452 594Q452 559 440 530T407 479T355 445T290 433Q255 433 226 445T175 479T141 530T129 594ZM290 478Q338
478 367 510T397 594Q397 645 368 678T290 711Q242 711 213 678T184 594Q184 543 213 511T290 478Z" />
<glyph unicode="&#xb1;" glyph-name="plusminus" horiz-adv-x="628" d="M326 145H264L302 341H110L121 400H313L351 596H414L376 400H568L557 341H364L326 145ZM55 59H502L491 0H44L55 59Z" />
<glyph unicode="&#xb2;" glyph-name="twosuperior" horiz-adv-x="387" d="M133 678Q139 749 184 785T294 821Q351 821 386 794T422 714Q422 687 413 664T389 620T351 580T301 540L163 435V434H382L373 385H66L73 427L263 575Q305 608 333 637T361 709Q360 738
342 756T289 774Q254 774 226 754T191 678H133Z" />
<glyph unicode="&#xb3;" glyph-name="threesuperior" horiz-adv-x="396" d="M222 580L231 627H275Q318 627 344 649T370 709Q370 740 348 757T292 774Q256 774 229 755T197 691H138Q142 748 184 784T295 821Q355 821 392 793T429 713Q429 668 401 641T334 602V600Q363
592 383 570T403 508Q403 478 391 454T356 412T303 386T238 376Q168 376 129 409T93 506H150Q152 466 174 444T242 422Q291 422 317 448T344 510Q344 541 325 560T268 580H222Z" />
<glyph unicode="&#xb4;" glyph-name="acute" horiz-adv-x="362" d="M282 788H359L251 630H197L282 788Z" />
<glyph unicode="&#xb6;" glyph-name="paragraph" horiz-adv-x="516" d="M516 765L368 0H304L452 765H516ZM239 417Q204 418 176 429T128 460T96 507T85 569Q85 611 100 647T144 709T212 750T300 765H370L222 0H159L239 417Z" />
<glyph unicode="&#xb7;" glyph-name="periodcentered" horiz-adv-x="273" d="M102 349H195L177 254H84L102 349Z" />
<glyph unicode="&#xb8;" glyph-name="cedilla" horiz-adv-x="502" d="M232 18L181 -62H183Q196 -53 220 -53Q245 -53 260 -68T275 -113Q275 -130 269 -146T251 -175T221 -195T178 -203Q148 -203 126 -188T106 -140H156Q157 -151 163 -157T184 -164Q201 -164 212
-152T224 -119Q224 -88 195 -88Q185 -88 179 -91T166 -99H117L189 18H232Z" />
<glyph unicode="&#xb9;" glyph-name="onesuperior" horiz-adv-x="271" d="M208 693H120L128 738H143Q187 738 208 756Q230 774 240 815H291L205 385H146L208 693Z" />
<glyph unicode="&#xba;" glyph-name="ordmasculine" horiz-adv-x="428" d="M234 307Q194 307 164 319T113 353T83 404T72 469Q72 518 85 568T126 660T195 726T294 752Q335 752 365 740T416 706T446 654T456 589Q456 540 443 490T402 399T333 333T234 307ZM392
592Q392 614 387 634T370 669T339 694T291 703Q249 703 220 680T173 621T147 545T138 467Q138 445 143 425T160 390T191 366T238 357Q282 357 311 381T359 442T384 518T392 592Z" />
<glyph unicode="&#xbb;" glyph-name="guillemotright" horiz-adv-x="507" d="M36 57L192 266L121 464H187L261 258L108 57H36ZM229 57L383 266L313 464H378L453 258L300 57H229Z" />
<glyph unicode="&#xbc;" glyph-name="onequarter" horiz-adv-x="789" d="M198 643H110L118 688H133Q177 688 198 706Q220 724 230 765H281L195 335H136L198 643ZM627 151L672 372H671Q667 365 660 355Q654 347 645 336T624 311L473 151H627ZM673 104L652 1H595L616
104H401L409 149L672 431H738L682 152H742L733 104H673ZM711 785H779L82 -40H13L711 785Z" />
<glyph unicode="&#xbd;" glyph-name="onehalf" horiz-adv-x="857" d="M198 643H110L118 688H133Q177 688 198 706Q220 724 230 765H281L195 335H136L198 643ZM527 294Q533 365 578 401T688 437Q745 437 780 410T816 330Q816 303 807 280T783 236T745 196T695 156L557
51V50H776L767 1H460L467 43L657 191Q699 224 727 253T755 325Q754 354 736 372T683 390Q648 390 620 370T585 294H527ZM711 785H779L82 -40H13L711 785Z" />
<glyph unicode="&#xbe;" glyph-name="threequarters" horiz-adv-x="875" d="M212 530L221 577H265Q308 577 334 599T360 659Q360 690 338 707T282 724Q246 724 219 705T187 641H128Q132 698 174 734T285 771Q345 771 382 743T419 663Q419 618 391 591T324 552V550Q353
542 373 520T393 458Q393 428 381 404T346 362T293 336T228 326Q158 326 119 359T83 456H140Q142 416 164 394T232 372Q281 372 307 398T334 460Q334 491 315 510T258 530H212ZM714 151L759 372H758Q754 365 747 355Q741 347 732 336T711 311L560 151H714ZM760
104L739 1H682L703 104H488L496 149L759 431H825L769 152H829L820 104H760ZM813 785H881L184 -40H115L813 785Z" />
<glyph unicode="&#xbf;" glyph-name="questiondown" horiz-adv-x="535" d="M327 457L314 385Q309 359 303 342T288 310T262 283T220 253L164 217Q142 203 124 188T93 153T73 111T66 55Q66 -6 103 -41T206 -77Q290 -77 334 -26T384 115H452Q449 63 432 17T384 -62T308
-115T202 -135Q152 -135 114 -121T50 -81T11 -23T-3 48Q-3 95 9 129T41 190T85 234T133 269L182 301Q202 315 214 324T233 343T244 365T252 396L263 457H327ZM357 568H265L283 662H375L357 568Z" />
<glyph unicode="&#xc0;" glyph-name="Agrave" horiz-adv-x="709" d="M438 697Q436 694 423 666T387 596L229 308H502L454 597Q450 617 448 635T444 668Q442 684 440 697H438ZM511 250H198L62 0H-10L409 765H491L624 0H554L511 250ZM494 827H439L367 960H440L494 827Z" />
<glyph unicode="&#xc1;" glyph-name="Aacute" horiz-adv-x="709" d="M438 697Q436 694 423 666T387 596L229 308H502L454 597Q450 617 448 635T444 668Q442 684 440 697H438ZM511 250H198L62 0H-10L409 765H491L624 0H554L511 250ZM521 960H601L486 827H430L521 960Z" />
<glyph unicode="&#xc2;" glyph-name="Acircumflex" horiz-adv-x="709" d="M438 697Q436 694 423 666T387 596L229 308H502L454 597Q450 617 448 635T444 668Q442 684 440 697H438ZM511 250H198L62 0H-10L409 765H491L624 0H554L511 250ZM596 827H539L475 913H474L379
827H316L443 960H513L596 827Z" />
<glyph unicode="&#xc3;" glyph-name="Atilde" horiz-adv-x="709" d="M438 697Q436 694 423 666T387 596L229 308H502L454 597Q450 617 448 635T444 668Q442 684 440 697H438ZM511 250H198L62 0H-10L409 765H491L624 0H554L511 250ZM299 828Q302 851 309 873T329
912T363 940T411 951Q436 951 454 941T488 918T518 896T547 885Q571 885 583 903T601 954H654Q652 931 645 909T624 869T590 841T543 830Q518 830 500 840T465 863T435 885T406 896Q384 896 371 878T352 828H299Z" />
<glyph unicode="&#xc4;" glyph-name="Adieresis" horiz-adv-x="709" d="M438 697Q436 694 423 666T387 596L229 308H502L454 597Q450 617 448 635T444 668Q442 684 440 697H438ZM511 250H198L62 0H-10L409 765H491L624 0H554L511 250ZM546 904H623L606 820H530L546
904ZM334 904H411L395 820H318L334 904Z" />
<glyph unicode="&#xc5;" glyph-name="Aring" horiz-adv-x="709" d="M438 697Q436 694 423 666T387 596L229 308H502L454 597Q450 617 448 635T444 668Q442 684 440 697H438ZM511 250H198L62 0H-10L409 765H491L624 0H554L511 250ZM466 814Q421 814 396 840T370
907Q370 955 399 985T477 1015Q525 1015 550 989T576 921Q576 872 546 843T466 814ZM476 977Q450 977 435 958T419 908Q419 883 432 868T470 852Q495 852 511 870T528 920Q528 943 515 960T476 977Z" />
<glyph unicode="&#xc6;" glyph-name="AE" horiz-adv-x="1022" d="M554 702H474Q460 678 448 655T428 620L236 308H478L554 702ZM467 250H200L45 -1L-30 0L442 765H1042L1030 702H624L570 420H940L928 359H558L501 63H911L899 0H419L467 250Z" />
<glyph unicode="&#xc7;" glyph-name="Ccedilla" horiz-adv-x="749" d="M322 -203Q292 -203 270 -188T250 -140H300Q301 -151 307 -157T328 -164Q345 -164 356 -152T368 -119Q368 -88 339 -88Q329 -88 323 -91T310 -99H261L315 -11Q203 6 144 83T84 294Q84 382
109 468T185 623T309 734T480 777Q531 777 576 763T656 719T710 647T733 545H664Q658 632 607 675T473 719Q417 719 372 700T291 649T230 575T188 484T163 386T155 290Q155 236 167 191T207 112T276 61T377 42Q425 42 465 55T535 92T585 149T614 222H683Q672 170
647 127T581 52T489 3T374 -15H355L325 -62H327Q340 -53 364 -53Q389 -53 404 -68T419 -113Q419 -130 413 -146T395 -175T365 -195T322 -203Z" />
<glyph unicode="&#xc8;" glyph-name="Egrave" horiz-adv-x="665" d="M493 827H438L366 960H439L493 827ZM210 765H685L673 702H268L213 420H584L571 359H201L144 63H555L542 0H62L210 765Z" />
<glyph unicode="&#xc9;" glyph-name="Eacute" horiz-adv-x="665" d="M519 960H599L484 827H428L519 960ZM210 765H685L673 702H268L213 420H584L571 359H201L144 63H555L542 0H62L210 765Z" />
<glyph unicode="&#xca;" glyph-name="Ecircumflex" horiz-adv-x="665" d="M600 827H543L479 913H478L383 827H320L447 960H517L600 827ZM210 765H685L673 702H268L213 420H584L571 359H201L144 63H555L542 0H62L210 765Z" />
<glyph unicode="&#xcb;" glyph-name="Edieresis" horiz-adv-x="665" d="M210 765H685L673 702H268L213 420H584L571 359H201L144 63H555L542 0H62L210 765ZM544 904H621L604 820H528L544 904ZM332 904H409L393 820H316L332 904Z" />
<glyph unicode="&#xcc;" glyph-name="Igrave" horiz-adv-x="292" d="M211 765H281L133 0H63L211 765ZM289 827H234L162 960H235L289 827Z" />
<glyph unicode="&#xcd;" glyph-name="Iacute" horiz-adv-x="292" d="M211 765H281L133 0H63L211 765ZM316 960H396L281 827H225L316 960Z" />
<glyph unicode="&#xce;" glyph-name="Icircumflex" horiz-adv-x="292" d="M211 765H281L133 0H63L211 765ZM396 827H339L275 913H274L179 827H116L243 960H313L396 827Z" />
<glyph unicode="&#xcf;" glyph-name="Idieresis" horiz-adv-x="292" d="M211 765H281L133 0H63L211 765ZM341 904H418L401 820H325L341 904ZM129 904H206L190 820H113L129 904Z" />
<glyph unicode="&#xd0;" glyph-name="Eth" horiz-adv-x="775" d="M70 0L140 360H53L65 420H151L218 765H424Q494 765 552 748T652 695T717 603T741 469Q741 412 731 356T700 247T644 150T563 72T455 19T317 0H70ZM330 61Q399 61 450 81T540 134T602 210T642 298T663
389T669 472Q669 535 651 579T601 651T523 691T424 704H276L221 420H448L437 360H209L151 61H330Z" />
<glyph unicode="&#xd1;" glyph-name="Ntilde" horiz-adv-x="779" d="M336 828Q339 851 346 873T366 912T400 940T448 951Q473 951 491 941T525 918T555 896T584 885Q608 885 620 903T638 954H691Q689 931 682 909T661 869T627 841T580 830Q555 830 537 840T502
863T472 885T443 896Q421 896 408 878T389 828H336ZM210 765H290L542 167Q549 150 553 137T562 114Q566 103 569 95H571L701 765H767L619 0H541L284 610Q278 624 274 636T266 657Q262 667 260 674H258L128 0H62L210 765Z" />
<glyph unicode="&#xd2;" glyph-name="Ograve" horiz-adv-x="798" d="M537 827H482L410 960H483L537 827ZM83 286Q83 346 95 406T130 520T187 621T264 702T361 756T475 776Q545 776 598 755T688 694T744 598T763 473Q763 389 739 303T665 146T543 30T374 -15Q304
-15 250 6T158 67T102 162T83 286ZM691 475Q691 525 679 569T641 647T572 699T470 719Q416 719 372 699T292 646T231 569T188 476T163 378T155 283Q155 234 167 190T206 113T275 61T378 41Q431 41 475 61T554 115T614 193T657 285T682 382T691 475Z" />
<glyph unicode="&#xd3;" glyph-name="Oacute" horiz-adv-x="798" d="M564 960H644L529 827H473L564 960ZM83 286Q83 346 95 406T130 520T187 621T264 702T361 756T475 776Q545 776 598 755T688 694T744 598T763 473Q763 389 739 303T665 146T543 30T374 -15Q304
-15 250 6T158 67T102 162T83 286ZM691 475Q691 525 679 569T641 647T572 699T470 719Q416 719 372 699T292 646T231 569T188 476T163 378T155 283Q155 234 167 190T206 113T275 61T378 41Q431 41 475 61T554 115T614 193T657 285T682 382T691 475Z" />
<glyph unicode="&#xd4;" glyph-name="Ocircumflex" horiz-adv-x="798" d="M645 827H588L524 913H523L428 827H365L492 960H562L645 827ZM83 286Q83 346 95 406T130 520T187 621T264 702T361 756T475 776Q545 776 598 755T688 694T744 598T763 473Q763 389 739
303T665 146T543 30T374 -15Q304 -15 250 6T158 67T102 162T83 286ZM691 475Q691 525 679 569T641 647T572 699T470 719Q416 719 372 699T292 646T231 569T188 476T163 378T155 283Q155 234 167 190T206 113T275 61T378 41Q431 41 475 61T554 115T614 193T657 285T682
382T691 475Z" />
<glyph unicode="&#xd5;" glyph-name="Otilde" horiz-adv-x="798" d="M338 828Q341 851 348 873T368 912T402 940T450 951Q475 951 493 941T527 918T557 896T586 885Q610 885 622 903T640 954H693Q691 931 684 909T663 869T629 841T582 830Q557 830 539 840T504
863T474 885T445 896Q423 896 410 878T391 828H338ZM83 286Q83 346 95 406T130 520T187 621T264 702T361 756T475 776Q545 776 598 755T688 694T744 598T763 473Q763 389 739 303T665 146T543 30T374 -15Q304 -15 250 6T158 67T102 162T83 286ZM691 475Q691 525
679 569T641 647T572 699T470 719Q416 719 372 699T292 646T231 569T188 476T163 378T155 283Q155 234 167 190T206 113T275 61T378 41Q431 41 475 61T554 115T614 193T657 285T682 382T691 475Z" />
<glyph unicode="&#xd6;" glyph-name="Odieresis" horiz-adv-x="798" d="M588 904H665L648 820H572L588 904ZM376 904H453L437 820H360L376 904ZM83 286Q83 346 95 406T130 520T187 621T264 702T361 756T475 776Q545 776 598 755T688 694T744 598T763 473Q763 389
739 303T665 146T543 30T374 -15Q304 -15 250 6T158 67T102 162T83 286ZM691 475Q691 525 679 569T641 647T572 699T470 719Q416 719 372 699T292 646T231 569T188 476T163 378T155 283Q155 234 167 190T206 113T275 61T378 41Q431 41 475 61T554 115T614 193T657
285T682 382T691 475Z" />
<glyph unicode="&#xd7;" glyph-name="multiply" horiz-adv-x="629" d="M99 189L293 356L161 524L208 564L339 395L535 565L573 519L375 351L510 180L462 139L331 311L135 143L99 189Z" />
<glyph unicode="&#xd8;" glyph-name="Oslash" horiz-adv-x="798" d="M470 719Q416 719 372 699T292 646T231 569T188 476T163 378T155 283Q155 246 160 213T178 152L629 666Q603 691 564 705T470 719ZM378 41Q431 41 475 61T554 115T614 193T657 285T682 382T691
475Q691 517 685 554T662 622L208 104Q234 74 276 58T378 41ZM763 473Q763 389 739 303T665 146T543 30T374 -15Q308 -15 257 4T168 59L95 -25H23L133 101Q108 138 96 185T83 286Q83 346 95 406T130 520T187 621T264 702T361 756T475 776Q535 776 584 760T669 712L738
791H810L706 672Q734 634 748 584T763 473Z" />
<glyph unicode="&#xd9;" glyph-name="Ugrave" horiz-adv-x="747" d="M507 827H452L380 960H453L507 827ZM196 765H266L179 318Q173 289 169 261T165 207T168 156T184 113Q205 76 245 60T341 43Q397 43 440 59T518 111Q537 130 549 153T568 202T581 255T592 308L681
765H750L649 244Q623 112 546 49T339 -15Q277 -15 226 0T143 51T99 143T103 282L196 765Z" />
<glyph unicode="&#xda;" glyph-name="Uacute" horiz-adv-x="747" d="M534 960H614L499 827H443L534 960ZM196 765H266L179 318Q173 289 169 261T165 207T168 156T184 113Q205 76 245 60T341 43Q397 43 440 59T518 111Q537 130 549 153T568 202T581 255T592 308L681
765H750L649 244Q623 112 546 49T339 -15Q277 -15 226 0T143 51T99 143T103 282L196 765Z" />
<glyph unicode="&#xdb;" glyph-name="Ucircumflex" horiz-adv-x="747" d="M615 827H558L494 913H493L398 827H335L462 960H532L615 827ZM196 765H266L179 318Q173 289 169 261T165 207T168 156T184 113Q205 76 245 60T341 43Q397 43 440 59T518 111Q537 130 549
153T568 202T581 255T592 308L681 765H750L649 244Q623 112 546 49T339 -15Q277 -15 226 0T143 51T99 143T103 282L196 765Z" />
<glyph unicode="&#xdc;" glyph-name="Udieresis" horiz-adv-x="747" d="M196 765H266L179 318Q173 289 169 261T165 207T168 156T184 113Q205 76 245 60T341 43Q397 43 440 59T518 111Q537 130 549 153T568 202T581 255T592 308L681 765H750L649 244Q623 112 546
49T339 -15Q277 -15 226 0T143 51T99 143T103 282L196 765ZM558 904H635L618 820H542L558 904ZM346 904H423L407 820H330L346 904Z" />
<glyph unicode="&#xdd;" glyph-name="Yacute" horiz-adv-x="627" d="M295 340L113 765H189L339 401H341L638 765H715L362 333L298 0H229L295 340ZM483 960H563L448 827H392L483 960Z" />
<glyph unicode="&#xde;" glyph-name="Thorn" horiz-adv-x="612" d="M166 174L132 0H62L210 765H280L249 606H361Q470 606 530 558T590 421Q590 366 573 321T522 243T438 192T320 174H166ZM328 233Q369 234 404 244T466 277T506 333T521 417Q521 484 479 515T357
547H238L177 233H328Z" />
<glyph unicode="&#xdf;" glyph-name="germandbls" horiz-adv-x="591" d="M156 585Q166 638 186 675T235 737T299 772T372 783Q409 783 441 772T497 739T533 685T547 612Q547 540 511 490T406 418V416Q431 409 452 396T490 362T516 313T526 247Q526 190 506 145T450
67T364 17T253 0H203L214 59H248Q294 59 332 71T397 106T440 164T456 244Q456 306 420 346T311 386H296L307 445H321Q358 445 387 458T436 493T466 546T477 609Q477 666 447 696T365 726Q311 726 274 691T222 581L111 0H43L156 585Z" />
<glyph unicode="&#xe0;" glyph-name="agrave" horiz-adv-x="541" d="M195 48Q222 48 250 60T304 97T348 155T376 234L381 258Q362 258 340 258T294 256T247 251T204 244Q156 233 128 206T100 136Q100 94 124 71T195 48ZM101 385Q108 451 159 494T299 537Q353 537
388 521T443 476T466 412T462 335L420 118Q413 80 422 64T458 50L448 -5H440Q394 -5 373 19T358 96H356Q325 49 284 21T178 -8Q114 -8 72 28T29 133Q29 168 41 195T75 242T127 275T195 296Q239 305 291 306T392 308L397 341Q402 370 400 395T386 440T352 471T293
482Q245 482 211 459T169 385H101ZM349 630H296L204 788H280L349 630Z" />
<glyph unicode="&#xe1;" glyph-name="aacute" horiz-adv-x="541" d="M195 48Q222 48 250 60T304 97T348 155T376 234L381 258Q362 258 340 258T294 256T247 251T204 244Q156 233 128 206T100 136Q100 94 124 71T195 48ZM101 385Q108 451 159 494T299 537Q353 537
388 521T443 476T466 412T462 335L420 118Q413 80 422 64T458 50L448 -5H440Q394 -5 373 19T358 96H356Q325 49 284 21T178 -8Q114 -8 72 28T29 133Q29 168 41 195T75 242T127 275T195 296Q239 305 291 306T392 308L397 341Q402 370 400 395T386 440T352 471T293
482Q245 482 211 459T169 385H101ZM377 788H454L346 630H292L377 788Z" />
<glyph unicode="&#xe2;" glyph-name="acircumflex" horiz-adv-x="541" d="M195 48Q222 48 250 60T304 97T348 155T376 234L381 258Q362 258 340 258T294 256T247 251T204 244Q156 233 128 206T100 136Q100 94 124 71T195 48ZM101 385Q108 451 159 494T299 537Q353
537 388 521T443 476T466 412T462 335L420 118Q413 80 422 64T458 50L448 -5H440Q394 -5 373 19T358 96H356Q325 49 284 21T178 -8Q114 -8 72 28T29 133Q29 168 41 195T75 242T127 275T195 296Q239 305 291 306T392 308L397 341Q402 370 400 395T386 440T352 471T293
482Q245 482 211 459T169 385H101ZM451 630H393L343 740L256 630H193L316 788H384L451 630Z" />
<glyph unicode="&#xe3;" glyph-name="atilde" horiz-adv-x="541" d="M195 48Q222 48 250 60T304 97T348 155T376 234L381 258Q362 258 340 258T294 256T247 251T204 244Q156 233 128 206T100 136Q100 94 124 71T195 48ZM101 385Q108 451 159 494T299 537Q353 537
388 521T443 476T466 412T462 335L420 118Q413 80 422 64T458 50L448 -5H440Q394 -5 373 19T358 96H356Q325 49 284 21T178 -8Q114 -8 72 28T29 133Q29 168 41 195T75 242T127 275T195 296Q239 305 291 306T392 308L397 341Q402 370 400 395T386 440T352 471T293
482Q245 482 211 459T169 385H101ZM160 628Q162 652 168 674T187 714T219 742T267 752Q291 752 309 742T344 719T376 696T406 685Q429 685 440 703T455 754H507Q505 730 499 708T480 668T448 640T400 630Q376 630 357 640T322 663T291 686T261 697Q238 697 227
679T211 628H160Z" />
<glyph unicode="&#xe4;" glyph-name="adieresis" horiz-adv-x="541" d="M195 48Q222 48 250 60T304 97T348 155T376 234L381 258Q362 258 340 258T294 256T247 251T204 244Q156 233 128 206T100 136Q100 94 124 71T195 48ZM101 385Q108 451 159 494T299 537Q353
537 388 521T443 476T466 412T462 335L420 118Q413 80 422 64T458 50L448 -5H440Q394 -5 373 19T358 96H356Q325 49 284 21T178 -8Q114 -8 72 28T29 133Q29 168 41 195T75 242T127 275T195 296Q239 305 291 306T392 308L397 341Q402 370 400 395T386 440T352 471T293
482Q245 482 211 459T169 385H101ZM397 734H475L458 650H381L397 734ZM209 734H286L270 650H192L209 734Z" />
<glyph unicode="&#xe5;" glyph-name="aring" horiz-adv-x="541" d="M195 48Q222 48 250 60T304 97T348 155T376 234L381 258Q362 258 340 258T294 256T247 251T204 244Q156 233 128 206T100 136Q100 94 124 71T195 48ZM101 385Q108 451 159 494T299 537Q353 537
388 521T443 476T466 412T462 335L420 118Q413 80 422 64T458 50L448 -5H440Q394 -5 373 19T358 96H356Q325 49 284 21T178 -8Q114 -8 72 28T29 133Q29 168 41 195T75 242T127 275T195 296Q239 305 291 306T392 308L397 341Q402 370 400 395T386 440T352 471T293
482Q245 482 211 459T169 385H101ZM335 632Q290 633 265 659T239 726Q239 774 268 804T346 834Q393 834 418 808T444 740Q444 690 414 661T335 632ZM345 796Q318 796 303 777T287 727Q287 702 300 687T339 671Q364 671 380 689T396 739Q396 762 384 778T345 796Z"
/>
<glyph unicode="&#xe6;" glyph-name="ae" horiz-adv-x="854" d="M743 309Q747 343 745 375T731 431T695 469T633 484Q595 484 566 467T515 424T479 366T456 303H742L743 309ZM196 47Q226 47 254 59T307 95T349 154T376 234L381 258Q362 258 340 258T294 256T247
251T203 244Q155 234 128 206T100 136Q100 94 124 71T196 47ZM769 131Q761 101 745 75T702 30T639 -1T558 -13Q480 -13 438 21T385 112H382Q363 86 342 64T297 26T242 1T175 -8Q109 -8 69 28T29 131Q29 203 74 241T195 296Q239 306 291 307T392 308L398 348Q402
376 400 400T385 443T351 471T293 482Q245 482 210 459T168 385H100Q107 451 158 494T298 537Q367 537 403 510T453 435H456Q491 481 536 509T639 537Q698 537 734 514T790 455T812 375T806 286L799 250H445Q432 148 460 95T566 41Q597 41 620 48T659 67T686 96T704
131H769Z" />
<glyph unicode="&#xe7;" glyph-name="ccedilla" horiz-adv-x="519" d="M200 -203Q170 -203 148 -188T128 -140H178Q179 -151 185 -157T206 -164Q223 -164 234 -152T246 -119Q246 -88 217 -88Q207 -88 201 -91T188 -99H139L195 -8Q123 6 85 58T47 192Q47 252 64
313T116 424T203 505T326 537Q361 537 391 528T445 499T481 449T494 378H428Q427 431 398 456T318 482Q264 482 226 454T164 384T129 291T117 195Q117 130 148 87T250 42Q287 42 313 54T357 85T384 123T397 161H464Q456 120 436 88T387 34T322 -1T246 -13H234L203
-62H205Q218 -53 242 -53Q267 -53 282 -68T297 -113Q297 -130 291 -146T273 -175T243 -195T200 -203Z" />
<glyph unicode="&#xe8;" glyph-name="egrave" horiz-adv-x="534" d="M422 306Q427 342 425 374T410 431T373 469T311 484Q273 484 243 469T191 428T153 369T129 300H421L422 306ZM450 131Q442 101 425 75T382 30T320 -1T238 -13Q145 -13 96 42T46 189Q46 251 62
313T113 425T198 506T318 537Q370 537 406 518T463 465T489 382T485 277L479 246H119Q117 231 116 217T115 189Q115 158 122 132T145 85T186 54T247 42Q308 42 339 68T384 131H450ZM367 630H314L222 788H298L367 630Z" />
<glyph unicode="&#xe9;" glyph-name="eacute" horiz-adv-x="534" d="M394 788H471L363 630H309L394 788ZM422 306Q427 342 425 374T410 431T373 469T311 484Q273 484 243 469T191 428T153 369T129 300H421L422 306ZM450 131Q442 101 425 75T382 30T320 -1T238
-13Q145 -13 96 42T46 189Q46 251 62 313T113 425T198 506T318 537Q370 537 406 518T463 465T489 382T485 277L479 246H119Q117 231 116 217T115 189Q115 158 122 132T145 85T186 54T247 42Q308 42 339 68T384 131H450Z" />
<glyph unicode="&#xea;" glyph-name="ecircumflex" horiz-adv-x="534" d="M469 630H411L361 740L274 630H211L334 788H402L469 630ZM422 306Q427 342 425 374T410 431T373 469T311 484Q273 484 243 469T191 428T153 369T129 300H421L422 306ZM450 131Q442 101
425 75T382 30T320 -1T238 -13Q145 -13 96 42T46 189Q46 251 62 313T113 425T198 506T318 537Q370 537 406 518T463 465T489 382T485 277L479 246H119Q117 231 116 217T115 189Q115 158 122 132T145 85T186 54T247 42Q308 42 339 68T384 131H450Z" />
<glyph unicode="&#xeb;" glyph-name="edieresis" horiz-adv-x="534" d="M415 734H493L476 650H399L415 734ZM227 734H304L288 650H210L227 734ZM422 306Q427 342 425 374T410 431T373 469T311 484Q273 484 243 469T191 428T153 369T129 300H421L422 306ZM450 131Q442
101 425 75T382 30T320 -1T238 -13Q145 -13 96 42T46 189Q46 251 62 313T113 425T198 506T318 537Q370 537 406 518T463 465T489 382T485 277L479 246H119Q117 231 116 217T115 189Q115 158 122 132T145 85T186 54T247 42Q308 42 339 68T384 131H450Z" />
<glyph unicode="&#xec;" glyph-name="igrave" horiz-adv-x="257" d="M148 524H216L115 0H47L148 524ZM228 630H175L83 788H159L228 630Z" />
<glyph unicode="&#xed;" glyph-name="iacute" horiz-adv-x="257" d="M514 788H591L483 630H429L514 788ZM148 524H216L115 0H47L148 524Z" />
<glyph unicode="&#xee;" glyph-name="icircumflex" horiz-adv-x="257" d="M319 630H265L224 740L146 630H85L196 788H265L319 630ZM148 524H216L115 0H47L148 524Z" />
<glyph unicode="&#xef;" glyph-name="idieresis" horiz-adv-x="257" d="M268 734H342L325 650H251L268 734ZM104 734H177L160 650H87L104 734ZM148 524H216L115 0H47L148 524Z" />
<glyph unicode="&#xf0;" glyph-name="eth" horiz-adv-x="556" d="M238 -13Q191 -13 155 1T95 42T59 106T46 187Q46 248 62 310T111 423T196 505T316 537Q359 537 386 525T430 492H432Q421 536 401 573T354 644L205 590L192 633L321 680Q277 726 215 769L280 790Q306
773 332 752T384 703L503 746L518 704L415 666Q457 612 484 539T512 368Q512 287 494 218T441 97T355 17T238 -13ZM441 341Q441 407 411 445T313 484Q259 484 222 454T160 379T126 282T115 184Q115 117 146 79T241 41Q297 41 335 71T396 147T430 244T441 341Z"
/>
<glyph unicode="&#xf1;" glyph-name="ntilde" horiz-adv-x="581" d="M436 314Q444 352 444 384Q444 404 440 421T425 451T397 471T352 478Q315 478 285 463T232 421T193 358T169 278L115 0H47L148 524H212L193 428H195Q223 476 267 506T372 537Q418 537 448 522T494
479T513 414T507 331L444 0H375L436 314ZM204 628Q206 652 212 674T231 714T263 742T311 752Q335 752 353 742T388 719T420 696T450 685Q473 685 484 703T499 754H551Q549 730 543 708T524 668T492 640T444 630Q420 630 401 640T366 663T335 686T305 697Q282 697
271 679T255 628H204Z" />
<glyph unicode="&#xf2;" glyph-name="ograve" horiz-adv-x="554" d="M240 -13Q193 -13 157 1T96 42T59 106T46 187Q46 248 62 310T112 423T196 505T316 537Q363 537 399 523T460 482T497 419T510 338Q510 276 494 214T444 101T360 19T240 -13ZM441 341Q441 371
434 397T412 442T373 473T312 484Q258 484 221 454T160 379T126 282T115 183Q115 153 122 128T144 83T183 52T244 41Q299 41 337 72T398 148T431 246T441 341ZM373 630H320L228 788H304L373 630Z" />
<glyph unicode="&#xf3;" glyph-name="oacute" horiz-adv-x="554" d="M400 788H477L369 630H315L400 788ZM240 -13Q193 -13 157 1T96 42T59 106T46 187Q46 248 62 310T112 423T196 505T316 537Q363 537 399 523T460 482T497 419T510 338Q510 276 494 214T444 101T360
19T240 -13ZM441 341Q441 371 434 397T412 442T373 473T312 484Q258 484 221 454T160 379T126 282T115 183Q115 153 122 128T144 83T183 52T244 41Q299 41 337 72T398 148T431 246T441 341Z" />
<glyph unicode="&#xf4;" glyph-name="ocircumflex" horiz-adv-x="554" d="M475 630H417L367 740L280 630H217L340 788H408L475 630ZM240 -13Q193 -13 157 1T96 42T59 106T46 187Q46 248 62 310T112 423T196 505T316 537Q363 537 399 523T460 482T497 419T510 338Q510
276 494 214T444 101T360 19T240 -13ZM441 341Q441 371 434 397T412 442T373 473T312 484Q258 484 221 454T160 379T126 282T115 183Q115 153 122 128T144 83T183 52T244 41Q299 41 337 72T398 148T431 246T441 341Z" />
<glyph unicode="&#xf5;" glyph-name="otilde" horiz-adv-x="554" d="M240 -13Q193 -13 157 1T96 42T59 106T46 187Q46 248 62 310T112 423T196 505T316 537Q363 537 399 523T460 482T497 419T510 338Q510 276 494 214T444 101T360 19T240 -13ZM441 341Q441 371
434 397T412 442T373 473T312 484Q258 484 221 454T160 379T126 282T115 183Q115 153 122 128T144 83T183 52T244 41Q299 41 337 72T398 148T431 246T441 341ZM184 628Q186 652 192 674T211 714T243 742T291 752Q315 752 333 742T368 719T400 696T430 685Q453 685
464 703T479 754H531Q529 730 523 708T504 668T472 640T424 630Q400 630 381 640T346 663T315 686T285 697Q262 697 251 679T235 628H184Z" />
<glyph unicode="&#xf6;" glyph-name="odieresis" horiz-adv-x="554" d="M421 734H499L482 650H405L421 734ZM233 734H310L294 650H216L233 734ZM240 -13Q193 -13 157 1T96 42T59 106T46 187Q46 248 62 310T112 423T196 505T316 537Q363 537 399 523T460 482T497
419T510 338Q510 276 494 214T444 101T360 19T240 -13ZM441 341Q441 371 434 397T412 442T373 473T312 484Q258 484 221 454T160 379T126 282T115 183Q115 153 122 128T144 83T183 52T244 41Q299 41 337 72T398 148T431 246T441 341Z" />
<glyph unicode="&#xf7;" glyph-name="divide" horiz-adv-x="617" d="M331 579H408L392 501H316L331 579ZM109 388H557L546 327H98L109 388ZM245 136L261 215H337L321 136H245Z" />
<glyph unicode="&#xf8;" glyph-name="oslash" horiz-adv-x="554" d="M312 484Q258 484 221 454T160 379T126 282T115 183Q115 154 120 126L415 442Q400 462 375 473T312 484ZM244 41Q299 41 337 72T398 148T431 246T441 341Q441 355 440 368T436 394L141 79Q156
60 181 51T244 41ZM510 338Q510 276 494 214T444 101T360 19T240 -13Q195 -13 161 0T101 37L47 -21H-17L72 75Q46 122 46 187Q46 248 62 310T112 423T196 505T316 537Q361 537 396 524T456 486L509 542H575L485 446Q510 402 510 338Z" />
<glyph unicode="&#xf9;" glyph-name="ugrave" horiz-adv-x="575" d="M150 210Q146 192 143 172T140 132Q140 114 144 99T159 71T187 52T231 45Q268 45 297 61T350 107T389 175T414 260L465 524H534L432 0H368L388 98H385Q356 49 315 18T217 -13Q170 -13 139 2T92
45T72 110T78 193L142 524H210L150 210ZM382 630H329L237 788H313L382 630Z" />
<glyph unicode="&#xfa;" glyph-name="uacute" horiz-adv-x="575" d="M408 788H485L377 630H323L408 788ZM150 210Q146 192 143 172T140 132Q140 114 144 99T159 71T187 52T231 45Q268 45 297 61T350 107T389 175T414 260L465 524H534L432 0H368L388 98H385Q356
49 315 18T217 -13Q170 -13 139 2T92 45T72 110T78 193L142 524H210L150 210Z" />
<glyph unicode="&#xfb;" glyph-name="ucircumflex" horiz-adv-x="575" d="M483 630H425L375 740L288 630H225L348 788H416L483 630ZM150 210Q146 192 143 172T140 132Q140 114 144 99T159 71T187 52T231 45Q268 45 297 61T350 107T389 175T414 260L465 524H534L432
0H368L388 98H385Q356 49 315 18T217 -13Q170 -13 139 2T92 45T72 110T78 193L142 524H210L150 210Z" />
<glyph unicode="&#xfc;" glyph-name="udieresis" horiz-adv-x="575" d="M429 734H507L490 650H413L429 734ZM241 734H318L302 650H224L241 734ZM150 210Q146 192 143 172T140 132Q140 114 144 99T159 71T187 52T231 45Q268 45 297 61T350 107T389 175T414 260L465
524H534L432 0H368L388 98H385Q356 49 315 18T217 -13Q170 -13 139 2T92 45T72 110T78 193L142 524H210L150 210Z" />
<glyph unicode="&#xfd;" glyph-name="yacute" horiz-adv-x="483" d="M75 524H142L194 173Q196 157 197 142T201 115Q203 101 204 89H207L219 113Q224 124 230 137T245 164L430 524H500L197 -47Q174 -90 154 -119T112 -166T65 -191T6 -199Q-18 -199 -35 -195T-56
-188L-44 -132Q-39 -134 -26 -138T6 -142Q28 -142 45 -136T77 -118T103 -88T129 -45L155 5L75 524ZM367 788H444L336 630H282L367 788Z" />
<glyph unicode="&#xfe;" glyph-name="thorn" horiz-adv-x="592" d="M290 43Q341 43 377 73T435 147T468 242T479 335Q479 400 450 440T358 481Q322 481 291 465T235 423T194 364T171 298L158 230Q152 198 155 165T173 104T216 60T290 43ZM200 788H268L199 434H201Q230
481 274 509T376 537Q417 537 449 523T503 482T536 420T548 340Q548 280 533 218T487 104T406 20T288 -13Q226 -13 188 16T135 91H133L78 -188H10L200 788Z" />
<glyph unicode="&#xff;" glyph-name="ydieresis" horiz-adv-x="483" d="M75 524H142L194 173Q196 157 197 142T201 115Q203 101 204 89H207L219 113Q224 124 230 137T245 164L430 524H500L197 -47Q174 -90 154 -119T112 -166T65 -191T6 -199Q-18 -199 -35 -195T-56
-188L-44 -132Q-39 -134 -26 -138T6 -142Q28 -142 45 -136T77 -118T103 -88T129 -45L155 5L75 524ZM387 734H465L448 650H371L387 734ZM199 734H276L260 650H182L199 734Z" />
<glyph unicode="&#x100;" glyph-name="Amacron" horiz-adv-x="709" d="M438 697Q436 694 423 666T387 596L229 308H502L454 597Q450 617 448 635T444 668Q442 684 440 697H438ZM511 250H198L62 0H-10L409 765H491L624 0H554L511 250ZM345 916H617L605 859H334L345 916Z" />
<glyph unicode="&#x101;" glyph-name="amacron" horiz-adv-x="541" d="M195 48Q222 48 250 60T304 97T348 155T376 234L381 258Q362 258 340 258T294 256T247 251T204 244Q156 233 128 206T100 136Q100 94 124 71T195 48ZM101 385Q108 451 159 494T299 537Q353
537 388 521T443 476T466 412T462 335L420 118Q413 80 422 64T458 50L448 -5H440Q394 -5 373 19T358 96H356Q325 49 284 21T178 -8Q114 -8 72 28T29 133Q29 168 41 195T75 242T127 275T195 296Q239 305 291 306T392 308L397 341Q402 370 400 395T386 440T352 471T293
482Q245 482 211 459T169 385H101ZM202 711H473L462 654H191L202 711Z" />
<glyph unicode="&#x102;" glyph-name="Abreve" horiz-adv-x="709" d="M438 697Q436 694 423 666T387 596L229 308H502L454 597Q450 617 448 635T444 668Q442 684 440 697H438ZM511 250H198L62 0H-10L409 765H491L624 0H554L511 250ZM402 964Q398 922 417 903T471
883Q547 883 575 964H629Q620 929 604 904T567 863T521 839T468 831Q441 831 417 838T377 862T353 903T349 964H402Z" />
<glyph unicode="&#x103;" glyph-name="abreve" horiz-adv-x="541" d="M195 48Q222 48 250 60T304 97T348 155T376 234L381 258Q362 258 340 258T294 256T247 251T204 244Q156 233 128 206T100 136Q100 94 124 71T195 48ZM101 385Q108 451 159 494T299 537Q353
537 388 521T443 476T466 412T462 335L420 118Q413 80 422 64T458 50L448 -5H440Q394 -5 373 19T358 96H356Q325 49 284 21T178 -8Q114 -8 72 28T29 133Q29 168 41 195T75 242T127 275T195 296Q239 305 291 306T392 308L397 341Q402 370 400 395T386 440T352 471T293
482Q245 482 211 459T169 385H101ZM328 630Q298 630 273 638T232 665T209 712T210 781H263Q253 730 272 706T330 682Q415 682 438 781H492Q485 741 469 713T431 666T383 639T328 630Z" />
<glyph unicode="&#x104;" glyph-name="Aogonek" horiz-adv-x="709" d="M572 -188Q523 -188 494 -170T465 -113Q465 -78 491 -51T554 -3L511 250H198L62 0H-10L409 765H491L624 0Q588 -18 560 -43T531 -97Q531 -120 549 -129T597 -138L587 -188H572ZM438 697Q436
694 423 666T387 596L229 308H502L454 597Q450 617 448 635T444 668Q442 684 440 697H438Z" />
<glyph unicode="&#x105;" glyph-name="aogonek" horiz-adv-x="541" d="M396 3Q371 14 363 37T358 96H356Q325 49 284 21T178 -8Q114 -8 72 28T29 133Q29 168 41 195T75 242T127 275T195 296Q239 305 291 306T392 308L397 341Q402 370 400 395T386 440T352 471T293
482Q245 482 211 459T169 385H101Q108 451 159 494T299 537Q353 537 388 521T442 476T465 412T462 335L420 118Q413 80 422 64T458 50L450 0Q409 -22 385 -45T360 -97Q360 -120 377 -129T425 -138L415 -188H400Q352 -188 323 -170T293 -110Q293 -89 302 -73T325
-43T358 -19T396 0V3ZM195 48Q222 48 250 60T304 97T348 155T376 234L381 258Q362 258 340 258T294 256T247 251T204 244Q156 233 128 206T100 136Q100 93 124 71T195 48Z" />
<glyph unicode="&#x106;" glyph-name="Cacute" horiz-adv-x="749" d="M664 545Q658 632 607 675T473 719Q417 719 372 700T291 649T230 575T188 484T163 386T155 290Q155 236 167 191T207 112T276 61T377 42Q425 42 465 55T535 92T585 149T614 222H683Q672 170
647 127T581 52T489 3T374 -15Q234 -15 159 64T84 294Q84 382 109 468T185 623T309 734T480 777Q531 777 576 763T656 719T710 647T733 545H664ZM559 960H639L524 827H468L559 960Z" />
<glyph unicode="&#x107;" glyph-name="cacute" horiz-adv-x="519" d="M401 788H478L370 630H316L401 788ZM428 378Q427 431 398 456T318 482Q264 482 226 454T164 384T129 291T117 195Q117 130 148 87T250 42Q287 42 313 54T357 85T384 123T397 161H464Q456 120
436 88T387 34T322 -1T246 -13Q149 -13 98 42T47 192Q47 252 64 313T116 424T203 505T326 537Q361 537 391 528T445 499T481 449T494 378H428Z" />
<glyph unicode="&#x108;" glyph-name="Ccircumflex" horiz-adv-x="749" d="M639 827H582L518 913H517L422 827H359L486 960H556L639 827ZM664 545Q658 632 607 675T473 719Q417 719 372 700T291 649T230 575T188 484T163 386T155 290Q155 236 167 191T207 112T276
61T377 42Q425 42 465 55T535 92T585 149T614 222H683Q672 170 647 127T581 52T489 3T374 -15Q234 -15 159 64T84 294Q84 382 109 468T185 623T309 734T480 777Q531 777 576 763T656 719T710 647T733 545H664Z" />
<glyph unicode="&#x109;" glyph-name="ccircumflex" horiz-adv-x="519" d="M476 630H418L368 740L281 630H218L341 788H409L476 630ZM428 378Q427 431 398 456T318 482Q264 482 226 454T164 384T129 291T117 195Q117 130 148 87T250 42Q287 42 313 54T357 85T384
123T397 161H464Q456 120 436 88T387 34T322 -1T246 -13Q149 -13 98 42T47 192Q47 252 64 313T116 424T203 505T326 537Q361 537 391 528T445 499T481 449T494 378H428Z" />
<glyph unicode="&#x10a;" glyph-name="Cdotaccent" horiz-adv-x="749" d="M664 545Q658 632 607 675T473 719Q417 719 372 700T291 649T230 575T188 484T163 386T155 290Q155 236 167 191T207 112T276 61T377 42Q425 42 465 55T535 92T585 149T614 222H683Q672
170 647 127T581 52T489 3T374 -15Q234 -15 159 64T84 294Q84 382 109 468T185 623T309 734T480 777Q531 777 576 763T656 719T710 647T733 545H664ZM486 918H560L545 839H471L486 918Z" />
<glyph unicode="&#x10b;" glyph-name="cdotaccent" horiz-adv-x="519" d="M428 378Q427 431 398 456T318 482Q264 482 226 454T164 384T129 291T117 195Q117 130 148 87T250 42Q287 42 313 54T357 85T384 123T397 161H464Q456 120 436 88T387 34T322 -1T246 -13Q149
-13 98 42T47 192Q47 252 64 313T116 424T203 505T326 537Q361 537 391 528T445 499T481 449T494 378H428ZM330 733H404L389 654H315L330 733Z" />
<glyph unicode="&#x10c;" glyph-name="Ccaron" horiz-adv-x="749" d="M380 960H440L504 874H505L600 960H666L535 827H465L380 960ZM664 545Q658 632 607 675T473 719Q417 719 372 700T291 649T230 575T188 484T163 386T155 290Q155 236 167 191T207 112T276 61T377
42Q425 42 465 55T535 92T585 149T614 222H683Q672 170 647 127T581 52T489 3T374 -15Q234 -15 159 64T84 294Q84 382 109 468T185 623T309 734T480 777Q531 777 576 763T656 719T710 647T733 545H664Z" />
<glyph unicode="&#x10d;" glyph-name="ccaron" horiz-adv-x="519" d="M247 788H305L355 678L442 788H505L382 630H314L247 788ZM428 378Q427 431 398 456T318 482Q264 482 226 454T164 384T129 291T117 195Q117 130 148 87T250 42Q287 42 313 54T357 85T384 123T397
161H464Q456 120 436 88T387 34T322 -1T246 -13Q149 -13 98 42T47 192Q47 252 64 313T116 424T203 505T326 537Q361 537 391 528T445 499T481 449T494 378H428Z" />
<glyph unicode="&#x10e;" glyph-name="Dcaron" horiz-adv-x="767" d="M317 960H377L441 874H442L537 960H603L472 827H402L317 960ZM210 765H416Q486 765 544 748T644 695T709 603T733 469Q733 412 723 356T692 247T636 150T555 72T447 19T309 0H62L210 765ZM322
61Q391 61 442 81T532 134T594 210T634 298T655 389T661 472Q661 535 643 579T593 651T515 691T416 704H268L143 61H322Z" />
<glyph unicode="&#x10f;" glyph-name="dcaron" horiz-adv-x="589" d="M683 788H748L681 624H637L683 788ZM316 481Q262 481 224 452T162 377T127 279T116 180Q116 122 145 83T236 44Q275 44 306 59T362 100T401 156T422 220L437 297Q444 330 442 363T425 422T385
465T316 481ZM447 0H383L400 90H397Q385 69 368 51T329 18T281 -4T224 -13Q187 -13 155 -1T98 35T61 96T47 180Q47 244 63 308T113 423T196 505T312 537Q374 537 411 510T461 437H463L531 788H600L447 0Z" />
<glyph unicode="&#x110;" glyph-name="Dcroat" horiz-adv-x="775" d="M70 0L140 360H53L65 420H151L218 765H424Q494 765 552 748T652 695T717 603T741 469Q741 412 731 356T700 247T644 150T563 72T455 19T317 0H70ZM330 61Q399 61 450 81T540 134T602 210T642
298T663 389T669 472Q669 535 651 579T601 651T523 691T424 704H276L221 420H448L437 360H209L151 61H330Z" />
<glyph unicode="&#x111;" glyph-name="dcroat" horiz-adv-x="589" d="M316 481Q262 481 224 452T162 377T127 279T116 180Q116 122 145 83T236 44Q275 44 306 59T362 100T401 156T422 220L437 297Q444 330 442 363T425 422T385 465T316 481ZM397 90Q385 69 368
51T329 18T281 -4T224 -13Q187 -13 155 -1T98 35T61 96T47 180Q47 244 63 308T113 423T196 505T312 537Q374 537 411 510T461 437H463L501 631H333L343 682H510L531 788H600L579 682H643L633 631H570L447 0H383L400 90H397Z" />
<glyph unicode="&#x112;" glyph-name="Emacron" horiz-adv-x="665" d="M210 765H685L673 702H268L213 420H584L571 359H201L144 63H555L542 0H62L210 765ZM343 916H615L603 859H332L343 916Z" />
<glyph unicode="&#x113;" glyph-name="emacron" horiz-adv-x="534" d="M422 306Q427 342 425 374T410 431T373 469T311 484Q273 484 243 469T191 428T153 369T129 300H421L422 306ZM450 131Q442 101 425 75T382 30T320 -1T238 -13Q145 -13 96 42T46 189Q46 251
62 313T113 425T198 506T318 537Q370 537 406 518T463 465T489 382T485 277L479 246H119Q117 231 116 217T115 189Q115 158 122 132T145 85T186 54T247 42Q308 42 339 68T384 131H450ZM220 711H491L480 654H209L220 711Z" />
<glyph unicode="&#x114;" glyph-name="Ebreve" horiz-adv-x="665" d="M210 765H685L673 702H268L213 420H584L571 359H201L144 63H555L542 0H62L210 765ZM399 969Q395 927 414 908T468 888Q544 888 572 969H626Q617 934 601 909T564 868T518 844T465 836Q438 836
414 843T374 867T350 908T346 969H399Z" />
<glyph unicode="&#x115;" glyph-name="ebreve" horiz-adv-x="534" d="M422 306Q427 342 425 374T410 431T373 469T311 484Q273 484 243 469T191 428T153 369T129 300H421L422 306ZM450 131Q442 101 425 75T382 30T320 -1T238 -13Q145 -13 96 42T46 189Q46 251
62 313T113 425T198 506T318 537Q370 537 406 518T463 465T489 382T485 277L479 246H119Q117 231 116 217T115 189Q115 158 122 132T145 85T186 54T247 42Q308 42 339 68T384 131H450ZM347 630Q317 630 292 638T251 665T228 712T229 781H282Q272 730 291 706T349
682Q434 682 457 781H511Q504 741 488 713T450 666T402 639T347 630Z" />
<glyph unicode="&#x116;" glyph-name="Edotaccent" horiz-adv-x="665" d="M442 918H516L501 839H427L442 918ZM210 765H685L673 702H268L213 420H584L571 359H201L144 63H555L542 0H62L210 765Z" />
<glyph unicode="&#x117;" glyph-name="edotaccent" horiz-adv-x="534" d="M422 306Q427 342 425 374T410 431T373 469T311 484Q273 484 243 469T191 428T153 369T129 300H421L422 306ZM450 131Q442 101 425 75T382 30T320 -1T238 -13Q145 -13 96 42T46 189Q46
251 62 313T113 425T198 506T318 537Q370 537 406 518T463 465T489 382T485 277L479 246H119Q117 231 116 217T115 189Q115 158 122 132T145 85T186 54T247 42Q308 42 339 68T384 131H450ZM323 733H397L382 654H308L323 733Z" />
<glyph unicode="&#x118;" glyph-name="Eogonek" horiz-adv-x="665" d="M507 -188H493Q445 -188 415 -170T385 -111Q385 -75 413 -47T481 0H62L210 765H685L673 702H268L213 420H584L571 359H201L144 63H555L542 0Q506 -20 479 -43T452 -97Q452 -120 470 -129T517
-138L507 -188Z" />
<glyph unicode="&#x119;" glyph-name="eogonek" horiz-adv-x="534" d="M422 306Q427 342 425 374T411 431T374 470T311 484Q273 484 243 469T191 428T153 369T129 300H421L422 306ZM308 -188H293Q245 -188 216 -170T186 -111Q186 -79 209 -54T266 -11V-10Q249
-13 235 -13Q193 -13 159 0T99 39T60 103T46 189Q46 251 63 313T113 425T198 506T318 537Q371 537 407 518T464 465T489 382T485 277L479 246H119Q117 231 116 217T115 189Q115 158 122 132T145 85T186 54T247 42Q308 42 339 68T384 131H450Q439 93 415 62T343
6Q303 -14 277 -40T251 -95Q251 -120 269 -129T317 -138L308 -188Z" />
<glyph unicode="&#x11a;" glyph-name="Ecaron" horiz-adv-x="665" d="M343 960H403L467 874H468L563 960H629L498 827H428L343 960ZM210 765H685L673 702H268L213 420H584L571 359H201L144 63H555L542 0H62L210 765Z" />
<glyph unicode="&#x11b;" glyph-name="ecaron" horiz-adv-x="534" d="M241 788H299L349 678L436 788H499L376 630H308L241 788ZM422 306Q427 342 425 374T410 431T373 469T311 484Q273 484 243 469T191 428T153 369T129 300H421L422 306ZM450 131Q442 101 425
75T382 30T320 -1T238 -13Q145 -13 96 42T46 189Q46 251 62 313T113 425T198 506T318 537Q370 537 406 518T463 465T489 382T485 277L479 246H119Q117 231 116 217T115 189Q115 158 122 132T145 85T186 54T247 42Q308 42 339 68T384 131H450Z" />
<glyph unicode="&#x11c;" glyph-name="Gcircumflex" horiz-adv-x="790" d="M643 827H586L522 913H521L426 827H363L490 960H560L643 827ZM669 562Q668 638 619 678T485 719Q424 719 376 699T292 644T229 566T186 473T162 375T154 282Q154 231 166 187T204 111T272
60T371 42Q420 42 464 59T543 107T602 183T637 280L644 315H415L428 378H726L653 0H590L614 127H612Q577 63 513 24T363 -16Q293 -16 241 5T153 66T101 161T83 284Q83 339 93 396T125 509T180 612T258 697T363 755T494 777Q548 777 593 762T670 719T719 651T737
562H669Z" />
<glyph unicode="&#x11d;" glyph-name="gcircumflex" horiz-adv-x="591" d="M475 630H417L367 740L280 630H217L340 788H408L475 630ZM437 301Q444 333 442 365T426 423T386 465T317 481Q262 481 224 452T161 379T127 283T116 186Q116 157 122 133T143 92T180 64T235
54Q275 54 307 70T363 110T402 165T423 226L437 301ZM88 -53Q88 -72 94 -89T114 -118T151 -138T207 -146Q240 -146 268 -137T318 -108T358 -54T384 29L397 95H394Q366 55 325 27T220 -1Q182 -1 150 11T95 46T59 105T46 187Q46 250 63 313T113 425T197 506T314 537Q374
537 412 510T464 433H466L484 524H547L451 31Q428 -88 367 -143T201 -199Q116 -199 69 -159T24 -53H88Z" />
<glyph unicode="&#x11e;" glyph-name="Gbreve" horiz-adv-x="790" d="M442 969Q438 927 457 908T511 888Q587 888 615 969H669Q660 934 644 909T607 868T561 844T508 836Q481 836 457 843T417 867T393 908T389 969H442ZM669 562Q668 638 619 678T485 719Q424 719
376 699T292 644T229 566T186 473T162 375T154 282Q154 231 166 187T204 111T272 60T371 42Q420 42 464 59T543 107T602 183T637 280L644 315H415L428 378H726L653 0H590L614 127H612Q577 63 513 24T363 -16Q293 -16 241 5T153 66T101 161T83 284Q83 339 93 396T125
509T180 612T258 697T363 755T494 777Q548 777 593 762T670 719T719 651T737 562H669Z" />
<glyph unicode="&#x11f;" glyph-name="gbreve" horiz-adv-x="591" d="M437 301Q444 333 442 365T426 423T386 465T317 481Q262 481 224 452T161 379T127 283T116 186Q116 157 122 133T143 92T180 64T235 54Q275 54 307 70T363 110T402 165T423 226L437 301ZM88
-53Q88 -72 94 -89T114 -118T151 -138T207 -146Q240 -146 268 -137T318 -108T358 -54T384 29L397 95H394Q366 55 325 27T220 -1Q182 -1 150 11T95 46T59 105T46 187Q46 250 63 313T113 425T197 506T314 537Q374 537 412 510T464 433H466L484 524H547L451 31Q428
-88 367 -143T201 -199Q116 -199 69 -159T24 -53H88ZM353 630Q323 630 298 638T257 665T234 712T235 781H288Q278 730 297 706T355 682Q440 682 463 781H517Q510 741 494 713T456 666T408 639T353 630Z" />
<glyph unicode="&#x120;" glyph-name="Gdotaccent" horiz-adv-x="790" d="M485 918H559L544 839H470L485 918ZM669 562Q668 638 619 678T485 719Q424 719 376 699T292 644T229 566T186 473T162 375T154 282Q154 231 166 187T204 111T272 60T371 42Q420 42 464
59T543 107T602 183T637 280L644 315H415L428 378H726L653 0H590L614 127H612Q577 63 513 24T363 -16Q293 -16 241 5T153 66T101 161T83 284Q83 339 93 396T125 509T180 612T258 697T363 755T494 777Q548 777 593 762T670 719T719 651T737 562H669Z" />
<glyph unicode="&#x121;" glyph-name="gdotaccent" horiz-adv-x="591" d="M437 301Q444 333 442 365T426 423T386 465T317 481Q262 481 224 452T161 379T127 283T116 186Q116 157 122 133T143 92T180 64T235 54Q275 54 307 70T363 110T402 165T423 226L437 301ZM88
-53Q88 -72 94 -89T114 -118T151 -138T207 -146Q240 -146 268 -137T318 -108T358 -54T384 29L397 95H394Q366 55 325 27T220 -1Q182 -1 150 11T95 46T59 105T46 187Q46 250 63 313T113 425T197 506T314 537Q374 537 412 510T464 433H466L484 524H547L451 31Q428
-88 367 -143T201 -199Q116 -199 69 -159T24 -53H88ZM329 733H403L388 654H314L329 733Z" />
<glyph unicode="&#x122;" glyph-name="Gcommaaccent" horiz-adv-x="790" d="M307 -63H378L299 -198H253L307 -63ZM669 562Q668 638 619 678T485 719Q424 719 376 699T292 644T229 566T186 473T162 375T154 282Q154 231 166 187T204 111T272 60T371 42Q420 42 464
59T543 107T602 183T637 280L644 315H415L428 378H726L653 0H590L614 127H612Q577 63 513 24T363 -16Q293 -16 241 5T153 66T101 161T83 284Q83 339 93 396T125 509T180 612T258 697T363 755T494 777Q548 777 593 762T670 719T719 651T737 562H669Z" />
<glyph unicode="&#x123;" glyph-name="gcommaaccent" horiz-adv-x="591" d="M381 641H307L388 773H434L381 641ZM437 301Q444 333 442 365T426 423T386 465T317 481Q262 481 224 452T161 379T127 283T116 186Q116 157 122 133T143 92T180 64T235 54Q275 54 307
70T363 110T402 165T423 226L437 301ZM88 -53Q88 -72 94 -89T114 -118T151 -138T207 -146Q240 -146 268 -137T318 -108T358 -54T384 29L397 95H394Q366 55 325 27T220 -1Q182 -1 150 11T95 46T59 105T46 187Q46 250 63 313T113 425T197 506T314 537Q374 537 412
510T464 433H466L484 524H547L451 31Q428 -88 367 -143T201 -199Q116 -199 69 -159T24 -53H88Z" />
<glyph unicode="&#x124;" glyph-name="Hcircumflex" horiz-adv-x="777" d="M133 0H63L211 765H281L214 421H630L697 765H767L619 0H549L618 359H202L133 0ZM635 827H578L514 913H513L418 827H355L482 960H552L635 827Z" />
<glyph unicode="&#x125;" glyph-name="hcircumflex" horiz-adv-x="581" d="M436 314Q444 354 444 384Q444 425 424 451T352 478Q315 478 285 463T232 421T193 358T169 278L115 0H47L200 788H268L199 435H201Q226 479 270 508T372 537Q418 537 448 522T494 479T513
414T507 331L444 0H376L436 314ZM551 827H494L430 913H429L334 827H271L398 960H468L551 827Z" />
<glyph unicode="&#x126;" glyph-name="Hbar" horiz-adv-x="777" d="M630 421L660 577H244L214 421H630ZM133 0H63L175 577H81L90 629H185L211 765H281L255 629H671L697 765H767L741 629H829L820 577H731L619 0H549L618 359H202L133 0Z" />
<glyph unicode="&#x127;" glyph-name="hbar" horiz-adv-x="581" d="M115 0H47L170 631H106L115 682H179L200 788H268L247 682H415L405 631H237L199 435H201Q226 479 270 508T372 537Q418 537 448 522T494 479T513 414T507 331L444 0H376L436 314Q444 354 444 384Q444
425 424 451T352 478Q315 478 285 463T232 421T193 358T169 278L115 0Z" />
<glyph unicode="&#x128;" glyph-name="Itilde" horiz-adv-x="292" d="M211 765H281L133 0H63L211 765ZM93 828Q96 851 103 873T123 912T157 940T205 951Q230 951 248 941T282 918T312 896T341 885Q365 885 377 903T395 954H448Q446 931 439 909T418 869T384 841T337
830Q312 830 294 840T259 863T229 885T200 896Q178 896 165 878T146 828H93Z" />
<glyph unicode="&#x129;" glyph-name="itilde" horiz-adv-x="257" d="M58 628Q61 652 68 674T87 714T117 742T160 752Q181 752 197 742T226 719T252 696T279 685Q299 685 310 703T326 754H371Q368 730 362 708T343 668T314 640T272 630Q251 630 235 640T205 663T177
686T151 697Q131 697 120 679T103 628H58ZM148 524H216L115 0H47L148 524Z" />
<glyph unicode="&#x12a;" glyph-name="Imacron" horiz-adv-x="292" d="M211 765H281L133 0H63L211 765ZM140 916H412L400 859H129L140 916Z" />
<glyph unicode="&#x12b;" glyph-name="imacron" horiz-adv-x="257" d="M106 711H331L319 654H94L106 711ZM148 524H216L115 0H47L148 524Z" />
<glyph unicode="&#x12c;" glyph-name="Ibreve" horiz-adv-x="292" d="M211 765H281L133 0H63L211 765ZM201 969Q197 927 216 908T270 888Q346 888 374 969H428Q419 934 403 909T366 868T320 844T267 836Q240 836 216 843T176 867T152 908T148 969H201Z" />
<glyph unicode="&#x12d;" glyph-name="ibreve" horiz-adv-x="257" d="M206 630Q179 630 157 638T122 665T104 712T110 781H157Q145 730 161 706T211 681Q287 681 314 781H362Q344 701 302 666T206 630ZM148 524H216L115 0H47L148 524Z" />
<glyph unicode="&#x12e;" glyph-name="Iogonek" horiz-adv-x="292" d="M83 -188Q35 -188 6 -170T-24 -111Q-24 -78 0 -51T62 -5L211 765H281L133 0Q97 -20 70 -44T43 -97Q43 -120 60 -129T108 -138L98 -188H83Z" />
<glyph unicode="&#x12f;" glyph-name="iogonek" horiz-adv-x="257" d="M186 733H260L245 654H171L186 733ZM63 -188Q15 -188 -14 -170T-44 -111Q-44 -76 -19 -49T47 -2L149 524H217L116 2Q78 -19 50 -43T22 -98Q22 -121 40 -129T87 -138L78 -188H63Z" />
<glyph unicode="&#x130;" glyph-name="Idotaccent" horiz-adv-x="292" d="M211 765H281L133 0H63L211 765ZM239 918H313L298 839H224L239 918Z" />
<glyph unicode="&#x131;" glyph-name="dotlessi" horiz-adv-x="257" d="M148 524H216L115 0H47L148 524Z" />
<glyph unicode="&#x132;" glyph-name="IJ" horiz-adv-x="671" d="M211 765H281L133 0H63L211 765ZM258 -1L269 59H285Q340 59 376 68T435 99T471 154T494 236L597 765H667L560 211Q550 161 533 122T484 55T404 14T285 -1H258Z" />
<glyph unicode="&#x133;" glyph-name="ij" horiz-adv-x="517" d="M186 733H260L245 654H171L186 733ZM148 524H216L115 0H47L148 524ZM445 733H519L504 654H430L445 733ZM206 -197Q184 -197 170 -193T151 -187L162 -132Q166 -134 178 -136T207 -139Q245 -139 266
-119T296 -53L408 524H476L362 -64Q348 -136 307 -166T206 -197Z" />
<glyph unicode="&#x134;" glyph-name="Jcircumflex" horiz-adv-x="415" d="M524 827H467L403 913H402L307 827H244L371 960H441L524 827ZM230 -1L241 59H284Q339 59 375 68T434 99T470 154T493 236L596 765H666L559 211Q549 161 532 122T483 55T403 14T284 -1H230Z" />
<glyph unicode="&#x135;" glyph-name="jcircumflex" horiz-adv-x="257" d="M319 630H265L224 740L146 630H85L196 788H265L319 630ZM-98 -132Q-94 -134 -82 -136T-53 -139Q-15 -139 6 -119T36 -53L148 524H216L102 -64Q88 -136 47 -166T-54 -197Q-76 -197 -90
-193T-109 -187L-98 -132Z" />
<glyph unicode="&#x136;" glyph-name="Kcommaaccent" horiz-adv-x="703" d="M282 -63H353L274 -198H228L282 -63ZM132 0H62L210 765H280L199 348L657 765H749L390 440L630 0H551L337 395L182 257L132 0Z" />
<glyph unicode="&#x137;" glyph-name="kcommaaccent" horiz-adv-x="535" d="M196 -63H267L188 -198H142L196 -63ZM115 0H47L200 788H268L165 257L449 524H534L314 321L462 0H386L262 275L148 168L115 0Z" />
<glyph unicode="&#x138;" glyph-name="kgreenlandic" horiz-adv-x="535" d="M115 0H47L148 524H216L164 257L449 524H534L314 321L462 0H386L262 275L147 168L115 0Z" />
<glyph unicode="&#x139;" glyph-name="Lacute" horiz-adv-x="595" d="M319 960H399L284 827H228L319 960ZM210 765H280L144 63H530L518 0H62L210 765Z" />
<glyph unicode="&#x13a;" glyph-name="lacute" horiz-adv-x="257" d="M299 960H379L264 827H208L299 960ZM199 788H267L114 0H46L199 788Z" />
<glyph unicode="&#x13b;" glyph-name="Lcommaaccent" horiz-adv-x="595" d="M246 -63H317L238 -198H192L246 -63ZM210 765H280L144 63H530L518 0H62L210 765Z" />
<glyph unicode="&#x13c;" glyph-name="lcommaaccent" horiz-adv-x="257" d="M292 -63H363L284 -198H238L292 -63ZM199 788H267L114 0H46L199 788Z" />
<glyph unicode="&#x13d;" glyph-name="Lcaron" horiz-adv-x="595" d="M435 788H512L427 593H372L435 788ZM210 765H280L144 63H530L518 0H62L210 765Z" />
<glyph unicode="&#x13e;" glyph-name="lcaron" horiz-adv-x="257" d="M350 788H415L348 624H304L350 788ZM199 788H267L114 0H46L199 788Z" />
<glyph unicode="&#x13f;" glyph-name="Ldot" horiz-adv-x="595" d="M210 765H280L144 63H530L518 0H62L210 765ZM435 431H522L505 342H418L435 431Z" />
<glyph unicode="&#x140;" glyph-name="ldot" horiz-adv-x="282" d="M199 788H267L114 0H46L199 788ZM266 434H341L326 358H252L266 434Z" />
<glyph unicode="&#x141;" glyph-name="Lslash" horiz-adv-x="596" d="M119 289L32 256L44 321L132 354L211 765H281L207 383L475 484L462 419L194 318L145 63H531L519 0H63L119 289Z" />
<glyph unicode="&#x142;" glyph-name="lslash" horiz-adv-x="275" d="M54 0L119 334L22 270L35 340L133 404L207 788H275L211 456L309 521L296 451L197 386L122 0H54Z" />
<glyph unicode="&#x143;" glyph-name="Nacute" horiz-adv-x="779" d="M559 960H639L524 827H468L559 960ZM210 765H290L542 167Q549 150 553 137T562 114Q566 103 569 95H571L701 765H767L619 0H541L284 610Q278 624 274 636T266 657Q262 667 260 674H258L128
0H62L210 765Z" />
<glyph unicode="&#x144;" glyph-name="nacute" horiz-adv-x="581" d="M420 788H497L389 630H335L420 788ZM436 314Q444 352 444 384Q444 404 440 421T425 451T397 471T352 478Q315 478 285 463T232 421T193 358T169 278L115 0H47L148 524H212L193 428H195Q223
476 267 506T372 537Q418 537 448 522T494 479T513 414T507 331L444 0H375L436 314Z" />
<glyph unicode="&#x145;" glyph-name="Ncommaaccent" horiz-adv-x="779" d="M295 -63H366L287 -198H241L295 -63ZM210 765H290L542 167Q549 150 553 137T562 114Q566 103 569 95H571L701 765H767L619 0H541L284 610Q278 624 274 636T266 657Q262 667 260 674H258L128
0H62L210 765Z" />
<glyph unicode="&#x146;" glyph-name="ncommaaccent" horiz-adv-x="581" d="M198 -63H269L190 -198H144L198 -63ZM436 314Q444 352 444 384Q444 404 440 421T425 451T397 471T352 478Q315 478 285 463T232 421T193 358T169 278L115 0H47L148 524H212L193 428H195Q223
476 267 506T372 537Q418 537 448 522T494 479T513 414T507 331L444 0H375L436 314Z" />
<glyph unicode="&#x147;" glyph-name="Ncaron" horiz-adv-x="779" d="M383 960H443L507 874H508L603 960H669L538 827H468L383 960ZM210 765H290L542 167Q549 150 553 137T562 114Q566 103 569 95H571L701 765H767L619 0H541L284 610Q278 624 274 636T266 657Q262
667 260 674H258L128 0H62L210 765Z" />
<glyph unicode="&#x148;" glyph-name="ncaron" horiz-adv-x="581" d="M262 788H320L370 678L457 788H520L397 630H329L262 788ZM436 314Q444 352 444 384Q444 404 440 421T425 451T397 471T352 478Q315 478 285 463T232 421T193 358T169 278L115 0H47L148 524H212L193
428H195Q223 476 267 506T372 537Q418 537 448 522T494 479T513 414T507 331L444 0H375L436 314Z" />
<glyph unicode="&#x149;" glyph-name="napostrophe" horiz-adv-x="581" d="M183 801H254L175 666H129L183 801ZM436 314Q444 352 444 384Q444 404 440 421T425 451T397 471T352 478Q315 478 285 463T232 421T193 358T169 278L115 0H47L148 524H212L193 428H195Q223
476 267 506T372 537Q418 537 448 522T494 479T513 414T507 331L444 0H375L436 314Z" />
<glyph unicode="&#x14a;" glyph-name="Eng" horiz-adv-x="779" d="M321 -189L333 -128H359Q403 -128 434 -121T488 -100T524 -66T547 -17L284 610Q278 624 274 636T266 657Q262 667 260 674H258L128 0H62L210 765H290L542 167Q549 150 553 137T562 114Q566 103
569 95H571L701 765H767L640 108L632 65L626 36L624 26Q614 -25 597 -65T548 -132T470 -174T353 -189H321Z" />
<glyph unicode="&#x14b;" glyph-name="eng" horiz-adv-x="581" d="M276 -196Q254 -196 240 -192T220 -186L231 -131Q236 -133 248 -135T276 -138Q314 -138 335 -118T365 -52L375 0L381 33L404 150L436 314Q444 352 444 384Q444 404 440 421T425 451T397 471T352
478Q315 478 285 463T232 421T193 358T169 278L115 0H47L148 524H212L193 428H195Q223 476 267 506T372 537Q418 537 448 522T494 479T513 414T507 331L444 0L432 -63Q418 -135 376 -165T276 -196Z" />
<glyph unicode="&#x14c;" glyph-name="Omacron" horiz-adv-x="798" d="M387 916H659L647 859H376L387 916ZM83 286Q83 346 95 406T130 520T187 621T264 702T361 756T475 776Q545 776 598 755T688 694T744 598T763 473Q763 389 739 303T665 146T543 30T374 -15Q304
-15 250 6T158 67T102 162T83 286ZM691 475Q691 525 679 569T641 647T572 699T470 719Q416 719 372 699T292 646T231 569T188 476T163 378T155 283Q155 234 167 190T206 113T275 61T378 41Q431 41 475 61T554 115T614 193T657 285T682 382T691 475Z" />
<glyph unicode="&#x14d;" glyph-name="omacron" horiz-adv-x="554" d="M226 711H497L486 654H215L226 711ZM240 -13Q193 -13 157 1T96 42T59 106T46 187Q46 248 62 310T112 423T196 505T316 537Q363 537 399 523T460 482T497 419T510 338Q510 276 494 214T444
101T360 19T240 -13ZM441 341Q441 371 434 397T412 442T373 473T312 484Q258 484 221 454T160 379T126 282T115 183Q115 153 122 128T144 83T183 52T244 41Q299 41 337 72T398 148T431 246T441 341Z" />
<glyph unicode="&#x14e;" glyph-name="Obreve" horiz-adv-x="798" d="M449 969Q445 927 464 908T518 888Q594 888 622 969H676Q667 934 651 909T614 868T568 844T515 836Q488 836 464 843T424 867T400 908T396 969H449ZM83 286Q83 346 95 406T130 520T187 621T264
702T361 756T475 776Q545 776 598 755T688 694T744 598T763 473Q763 389 739 303T665 146T543 30T374 -15Q304 -15 250 6T158 67T102 162T83 286ZM691 475Q691 525 679 569T641 647T572 699T470 719Q416 719 372 699T292 646T231 569T188 476T163 378T155 283Q155
234 167 190T206 113T275 61T378 41Q431 41 475 61T554 115T614 193T657 285T682 382T691 475Z" />
<glyph unicode="&#x14f;" glyph-name="obreve" horiz-adv-x="554" d="M240 -13Q193 -13 157 1T96 42T59 106T46 187Q46 248 62 310T112 423T196 505T316 537Q363 537 399 523T460 482T497 419T510 338Q510 276 494 214T444 101T360 19T240 -13ZM441 341Q441 371
434 397T412 442T373 473T312 484Q258 484 221 454T160 379T126 282T115 183Q115 153 122 128T144 83T183 52T244 41Q299 41 337 72T398 148T431 246T441 341ZM353 630Q323 630 298 638T257 665T234 712T235 781H288Q278 730 297 706T355 682Q440 682 463 781H517Q510
741 494 713T456 666T408 639T353 630Z" />
<glyph unicode="&#x150;" glyph-name="Ohungarumlaut" horiz-adv-x="798" d="M604 973H680L589 840H541L604 973ZM478 973H554L459 840H412L478 973ZM83 286Q83 346 95 406T130 520T187 621T264 702T361 756T475 776Q545 776 598 755T688 694T744 598T763 473Q763
389 739 303T665 146T543 30T374 -15Q304 -15 250 6T158 67T102 162T83 286ZM691 475Q691 525 679 569T641 647T572 699T470 719Q416 719 372 699T292 646T231 569T188 476T163 378T155 283Q155 234 167 190T206 113T275 61T378 41Q431 41 475 61T554 115T614 193T657
285T682 382T691 475Z" />
<glyph unicode="&#x151;" glyph-name="ohungarumlaut" horiz-adv-x="554" d="M465 788H537L422 630H373L465 788ZM335 788H406L291 630H242L335 788ZM240 -13Q193 -13 157 1T96 42T59 106T46 187Q46 248 62 310T112 423T196 505T316 537Q363 537 399 523T460 482T497
419T510 338Q510 276 494 214T444 101T360 19T240 -13ZM441 341Q441 371 434 397T412 442T373 473T312 484Q258 484 221 454T160 379T126 282T115 183Q115 153 122 128T144 83T183 52T244 41Q299 41 337 72T398 148T431 246T441 341Z" />
<glyph unicode="&#x152;" glyph-name="OE" horiz-adv-x="1203" d="M378 41Q429 41 475 61T558 118T623 209T664 330L684 433Q695 488 688 539T654 631T582 695T470 719Q416 719 372 699T292 646T231 569T188 476T163 378T155 283Q155 234 167 190T205 113T274
61T378 41ZM622 125Q604 95 580 70T524 26T455 -4T373 -15Q302 -15 248 7T157 68T102 163T83 286Q83 377 110 465T187 622T310 733T474 776Q533 776 574 763T644 729T690 681T718 627H721L749 765H1223L1211 702H806L751 420H1122L1110 359H739L682 63H1093L1081
0H601L625 125H622Z" />
<glyph unicode="&#x153;" glyph-name="oe" horiz-adv-x="913" d="M802 306Q807 342 805 374T790 431T754 469T692 484Q654 484 625 469T573 428T534 369T509 300H801L802 306ZM440 341Q440 371 433 397T411 442T372 473T312 484Q258 484 221 454T160 379T125 282T114
183Q114 153 121 128T143 83T182 52T243 41Q298 41 336 72T397 148T430 246T440 341ZM830 131Q822 101 805 75T762 30T699 -1T618 -13Q545 -13 502 20T443 113Q413 57 363 22T239 -13Q192 -13 156 1T95 42T58 106T45 187Q45 248 61 310T111 423T196 505T316 537Q392
537 433 502T489 406Q521 463 572 500T699 537Q751 537 787 518T843 465T869 382T864 277L859 246H498Q496 231 495 217T494 189Q494 158 501 131T525 84T566 53T627 41Q688 41 719 67T763 131H830Z" />
<glyph unicode="&#x154;" glyph-name="Racute" horiz-adv-x="702" d="M488 960H568L453 827H397L488 960ZM412 385Q497 385 545 435T594 572Q594 641 552 673T435 705H268L206 385H412ZM131 0H62L210 765H432Q484 765 527 755T601 720Q631 697 647 661T664 574Q664
484 617 421T478 336V333L602 0H527L407 326H195L131 0Z" />
<glyph unicode="&#x155;" glyph-name="racute" horiz-adv-x="375" d="M338 788H415L307 630H253L338 788ZM148 524H212L191 418H194Q220 469 264 501T374 534H381L368 464H358Q317 464 285 449T230 408T191 349T169 279L115 0H47L148 524Z" />
<glyph unicode="&#x156;" glyph-name="Rcommaaccent" horiz-adv-x="702" d="M279 -63H350L271 -198H225L279 -63ZM412 385Q497 385 545 435T594 572Q594 641 552 673T435 705H268L206 385H412ZM131 0H62L210 765H432Q484 765 527 755T601 720Q631 697 647 661T664
574Q664 484 617 421T478 336V333L602 0H527L407 326H195L131 0Z" />
<glyph unicode="&#x157;" glyph-name="rcommaaccent" horiz-adv-x="375" d="M290 -63H361L282 -198H236L290 -63ZM148 524H212L191 418H194Q220 469 264 501T374 534H381L368 464H358Q317 464 285 449T230 408T191 349T169 279L115 0H47L148 524Z" />
<glyph unicode="&#x158;" glyph-name="Rcaron" horiz-adv-x="702" d="M305 960H365L429 874H430L525 960H591L460 827H390L305 960ZM412 385Q497 385 545 435T594 572Q594 641 552 673T435 705H268L206 385H412ZM131 0H62L210 765H432Q484 765 527 755T601 720Q631
697 647 661T664 574Q664 484 617 421T478 336V333L602 0H527L407 326H195L131 0Z" />
<glyph unicode="&#x159;" glyph-name="rcaron" horiz-adv-x="375" d="M185 788H243L293 678L380 788H443L320 630H252L185 788ZM148 524H212L191 418H194Q220 469 264 501T374 534H381L368 464H358Q317 464 285 449T230 408T191 349T169 279L115 0H47L148 524Z" />
<glyph unicode="&#x15a;" glyph-name="Sacute" horiz-adv-x="682" d="M135 218Q132 126 183 85T329 44Q368 44 405 53T470 83T516 135T534 210Q534 257 510 289T423 341L318 373Q239 397 199 440T158 555Q158 607 178 648T232 717T313 761T414 776Q465 776 508
762T584 719T632 650T646 557H576Q580 634 537 676T408 719Q372 719 340 709T282 678T243 629T228 564Q228 516 253 486T333 440L447 406Q533 380 569 333T606 218Q606 162 585 119T526 45T437 0T328 -16Q271 -16 222 -3T136 38T81 110T65 218H135ZM501 960H581L466
827H410L501 960Z" />
<glyph unicode="&#x15b;" glyph-name="sacute" horiz-adv-x="496" d="M355 788H432L324 630H270L355 788ZM384 395Q385 433 359 458T275 484Q254 484 234 479T196 461T169 431T159 388Q159 353 177 336T235 307L292 291Q330 280 355 267T396 238T418 200T425 153Q425
113 410 82T367 30T303 -2T224 -13Q186 -13 152 -5T91 23T50 74T37 151H102Q99 101 129 71T227 41Q252 41 275 46T317 64T347 96T358 144Q358 173 341 194T272 231L215 247Q158 263 125 292T92 382Q92 419 107 448T147 497T207 527T279 537Q314 537 346 529T401
503T438 459T449 395H384Z" />
<glyph unicode="&#x15c;" glyph-name="Scircumflex" horiz-adv-x="682" d="M577 827H520L456 913H455L360 827H297L424 960H494L577 827ZM135 218Q132 126 183 85T329 44Q368 44 405 53T470 83T516 135T534 210Q534 257 510 289T423 341L318 373Q239 397 199 440T158
555Q158 607 178 648T232 717T313 761T414 776Q465 776 508 762T584 719T632 650T646 557H576Q580 634 537 676T408 719Q372 719 340 709T282 678T243 629T228 564Q228 516 253 486T333 440L447 406Q533 380 569 333T606 218Q606 162 585 119T526 45T437 0T328
-16Q271 -16 222 -3T136 38T81 110T65 218H135Z" />
<glyph unicode="&#x15d;" glyph-name="scircumflex" horiz-adv-x="496" d="M441 630H383L333 740L246 630H183L306 788H374L441 630ZM384 395Q385 433 359 458T275 484Q254 484 234 479T196 461T169 431T159 388Q159 353 177 336T235 307L292 291Q330 280 355
267T396 238T418 200T425 153Q425 113 410 82T367 30T303 -2T224 -13Q186 -13 152 -5T91 23T50 74T37 151H102Q99 101 129 71T227 41Q252 41 275 46T317 64T347 96T358 144Q358 173 341 194T272 231L215 247Q158 263 125 292T92 382Q92 419 107 448T147 497T207
527T279 537Q314 537 346 529T401 503T438 459T449 395H384Z" />
<glyph unicode="&#x15e;" glyph-name="Scedilla" horiz-adv-x="682" d="M269 -203Q239 -203 217 -188T197 -140H247Q248 -151 254 -157T275 -164Q292 -164 303 -152T315 -119Q315 -88 286 -88Q276 -88 270 -91T257 -99H208L262 -11Q217 -5 180 11T116 56T76 124T65
218H135Q132 126 183 85T329 44Q368 44 405 53T470 83T516 135T534 210Q534 257 510 289T423 341L318 373Q239 397 199 440T158 555Q158 607 178 648T232 717T313 761T414 776Q465 776 508 762T584 719T632 650T646 557H576Q580 634 537 676T408 719Q372 719 340
709T282 678T243 629T228 564Q228 516 253 486T333 440L447 406Q533 380 569 333T606 218Q606 162 585 119T526 45T437 0T328 -16Q321 -16 315 -16T302 -15L272 -62H274Q287 -53 311 -53Q336 -53 351 -68T366 -113Q366 -130 360 -146T342 -175T312 -195T269 -203Z"
/>
<glyph unicode="&#x15f;" glyph-name="scedilla" horiz-adv-x="496" d="M180 -203Q150 -203 128 -188T108 -140H158Q159 -151 165 -157T186 -164Q203 -164 214 -152T226 -119Q226 -88 197 -88Q187 -88 181 -91T168 -99H119L174 -9Q144 -4 119 7T74 38T45 85T37
151H102Q99 101 129 71T227 41Q252 41 275 46T317 64T347 96T358 144Q358 173 341 194T272 231L215 247Q158 263 125 292T92 382Q92 419 107 448T147 497T207 527T279 537Q314 537 346 529T401 503T438 459T449 395H384Q385 433 359 458T275 484Q254 484 234 479T196
461T169 431T159 388Q159 353 177 336T235 307L292 291Q330 280 355 267T396 238T418 200T425 153Q425 113 410 82T367 30T303 -2T224 -13H214L183 -62H185Q198 -53 222 -53Q247 -53 262 -68T277 -113Q277 -130 271 -146T253 -175T223 -195T180 -203Z" />
<glyph unicode="&#x160;" glyph-name="Scaron" horiz-adv-x="682" d="M320 960H380L444 874H445L540 960H606L475 827H405L320 960ZM135 218Q132 126 183 85T329 44Q368 44 405 53T470 83T516 135T534 210Q534 257 510 289T423 341L318 373Q239 397 199 440T158
555Q158 607 178 648T232 717T313 761T414 776Q465 776 508 762T584 719T632 650T646 557H576Q580 634 537 676T408 719Q372 719 340 709T282 678T243 629T228 564Q228 516 253 486T333 440L447 406Q533 380 569 333T606 218Q606 162 585 119T526 45T437 0T328
-16Q271 -16 222 -3T136 38T81 110T65 218H135Z" />
<glyph unicode="&#x161;" glyph-name="scaron" horiz-adv-x="496" d="M208 788H266L316 678L403 788H466L343 630H275L208 788ZM384 395Q385 433 359 458T275 484Q254 484 234 479T196 461T169 431T159 388Q159 353 177 336T235 307L292 291Q330 280 355 267T396
238T418 200T425 153Q425 113 410 82T367 30T303 -2T224 -13Q186 -13 152 -5T91 23T50 74T37 151H102Q99 101 129 71T227 41Q252 41 275 46T317 64T347 96T358 144Q358 173 341 194T272 231L215 247Q158 263 125 292T92 382Q92 419 107 448T147 497T207 527T279
537Q314 537 346 529T401 503T438 459T449 395H384Z" />
<glyph unicode="&#x162;" glyph-name="Tcommaaccent" horiz-adv-x="642" d="M227 -63H298L219 -198H173L227 -63ZM307 0H237L373 704H108L120 765H720L708 704H443L307 0Z" />
<glyph unicode="&#x163;" glyph-name="tcommaaccent" horiz-adv-x="355" d="M383 -63H454L375 -198H329L383 -63ZM271 681L240 524H370L359 470H230L166 140Q156 89 169 69T227 49Q247 49 264 52Q274 53 283 55L272 -1Q264 -3 254 -5Q246 -7 235 -8T212 -9Q146
-9 114 25T97 135L162 470H67L77 522H97Q121 522 137 526T165 541T183 575T198 633L208 681H271Z" />
<glyph unicode="&#x164;" glyph-name="Tcaron" horiz-adv-x="642" d="M315 960H375L439 874H440L535 960H601L470 827H400L315 960ZM307 0H237L373 704H108L120 765H720L708 704H443L307 0Z" />
<glyph unicode="&#x165;" glyph-name="tcaron" horiz-adv-x="355" d="M395 788H460L393 624H349L395 788ZM271 681L240 524H370L359 470H230L166 140Q156 89 169 69T227 49Q247 49 264 52Q274 53 283 55L272 -1Q264 -3 254 -5Q246 -7 235 -8T212 -9Q146 -9 114
25T97 135L162 470H67L77 522H97Q121 522 137 526T165 541T183 575T198 633L208 681H271Z" />
<glyph unicode="&#x166;" glyph-name="Tbar" horiz-adv-x="642" d="M307 0H237L322 441H121L131 494H332L373 704H108L120 765H720L708 704H443L402 494H600L590 441H392L307 0Z" />
<glyph unicode="&#x167;" glyph-name="tbar" horiz-adv-x="355" d="M272 -1Q264 -3 254 -5Q246 -7 235 -8T212 -9Q146 -9 114 25T97 135L121 260H23L33 315H132L162 470H67L77 522H97Q121 522 137 526T165 541T183 575T198 633L208 681H271L240 524H370L359 470H230L200
315H331L321 260H189L166 140Q156 89 169 69T227 49Q247 49 264 52Q274 53 283 55L272 -1Z" />
<glyph unicode="&#x168;" glyph-name="Utilde" horiz-adv-x="747" d="M196 765H266L179 318Q173 289 169 261T165 207T168 156T184 113Q205 76 245 60T341 43Q397 43 440 59T518 111Q537 130 549 153T568 202T581 255T592 308L681 765H750L649 244Q623 112 546
49T339 -15Q277 -15 226 0T143 51T99 143T103 282L196 765ZM312 828Q315 851 322 873T342 912T376 940T424 951Q449 951 467 941T501 918T531 896T560 885Q584 885 596 903T614 954H667Q665 931 658 909T637 869T603 841T556 830Q531 830 513 840T478 863T448 885T419
896Q397 896 384 878T365 828H312Z" />
<glyph unicode="&#x169;" glyph-name="utilde" horiz-adv-x="575" d="M150 210Q146 192 143 172T140 132Q140 114 144 99T159 71T187 52T231 45Q268 45 297 61T350 107T389 175T414 260L465 524H534L432 0H368L388 98H385Q356 49 315 18T217 -13Q170 -13 139 2T92
45T72 110T78 193L142 524H210L150 210ZM192 628Q194 652 200 674T219 714T251 742T299 752Q323 752 341 742T376 719T408 696T438 685Q461 685 472 703T487 754H539Q537 730 531 708T512 668T480 640T432 630Q408 630 389 640T354 663T323 686T293 697Q270 697
259 679T243 628H192Z" />
<glyph unicode="&#x16a;" glyph-name="Umacron" horiz-adv-x="747" d="M196 765H266L179 318Q173 289 169 261T165 207T168 156T184 113Q205 76 245 60T341 43Q397 43 440 59T518 111Q537 130 549 153T568 202T581 255T592 308L681 765H750L649 244Q623 112 546
49T339 -15Q277 -15 226 0T143 51T99 143T103 282L196 765ZM358 916H630L618 859H347L358 916Z" />
<glyph unicode="&#x16b;" glyph-name="umacron" horiz-adv-x="575" d="M150 210Q146 192 143 172T140 132Q140 114 144 99T159 71T187 52T231 45Q268 45 297 61T350 107T389 175T414 260L465 524H534L432 0H368L388 98H385Q356 49 315 18T217 -13Q170 -13 139
2T92 45T72 110T78 193L142 524H210L150 210ZM234 711H505L494 654H223L234 711Z" />
<glyph unicode="&#x16c;" glyph-name="Ubreve" horiz-adv-x="747" d="M196 765H266L179 318Q173 289 169 261T165 207T168 156T184 113Q205 76 245 60T341 43Q397 43 440 59T518 111Q537 130 549 153T568 202T581 255T592 308L681 765H750L649 244Q623 112 546
49T339 -15Q277 -15 226 0T143 51T99 143T103 282L196 765ZM420 969Q416 927 435 908T489 888Q565 888 593 969H647Q638 934 622 909T585 868T539 844T486 836Q459 836 435 843T395 867T371 908T367 969H420Z" />
<glyph unicode="&#x16d;" glyph-name="ubreve" horiz-adv-x="575" d="M150 210Q146 192 143 172T140 132Q140 114 144 99T159 71T187 52T231 45Q268 45 297 61T350 107T389 175T414 260L465 524H534L432 0H368L388 98H385Q356 49 315 18T217 -13Q170 -13 139 2T92
45T72 110T78 193L142 524H210L150 210ZM361 630Q331 630 306 638T265 665T242 712T243 781H296Q286 730 305 706T363 682Q448 682 471 781H525Q518 741 502 713T464 666T416 639T361 630Z" />
<glyph unicode="&#x16e;" glyph-name="Uring" horiz-adv-x="747" d="M196 765H266L179 318Q173 289 169 261T165 207T168 156T184 113Q205 76 245 60T341 43Q397 43 440 59T518 111Q537 130 549 153T568 202T581 255T592 308L681 765H750L649 244Q623 112 546
49T339 -15Q277 -15 226 0T143 51T99 143T103 282L196 765ZM487 814Q442 814 417 840T391 907Q391 955 420 985T498 1015Q546 1015 571 989T597 921Q597 872 567 843T487 814ZM497 977Q471 977 456 958T440 908Q440 883 453 868T491 852Q516 852 532 870T549 920Q549
943 536 960T497 977Z" />
<glyph unicode="&#x16f;" glyph-name="uring" horiz-adv-x="575" d="M367 632Q322 633 297 659T271 726Q271 774 300 804T378 834Q425 834 450 808T476 740Q476 690 446 661T367 632ZM377 796Q350 796 335 777T319 727Q319 702 332 687T371 671Q396 671 412 689T428
739Q428 762 416 778T377 796ZM150 210Q146 192 143 172T140 132Q140 114 144 99T159 71T187 52T231 45Q268 45 297 61T350 107T389 175T414 260L465 524H534L432 0H368L388 98H385Q356 49 315 18T217 -13Q170 -13 139 2T92 45T72 110T78 193L142 524H210L150 210Z"
/>
<glyph unicode="&#x170;" glyph-name="Uhungarumlaut" horiz-adv-x="747" d="M575 973H651L560 840H512L575 973ZM449 973H525L430 840H383L449 973ZM196 765H266L179 318Q173 289 169 261T165 207T168 156T184 113Q205 76 245 60T341 43Q397 43 440 59T518 111Q537
130 549 153T568 202T581 255T592 308L681 765H750L649 244Q623 112 546 49T339 -15Q277 -15 226 0T143 51T99 143T103 282L196 765Z" />
<glyph unicode="&#x171;" glyph-name="uhungarumlaut" horiz-adv-x="575" d="M150 210Q146 192 143 172T140 132Q140 114 144 99T159 71T187 52T231 45Q268 45 297 61T350 107T389 175T414 260L465 524H534L432 0H368L388 98H385Q356 49 315 18T217 -13Q170 -13
139 2T92 45T72 110T78 193L142 524H210L150 210ZM474 788H546L431 630H382L474 788ZM344 788H415L300 630H251L344 788Z" />
<glyph unicode="&#x172;" glyph-name="Uogonek" horiz-adv-x="747" d="M315 -14Q263 -13 217 3T141 53T99 144T103 281L196 765H266L179 318Q173 289 169 261T164 207T167 156T183 113Q204 76 245 60T340 43Q394 43 438 59T518 111Q536 130 548 153T567 202T580
255T591 308L680 765H750L649 244Q635 177 612 133T558 60T490 16T413 -9Q370 -20 339 -43T308 -97Q308 -121 326 -129T373 -138L363 -188H349Q301 -188 271 -171T241 -112Q241 -83 261 -59T315 -16V-14Z" />
<glyph unicode="&#x173;" glyph-name="uogonek" horiz-adv-x="575" d="M380 -188Q332 -188 302 -171T272 -113Q272 -79 299 -50T368 2L388 98H385Q356 49 315 18T217 -13Q170 -13 139 2T92 45T72 110T78 193L142 524H210L150 210Q146 192 143 172T140 132Q140
114 144 99T159 71T187 52T231 45Q268 45 297 61T350 107T389 175T414 260L465 524H534L432 2Q393 -20 366 -44T339 -97Q339 -121 357 -129T404 -138L394 -188H380Z" />
<glyph unicode="&#x174;" glyph-name="Wcircumflex" horiz-adv-x="1021" d="M753 827H696L632 913H631L536 827H473L600 960H670L753 827ZM194 0L130 765H198L243 187Q246 140 246 114V87H248Q252 98 257 113Q262 126 269 143T286 181L561 765H644L689 188Q692
143 692 115V86H694Q699 99 705 114Q710 127 718 144T735 181L1010 765H1080L716 0H640L595 565Q592 596 591 619T589 658Q588 676 589 688H587Q583 676 576 659Q570 645 561 624T538 573L268 0H194Z" />
<glyph unicode="&#x175;" glyph-name="wcircumflex" horiz-adv-x="778" d="M581 630H523L473 740L386 630H323L446 788H514L581 630ZM77 524H143L175 141Q176 130 176 120T178 101Q179 90 179 81H181L191 101Q196 110 200 120T210 142L399 524H469L509 141Q510
133 510 122T512 102Q513 91 514 80H516Q521 91 525 102Q529 112 533 122T542 142L726 524H793L536 0H464L425 368Q423 381 422 394T420 419Q419 432 419 444H418Q413 432 407 419Q402 408 396 395T383 368L202 0H129L77 524Z" />
<glyph unicode="&#x176;" glyph-name="Ycircumflex" horiz-adv-x="627" d="M295 340L113 765H189L339 401H341L638 765H715L362 333L298 0H229L295 340ZM560 827H503L439 913H438L343 827H280L407 960H477L560 827Z" />
<glyph unicode="&#x177;" glyph-name="ycircumflex" horiz-adv-x="483" d="M75 524H142L194 173Q196 157 197 142T201 115Q203 101 204 89H207L219 113Q224 124 230 137T245 164L430 524H500L197 -47Q174 -90 154 -119T112 -166T65 -191T6 -199Q-18 -199 -35 -195T-56
-188L-44 -132Q-39 -134 -26 -138T6 -142Q28 -142 45 -136T77 -118T103 -88T129 -45L155 5L75 524ZM442 630H384L334 740L247 630H184L307 788H375L442 630Z" />
<glyph unicode="&#x178;" glyph-name="Ydieresis" horiz-adv-x="627" d="M295 340L113 765H189L339 401H341L638 765H715L362 333L298 0H229L295 340ZM507 904H584L567 820H491L507 904ZM295 904H372L356 820H279L295 904Z" />
<glyph unicode="&#x179;" glyph-name="Zacute" horiz-adv-x="638" d="M486 960H566L451 827H395L486 960ZM166 765H685L675 712L98 61H555L544 0H-2L8 53L584 705H154L166 765Z" />
<glyph unicode="&#x17a;" glyph-name="zacute" horiz-adv-x="499" d="M378 788H455L347 630H293L378 788ZM117 524H499L488 464L97 58H417L407 0H4L15 60L405 467H106L117 524Z" />
<glyph unicode="&#x17b;" glyph-name="Zdotaccent" horiz-adv-x="638" d="M166 765H685L675 712L98 61H555L544 0H-2L8 53L584 705H154L166 765ZM409 918H483L468 839H394L409 918Z" />
<glyph unicode="&#x17c;" glyph-name="zdotaccent" horiz-adv-x="499" d="M117 524H499L488 464L97 58H417L407 0H4L15 60L405 467H106L117 524ZM306 733H380L365 654H291L306 733Z" />
<glyph unicode="&#x17d;" glyph-name="Zcaron" horiz-adv-x="638" d="M310 960H370L434 874H435L530 960H596L465 827H395L310 960ZM166 765H685L675 712L98 61H555L544 0H-2L8 53L584 705H154L166 765Z" />
<glyph unicode="&#x17e;" glyph-name="zcaron" horiz-adv-x="499" d="M224 788H282L332 678L419 788H482L359 630H291L224 788ZM117 524H499L488 464L97 58H417L407 0H4L15 60L405 467H106L117 524Z" />
<glyph unicode="&#x192;" glyph-name="florin" horiz-adv-x="378" d="M76 -189H8L155 374H48L58 428H169L225 644Q235 683 252 709T293 752T343 776T400 783Q418 783 431 781T455 776L442 719Q434 721 424 723T395 725Q359 725 331 705T288 631L236 428H366L356
374H222L76 -189Z" />
<glyph unicode="&#x1fa;" glyph-name="Aringacute" horiz-adv-x="709" d="M438 697Q436 694 423 666T387 596L229 308H502L454 597Q450 617 448 635T444 668Q442 684 440 697H438ZM511 250H198L62 0H-10L409 765H491L624 0H554L511 250ZM557 1172H637L522 1039H466L557
1172ZM470 811Q425 811 400 837T374 904Q374 952 403 982T481 1012Q529 1012 554 986T580 918Q580 869 550 840T470 811ZM480 974Q454 974 439 955T423 905Q423 880 436 865T474 849Q499 849 515 867T532 917Q532 940 519 957T480 974Z" />
<glyph unicode="&#x1fb;" glyph-name="aringacute" horiz-adv-x="541" d="M195 48Q222 48 250 60T304 97T348 155T376 234L381 258Q362 258 340 258T294 256T247 251T204 244Q156 233 128 206T100 136Q100 94 124 71T195 48ZM101 385Q108 451 159 494T299 537Q353
537 388 521T443 476T466 412T462 335L420 118Q413 80 422 64T458 50L448 -5H440Q394 -5 373 19T358 96H356Q325 49 284 21T178 -8Q114 -8 72 28T29 133Q29 168 41 195T75 242T127 275T195 296Q239 305 291 306T392 308L397 341Q402 370 400 395T386 440T352 471T293
482Q245 482 211 459T169 385H101ZM332 848Q287 849 262 875T236 942Q236 990 265 1020T343 1050Q390 1050 415 1024T441 956Q441 906 411 877T332 848ZM342 1012Q315 1012 300 993T284 943Q284 918 297 903T336 887Q361 887 377 905T393 955Q393 978 381 994T342
1012ZM422 966H502L387 833H331L422 966Z" />
<glyph unicode="&#x1fc;" glyph-name="AEacute" horiz-adv-x="1022" d="M682 960H762L647 827H591L682 960ZM554 702H474Q460 678 448 655T428 620L236 308H478L554 702ZM467 250H200L45 -1L-30 0L442 765H1042L1030 702H624L570 420H940L928 359H558L501 63H911L899
0H419L467 250Z" />
<glyph unicode="&#x1fd;" glyph-name="aeacute" horiz-adv-x="854" d="M544 788H621L513 630H459L544 788ZM743 309Q747 343 745 375T731 431T695 469T633 484Q595 484 566 467T515 424T479 366T456 303H742L743 309ZM196 47Q226 47 254 59T307 95T349 154T376
234L381 258Q362 258 340 258T294 256T247 251T203 244Q155 234 128 206T100 136Q100 94 124 71T196 47ZM769 131Q761 101 745 75T702 30T639 -1T558 -13Q480 -13 438 21T385 112H382Q363 86 342 64T297 26T242 1T175 -8Q109 -8 69 28T29 131Q29 203 74 241T195
296Q239 306 291 307T392 308L398 348Q402 376 400 400T385 443T351 471T293 482Q245 482 210 459T168 385H100Q107 451 158 494T298 537Q367 537 403 510T453 435H456Q491 481 536 509T639 537Q698 537 734 514T790 455T812 375T806 286L799 250H445Q432 148 460
95T566 41Q597 41 620 48T659 67T686 96T704 131H769Z" />
<glyph unicode="&#x1fe;" glyph-name="Oslashacute" horiz-adv-x="798" d="M470 719Q416 719 372 699T292 646T231 569T188 476T163 378T155 283Q155 246 160 213T178 152L629 666Q603 691 564 705T470 719ZM378 41Q431 41 475 61T554 115T614 193T657 285T682
382T691 475Q691 517 685 554T662 622L208 104Q234 74 276 58T378 41ZM763 473Q763 389 739 303T665 146T543 30T374 -15Q308 -15 257 4T168 59L95 -25H23L133 101Q108 138 96 185T83 286Q83 346 95 406T130 520T187 621T264 702T361 756T475 776Q535 776 584 760T669
712L738 791H810L706 672Q734 634 748 584T763 473ZM556 960H636L521 827H465L556 960Z" />
<glyph unicode="&#x1ff;" glyph-name="oslashacute" horiz-adv-x="554" d="M312 484Q258 484 221 454T160 379T126 282T115 183Q115 154 120 126L415 442Q400 462 375 473T312 484ZM244 41Q299 41 337 72T398 148T431 246T441 341Q441 355 440 368T436 394L141
79Q156 60 181 51T244 41ZM510 338Q510 276 494 214T444 101T360 19T240 -13Q195 -13 161 0T101 37L47 -21H-17L72 75Q46 122 46 187Q46 248 62 310T112 423T196 505T316 537Q361 537 396 524T456 486L509 542H575L485 446Q510 402 510 338ZM398 788H475L367 630H313L398
788Z" />
<glyph unicode="&#x218;" glyph-name="Scommaaccent" horiz-adv-x="682" d="M272 -63H343L264 -198H218L272 -63ZM135 218Q132 126 183 85T329 44Q368 44 405 53T470 83T516 135T534 210Q534 257 510 289T423 341L318 373Q239 397 199 440T158 555Q158 607 178
648T232 717T313 761T414 776Q465 776 508 762T584 719T632 650T646 557H576Q580 634 537 676T408 719Q372 719 340 709T282 678T243 629T228 564Q228 516 253 486T333 440L447 406Q533 380 569 333T606 218Q606 162 585 119T526 45T437 0T328 -16Q271 -16 222
-3T136 38T81 110T65 218H135Z" />
<glyph unicode="&#x219;" glyph-name="scommaaccent" horiz-adv-x="496" d="M172 -63H243L164 -198H118L172 -63ZM384 395Q385 433 359 458T275 484Q254 484 234 479T196 461T169 431T159 388Q159 353 177 336T235 307L292 291Q330 280 355 267T396 238T418 200T425
153Q425 113 410 82T367 30T303 -2T224 -13Q186 -13 152 -5T91 23T50 74T37 151H102Q99 101 129 71T227 41Q252 41 275 46T317 64T347 96T358 144Q358 173 341 194T272 231L215 247Q158 263 125 292T92 382Q92 419 107 448T147 497T207 527T279 537Q314 537 346
529T401 503T438 459T449 395H384Z" />
<glyph unicode="&#x21a;" glyph-name="uni021A" horiz-adv-x="642" d="M227 -63H298L219 -198H173L227 -63ZM307 0H237L373 704H108L120 765H720L708 704H443L307 0Z" />
<glyph unicode="&#x21b;" glyph-name="uni021B" horiz-adv-x="355" d="M383 -63H454L375 -198H329L383 -63ZM271 681L240 524H370L359 470H230L166 140Q156 89 169 69T227 49Q247 49 264 52Q274 53 283 55L272 -1Q264 -3 254 -5Q246 -7 235 -8T212 -9Q146 -9 114
25T97 135L162 470H67L77 522H97Q121 522 137 526T165 541T183 575T198 633L208 681H271Z" />
<glyph unicode="&#x237;" glyph-name="uni0237" horiz-adv-x="257" d="M-98 -132Q-94 -134 -82 -136T-53 -139Q-15 -139 6 -119T36 -53L148 524H216L102 -64Q88 -136 47 -166T-54 -197Q-76 -197 -90 -193T-109 -187L-98 -132Z" />
<glyph unicode="&#x2c6;" glyph-name="circumflex" horiz-adv-x="362" d="M384 630H326L276 740L189 630H126L249 788H317L384 630Z" />
<glyph unicode="&#x2c7;" glyph-name="caron" horiz-adv-x="346" d="M144 788H202L252 678L339 788H402L279 630H211L144 788Z" />
<glyph unicode="&#x2d8;" glyph-name="breve" horiz-adv-x="363" d="M258 630Q228 630 203 638T162 665T139 712T140 781H193Q183 730 202 706T260 682Q345 682 368 781H422Q415 741 399 713T361 666T313 639T258 630Z" />
<glyph unicode="&#x2d9;" glyph-name="dotaccent" horiz-adv-x="282" d="M198 733H272L257 654H183L198 733Z" />
<glyph unicode="&#x2da;" glyph-name="ring" horiz-adv-x="366" d="M224 632Q179 633 154 659T128 726Q128 774 157 804T235 834Q282 834 307 808T333 740Q333 690 303 661T224 632ZM234 796Q207 796 192 777T176 727Q176 702 189 687T228 671Q253 671 269 689T285
739Q285 762 273 778T234 796Z" />
<glyph unicode="&#x2db;" glyph-name="ogonek" horiz-adv-x="369" d="M211 0Q175 -20 148 -43T121 -97Q121 -120 139 -129T186 -138L176 -188H162Q114 -188 84 -170T54 -111Q54 -92 62 -75T85 -44T118 -17T158 4L211 0Z" />
<glyph unicode="&#x2dc;" glyph-name="tilde" horiz-adv-x="363" d="M87 628Q89 652 95 674T114 714T146 742T194 752Q218 752 236 742T271 719T303 696T333 685Q356 685 367 703T382 754H434Q432 730 426 708T407 668T375 640T327 630Q303 630 284 640T249 663T218
686T188 697Q165 697 154 679T138 628H87Z" />
<glyph unicode="&#x2dd;" glyph-name="hungarumlaut" horiz-adv-x="339" d="M331 788H403L288 630H239L331 788ZM201 788H272L157 630H108L201 788Z" />
</font>
</defs>
</svg>
